<svg width="276" height="276" viewBox="0 0 276 276" fill="none" xmlns="http://www.w3.org/2000/svg">
<g clip-path="url(#clip0_2461_37)">
<path d="M115.775 82.7646C117.768 75.3686 122.421 70.328 127.76 66.0483C137.649 58.1042 148.82 55.2147 161.316 58.8338C169.631 61.2442 174.871 67.0291 178.005 74.71C179.788 79.099 180.663 83.8712 182.091 89.0176C183.619 88.8285 185.125 88.4951 186.59 88.022C195.144 84.456 203.391 85.925 211.314 89.7457C220.052 94.0342 227.469 100.603 232.782 108.757C234.341 110.965 235.443 113.463 236.023 116.102C236.604 118.742 236.651 121.472 236.163 124.13C234.864 131.971 231.791 138.787 226.11 144.386C224.109 146.374 222.114 148.354 220.472 149.985C219.894 152.575 221.379 153.718 222.329 155.042C225.943 160.09 227.116 165.994 227.608 171.945C228.699 185.21 218.233 199.241 205.34 202.651C201.262 203.733 197.432 202.525 193.528 202.146C190.645 201.694 187.79 201.075 184.979 200.29C184.33 201.239 183.803 202.266 183.409 203.347C181.838 210.674 178.409 217.229 175.056 223.805C169.172 235.346 158.14 240.603 145.294 238.577C139.115 237.492 133.264 235.017 128.182 231.338C121.763 226.939 117.265 220.256 115.605 212.653C114.892 209.609 114.454 206.517 113.785 202.884C112.215 202.894 110.649 203.044 109.106 203.331C105.267 204.343 101.491 205.53 97.6454 206.704C89.5457 209.091 82.5215 207.248 76.1983 201.81C70.0741 196.602 65.7363 189.606 63.7947 181.805C62.8791 178.201 62.7789 174.439 63.5013 170.791C64.2237 167.144 65.7507 163.703 67.9708 160.721C70.2579 157.498 72.8391 154.487 75.1885 151.51C74.826 150.736 74.7232 150.026 74.3656 149.849C65.7273 145.619 59.1344 138.965 53.1054 131.766C48.736 126.478 45.8024 120.155 44.5872 113.404C43.1389 105.827 45.6578 98.5947 49.0453 92.0255C52.8514 84.9349 58.7671 79.2026 65.974 75.6216C79.4558 68.6876 92.8392 69.7461 105.635 77.9808C108.438 79.859 111.234 81.8004 115.775 82.7646ZM181.861 184.349C188.542 189.893 196.319 191.508 204.295 192.281C206.262 192.358 208.212 191.878 209.919 190.896C217.04 186.988 218.938 182.682 217.365 174.655C217.023 172.989 216.586 171.343 216.055 169.727C214.179 163.863 211.395 158.719 205.194 156.323C204.444 155.921 203.769 155.393 203.198 154.763C201.833 153.515 201.58 151.358 203.003 150.254C205.447 148.359 207.927 146.12 210.775 145.196C216.006 143.5 219.488 140.141 222.446 135.804C226.915 129.253 227.08 122.398 222.664 115.991C221.096 113.618 219.392 111.337 217.56 109.16C210.908 101.586 202.812 96.8166 192.417 96.6957C188.981 96.5423 185.597 97.5825 182.841 99.64C181.058 101.033 179.167 102.282 177.188 103.378C176.746 103.617 176.259 103.759 175.758 103.795C175.258 103.832 174.755 103.762 174.283 103.589C173.812 103.417 173.383 103.147 173.023 102.796C172.664 102.445 172.384 102.022 172.2 101.555C171.612 100.285 171.242 98.9261 171.105 97.5337C170.847 94.9902 171.038 92.3921 170.668 89.8763C169.68 83.2425 167.173 77.0107 162.047 72.7363C149.456 62.1142 130.302 68.1854 125.688 84.0497C124.817 87.6287 124.133 91.2508 123.641 94.9011C123.571 96.0261 123.424 97.145 123.2 98.2499C122.973 99.0741 122.537 99.8257 121.934 100.432C121.331 101.038 120.581 101.478 119.758 101.71C118.935 101.941 118.066 101.957 117.236 101.754C116.405 101.551 115.641 101.138 115.017 100.553C113.721 99.4456 112.609 98.1283 111.412 96.923C105.385 90.8295 98.0176 86.2288 89.897 83.4881C80.1032 80.307 70.9205 81.0824 62.992 88.7032C59.0312 92.5102 58.0303 97.5075 56.6083 102.419C54.3125 110.116 55.932 116.949 60.8616 123.21C64.9188 128.354 69.7907 132.798 75.284 136.367C80.0001 139.453 84.9492 142.168 90.0378 145.192C90.1324 147.164 89.7509 149.131 88.9255 150.925C88.1001 152.719 86.8551 154.288 85.2956 155.5C83.0133 157.192 80.8737 159.068 78.8983 161.11C73.7929 166.866 72.246 173.315 75.3314 180.736C77.046 184.641 79.5106 188.172 82.5853 191.128C86.9456 195.52 92.165 197.294 98.1613 195.833C105.036 194.157 112.12 192.974 118.53 189.731C119.938 189.02 121.687 189.005 123.078 188.672C125.835 191.73 125.164 194.832 124.767 197.943C122.262 216.989 142.253 230.454 157.806 227.79C159.796 227.538 161.7 226.826 163.367 225.71C165.034 224.595 166.418 223.106 167.409 221.362C172.272 212.656 177.156 203.901 173.984 193.178C172.957 189.733 175.038 187.191 178.07 185.663C179.307 185.15 180.572 184.712 181.861 184.349Z" fill="white"/>
<path d="M181.861 184.349C180.573 184.711 179.307 185.15 178.071 185.663C175.01 187.219 172.957 189.733 173.985 193.178C177.157 203.9 172.301 212.628 167.409 221.362C166.418 223.106 165.034 224.594 163.367 225.71C161.7 226.826 159.796 227.538 157.807 227.79C142.31 230.397 122.298 216.954 124.739 197.914C125.136 194.804 125.807 191.702 123.051 188.644C121.694 188.941 119.931 188.942 118.503 189.703C112.065 192.974 105.009 194.129 98.1337 195.805C92.1373 197.266 86.8968 195.512 82.5577 191.1C79.4829 188.144 77.0183 184.613 75.3037 180.708C72.2044 173.273 73.7652 166.837 78.8706 161.082C80.8461 159.04 82.9857 157.164 85.2679 155.471C86.8274 154.26 88.0725 152.691 88.8979 150.897C89.7232 149.102 90.1047 147.136 90.0101 145.163C84.9496 142.167 80.0004 139.453 75.2844 136.367C69.7851 132.806 64.906 128.369 60.8408 123.231C55.8902 116.948 54.2917 110.137 56.5875 102.44C58.0307 97.5073 61.8596 88.0557 65.8203 84.2488C73.6995 76.6769 80.1035 80.3069 89.9113 83.5161C98.0319 86.2568 105.4 90.8575 111.427 96.951C112.623 98.1562 113.75 99.4596 115.031 100.581C115.655 101.166 116.419 101.579 117.25 101.782C118.081 101.985 118.949 101.969 119.773 101.738C120.596 101.506 121.345 101.066 121.948 100.46C122.551 99.8537 122.987 99.1021 123.215 98.2779C123.438 97.173 123.585 96.0541 123.655 94.9291C124.148 91.2788 124.831 87.6567 125.702 84.0777C130.302 68.2274 149.456 62.1562 162.061 72.7643C167.159 77.0667 169.694 83.2705 170.682 89.9044C171.053 92.4201 170.861 95.0182 171.119 97.5617C171.256 98.9541 171.626 100.313 172.214 101.583C172.398 102.05 172.679 102.473 173.038 102.824C173.397 103.175 173.826 103.445 174.298 103.617C174.769 103.79 175.272 103.86 175.772 103.823C176.273 103.787 176.76 103.645 177.202 103.406C179.182 102.31 181.072 101.061 182.855 99.668C185.612 97.6105 188.995 96.5703 192.432 96.7237C202.826 96.8446 210.922 101.614 217.575 109.188C219.406 111.365 221.11 113.646 222.678 116.019C227.087 122.419 226.923 129.274 222.461 135.832C219.509 140.162 216.063 143.486 210.789 145.224C207.941 146.148 205.496 148.352 203.017 150.281C201.595 151.386 201.847 153.543 203.212 154.791C203.783 155.421 204.459 155.949 205.208 156.351C211.409 158.747 214.193 163.891 216.069 169.755C216.6 171.371 217.037 173.017 217.379 174.683C218.952 182.71 217.04 187.03 209.933 190.924C208.226 191.906 206.277 192.386 204.309 192.309C196.284 191.543 188.507 189.928 181.861 184.349ZM130.779 126.266C129.574 127.463 128.312 128.617 127.156 129.863C122.742 134.708 121.662 140.372 123.529 146.511C124.891 151.476 127.365 156.065 130.766 159.93C137.161 166.85 144.462 169.748 153.749 165.398C158.135 163.394 162.123 160.615 165.521 157.194C171.443 151.02 173.24 143.441 170.193 135.114C168.512 130.259 165.874 125.791 162.436 121.974C159.504 118.824 155.748 116.31 151.16 116.905C143.437 117.952 136.055 119.977 130.744 126.301L130.779 126.266Z" fill="#926BD6"/>
<path d="M130.743 126.301C136.054 119.977 143.415 117.917 151.138 116.954C155.726 116.359 159.482 118.873 162.414 122.023C165.852 125.84 168.49 130.309 170.171 135.163C173.218 143.49 171.421 151.069 165.5 157.243C162.101 160.664 158.113 163.444 153.727 165.448C144.441 169.798 137.139 166.899 130.744 159.979C127.344 156.114 124.869 151.525 123.508 146.56C121.626 140.436 122.713 134.75 127.134 129.912C128.277 128.652 129.573 127.463 130.743 126.301ZM138.648 151.291C140.225 152.273 142.676 154.29 145.474 155.459C152.228 158.271 157.816 155.2 159.709 148.127C161.261 142.387 158.988 137.645 155.962 133.076C152.211 127.409 147.237 125.769 141.493 129.134C130.324 135.69 129.13 139.549 138.648 151.291Z" fill="white"/>
<path d="M138.648 151.291C129.131 139.549 130.359 135.725 141.494 129.134C147.237 125.769 152.211 127.409 155.963 133.076C159.002 137.659 161.247 142.373 159.71 148.127C157.83 155.186 152.229 158.271 145.475 155.459C142.676 154.29 140.218 152.28 138.648 151.291Z" fill="#926BD6"/>
<path d="M115.776 82.7646C117.768 75.3686 122.422 70.328 127.761 66.0483C137.65 58.1042 148.821 55.2147 161.317 58.8338C169.632 61.2442 174.872 67.0291 178.006 74.71C179.789 79.099 180.664 83.8712 182.092 89.0176C183.62 88.8285 185.126 88.4951 186.591 88.022C195.145 84.456 203.392 85.925 211.315 89.7457C220.053 94.0342 227.47 100.603 232.783 108.757C234.342 110.965 235.444 113.463 236.024 116.102C236.605 118.742 236.652 121.472 236.163 124.13C234.865 131.971 231.792 138.787 226.111 144.386C224.11 146.374 222.115 148.354 220.473 149.985C219.895 152.575 221.38 153.718 222.33 155.042C225.944 160.09 227.117 165.994 227.609 171.945C228.7 185.21 218.234 199.241 205.341 202.651C201.263 203.733 197.433 202.525 193.529 202.146C190.646 201.694 187.791 201.075 184.98 200.29C184.331 201.239 183.804 202.266 183.41 203.347C181.839 210.674 178.41 217.229 175.057 223.805C169.173 235.346 158.141 240.603 145.295 238.577C139.116 237.492 133.264 235.017 128.183 231.338C121.764 226.939 117.266 220.256 115.606 212.653C114.893 209.609 114.455 206.517 113.786 202.884C112.216 202.894 110.65 203.044 109.107 203.331C105.268 204.343 101.492 205.53 97.6464 206.704C89.5467 209.091 82.5225 207.248 76.1992 201.81C70.0751 196.602 65.7373 189.606 63.7957 181.805C62.8801 178.201 62.7798 174.439 63.5023 170.791C64.2247 167.144 65.7516 163.703 67.9718 160.721C70.2588 157.498 72.8401 154.487 75.1895 151.51C74.827 150.736 74.7241 150.026 74.3666 149.849C65.7283 145.619 59.1354 138.965 53.1064 131.766C48.737 126.478 45.8033 120.155 44.5881 113.404C43.1399 105.827 45.6588 98.5947 49.0463 92.0255C52.8524 84.9349 58.7681 79.2026 65.9749 75.6216C79.4568 68.6876 92.8402 69.7461 105.636 77.9808C108.439 79.859 111.235 81.8004 115.776 82.7646ZM181.862 184.349C188.543 189.893 196.319 191.508 204.296 192.281C206.263 192.358 208.213 191.878 209.919 190.896C217.041 186.988 218.939 182.682 217.366 174.655C217.024 172.989 216.587 171.343 216.056 169.727C214.18 163.863 211.395 158.719 205.195 156.323C204.445 155.921 203.77 155.393 203.199 154.763C201.834 153.515 201.581 151.358 203.004 150.254C205.448 148.359 207.928 146.12 210.776 145.196C216.007 143.5 219.489 140.141 222.447 135.804C226.916 129.253 227.081 122.398 222.665 115.991C221.097 113.618 219.393 111.337 217.561 109.16C210.908 101.586 202.813 96.8166 192.418 96.6957C188.982 96.5423 185.598 97.5825 182.842 99.64C181.059 101.033 179.168 102.282 177.188 103.378C176.747 103.617 176.26 103.759 175.759 103.795C175.259 103.832 174.756 103.762 174.284 103.589C173.813 103.417 173.384 103.147 173.024 102.796C172.665 102.445 172.385 102.022 172.201 101.555C171.613 100.285 171.243 98.9261 171.106 97.5337C170.848 94.9902 171.039 92.3921 170.669 89.8763C169.681 83.2425 167.174 77.0107 162.048 72.7363C149.457 62.1142 130.303 68.1854 125.689 84.0497C124.818 87.6287 124.134 91.2508 123.642 94.9011C123.572 96.0261 123.425 97.145 123.201 98.2499C122.974 99.0741 122.538 99.8257 121.935 100.432C121.332 101.038 120.582 101.478 119.759 101.71C118.936 101.941 118.067 101.957 117.237 101.754C116.406 101.551 115.642 101.138 115.018 100.553C113.722 99.4456 112.61 98.1283 111.413 96.923C105.386 90.8295 98.0186 86.2288 89.898 83.4881C80.1041 80.307 70.9215 81.0824 62.993 88.7032C59.0322 92.5102 58.0313 97.5075 56.6093 102.419C54.3135 110.116 55.9329 116.949 60.8626 123.21C64.9197 128.354 69.7917 132.798 75.285 136.367C80.0011 139.453 84.9502 142.168 90.0388 145.192C90.1334 147.164 89.7519 149.131 88.9265 150.925C88.1011 152.719 86.8561 154.288 85.2966 155.5C83.0143 157.192 80.8747 159.068 78.8993 161.11C73.7939 166.866 72.247 173.315 75.3323 180.736C77.047 184.641 79.5115 188.172 82.5863 191.128C86.9466 195.52 92.1659 197.294 98.1623 195.833C105.037 194.157 112.121 192.974 118.531 189.731C119.939 189.02 121.688 189.005 123.079 188.672C125.836 191.73 125.165 194.832 124.768 197.943C122.263 216.989 142.254 230.454 157.807 227.79C159.797 227.538 161.701 226.826 163.368 225.71C165.035 224.595 166.419 223.106 167.41 221.362C172.273 212.656 177.157 203.901 173.985 193.178C172.958 189.733 175.039 187.191 178.071 185.663C179.308 185.15 180.573 184.712 181.862 184.349Z" fill="white"/>
<path d="M181.862 184.349C180.574 184.711 179.308 185.15 178.072 185.663C175.011 187.219 172.958 189.733 173.986 193.178C177.158 203.9 172.302 212.628 167.41 221.362C166.419 223.106 165.035 224.594 163.368 225.71C161.701 226.826 159.797 227.538 157.808 227.79C142.311 230.397 122.299 216.954 124.74 197.914C125.137 194.804 125.808 191.702 123.052 188.644C121.695 188.941 119.932 188.942 118.504 189.703C112.066 192.974 105.01 194.129 98.1346 195.805C92.1383 197.266 86.8978 195.512 82.5586 191.1C79.4839 188.144 77.0193 184.613 75.3047 180.708C72.2053 173.273 73.7662 166.837 78.8716 161.082C80.847 159.04 82.9866 157.164 85.2689 155.471C86.8284 154.26 88.0735 152.691 88.8988 150.897C89.7242 149.102 90.1057 147.136 90.0111 145.163C84.9506 142.167 80.0014 139.453 75.2853 136.367C69.7861 132.806 64.907 128.369 60.8418 123.231C55.8911 116.948 54.2927 110.137 56.5884 102.44C58.0316 97.5073 61.8606 88.0557 65.8213 84.2488C73.7004 76.6769 80.1045 80.3069 89.9123 83.5161C98.0329 86.2568 105.401 90.8575 111.428 96.951C112.624 98.1562 113.751 99.4596 115.032 100.581C115.656 101.166 116.42 101.579 117.251 101.782C118.082 101.985 118.95 101.969 119.774 101.738C120.597 101.506 121.346 101.066 121.949 100.46C122.552 99.8537 122.988 99.1021 123.216 98.2779C123.439 97.173 123.586 96.0541 123.656 94.9291C124.149 91.2788 124.832 87.6567 125.703 84.0777C130.303 68.2274 149.457 62.1562 162.062 72.7643C167.16 77.0667 169.695 83.2705 170.683 89.9044C171.054 92.4201 170.862 95.0182 171.12 97.5617C171.257 98.9541 171.627 100.313 172.215 101.583C172.399 102.05 172.679 102.473 173.039 102.824C173.398 103.175 173.827 103.445 174.299 103.617C174.77 103.79 175.273 103.86 175.773 103.823C176.274 103.787 176.761 103.645 177.203 103.406C179.183 102.31 181.073 101.061 182.856 99.668C185.613 97.6105 188.996 96.5703 192.433 96.7237C202.827 96.8446 210.923 101.614 217.576 109.188C219.407 111.365 221.111 113.646 222.679 116.019C227.088 122.419 226.924 129.274 222.461 135.832C219.51 140.162 216.064 143.486 210.79 145.224C207.942 146.148 205.497 148.352 203.018 150.281C201.595 151.386 201.848 153.543 203.213 154.791C203.784 155.421 204.46 155.949 205.209 156.351C211.41 158.747 214.194 163.891 216.07 169.755C216.601 171.371 217.038 173.017 217.38 174.683C218.953 182.71 217.041 187.03 209.934 190.924C208.227 191.906 206.278 192.386 204.31 192.309C196.285 191.543 188.508 189.928 181.862 184.349ZM130.78 126.266C129.575 127.463 128.313 128.617 127.157 129.863C122.743 134.708 121.663 140.372 123.53 146.511C124.892 151.476 127.366 156.065 130.767 159.93C137.162 166.85 144.463 169.748 153.75 165.398C158.136 163.394 162.124 160.615 165.522 157.194C171.444 151.02 173.241 143.441 170.194 135.114C168.513 130.259 165.875 125.791 162.437 121.974C159.505 118.824 155.749 116.31 151.161 116.905C143.438 117.952 136.056 119.977 130.745 126.301L130.78 126.266Z" fill="#926BD6"/>
<path d="M130.744 126.301C136.055 119.977 143.416 117.917 151.139 116.954C155.727 116.359 159.483 118.873 162.415 122.023C165.853 125.84 168.491 130.309 170.172 135.163C173.219 143.49 171.422 151.069 165.501 157.243C162.102 160.664 158.114 163.444 153.728 165.448C144.442 169.798 137.14 166.899 130.745 159.979C127.345 156.114 124.87 151.525 123.509 146.56C121.627 140.436 122.714 134.75 127.135 129.912C128.278 128.652 129.574 127.463 130.744 126.301ZM138.649 151.291C140.226 152.273 142.677 154.29 145.475 155.459C152.229 158.271 157.817 155.2 159.71 148.127C161.262 142.387 158.989 137.645 155.963 133.076C152.212 127.409 147.238 125.769 141.494 129.134C130.325 135.69 129.131 139.549 138.649 151.291Z" fill="white"/>
<path d="M138.649 151.291C129.132 139.549 130.36 135.725 141.495 129.134C147.238 125.769 152.212 127.409 155.964 133.076C159.003 137.659 161.248 142.373 159.711 148.127C157.831 155.186 152.23 158.271 145.476 155.459C142.677 154.29 140.219 152.28 138.649 151.291Z" fill="#926BD6"/>
</g>
<defs>
<clipPath id="clip0_2461_37">
<rect width="194" height="194" fill="white" transform="translate(0.822266 137.517) rotate(-44.7981)"/>
</clipPath>
</defs>
</svg>
