<svg width="264" height="264" viewBox="0 0 264 264" fill="none" xmlns="http://www.w3.org/2000/svg">
<g clip-path="url(#clip0_2461_51)">
<path d="M85.5239 169.214C77.8675 169.439 71.6988 166.438 66.0609 162.56C55.6017 155.383 49.6126 145.521 49.4729 132.512C49.3822 123.855 53.4095 117.169 59.8599 111.953C63.5481 108.98 67.865 106.765 72.3804 103.913C71.7586 102.504 71.0049 101.158 70.1294 99.8923C64.2476 92.7312 63.2748 84.4105 64.6475 75.7218C66.2332 66.1189 70.3827 57.1225 76.6579 49.6825C78.3224 47.553 80.3956 45.7774 82.7558 44.46C85.116 43.1427 87.7155 42.3101 90.4019 42.0112C98.2841 40.993 105.697 41.9684 112.697 45.7925C115.177 47.1358 117.649 48.4743 119.684 49.5763C122.331 49.3827 122.997 47.6311 123.99 46.3391C127.782 41.4228 133.096 38.5963 138.652 36.4088C151.038 31.5376 167.492 37.5105 174.477 48.8721C176.688 52.4644 176.637 56.4805 177.401 60.3277C177.8 63.2186 178.03 66.1304 178.089 69.0481C179.185 69.3961 180.321 69.6049 181.469 69.6696C188.938 69.0601 196.204 70.4529 203.468 71.7657C216.215 74.0708 224.43 83.117 226.196 96.0015C226.941 102.231 226.259 108.548 224.202 114.474C221.841 121.89 216.74 128.124 209.939 131.907C207.231 133.467 204.397 134.779 201.11 136.467C201.573 137.968 202.168 139.424 202.888 140.819C204.965 144.202 207.191 147.475 209.424 150.819C214.047 157.886 214.308 165.143 210.925 172.766C207.706 180.132 202.258 186.304 195.349 190.413C192.162 192.33 188.589 193.511 184.888 193.872C181.187 194.232 177.452 193.762 173.956 192.497C170.21 191.237 166.583 189.634 163.055 188.243C162.418 188.814 161.768 189.117 161.702 189.51C160.143 199.002 155.675 207.234 150.52 215.083C146.718 220.792 141.51 225.425 135.396 228.536C128.56 232.109 120.908 231.783 113.641 230.435C105.754 228.836 98.5586 224.825 93.0509 218.958C82.5224 208.05 79.6752 194.93 83.8685 180.302C84.8583 177.077 85.9106 173.84 85.5239 169.214ZM163.726 76.6325C167.107 68.6362 166.41 60.7244 164.849 52.8644C164.355 50.9581 163.333 49.2299 161.9 47.8792C156.104 42.1876 151.434 41.6129 144.202 45.4346C142.705 46.2425 141.256 47.136 139.861 48.1107C134.787 51.5984 130.665 55.7483 130.16 62.3763C129.991 63.21 129.681 64.0087 129.243 64.7375C128.441 66.4047 126.449 67.2686 124.981 66.2251C122.461 64.4317 119.602 62.7027 117.896 60.2425C114.763 55.7224 110.543 53.3579 105.537 51.7766C97.9745 49.3874 91.3638 51.2072 86.5031 57.2841C84.6829 59.4701 82.9906 61.7595 81.4347 64.1409C76.102 72.6958 73.8706 81.8231 76.7534 91.8107C77.5978 95.1452 79.5699 98.0849 82.3351 100.131C84.183 101.436 85.9249 102.886 87.5448 104.465C87.9008 104.819 88.1776 105.245 88.3569 105.714C88.5362 106.182 88.614 106.684 88.585 107.185C88.556 107.686 88.421 108.175 88.1889 108.62C87.9567 109.065 87.6327 109.456 87.2383 109.767C86.1923 110.696 84.9975 111.443 83.7039 111.976C81.343 112.956 78.8 113.522 76.4981 114.603C70.4313 117.462 65.1875 121.66 62.5735 127.802C56.0353 142.922 67.3738 159.51 83.8948 159.352C87.5729 159.153 91.2381 158.763 94.8754 158.181C95.9728 157.924 97.0865 157.742 98.2088 157.637C99.0636 157.617 99.9091 157.818 100.663 158.22C101.418 158.623 102.055 159.213 102.515 159.934C102.974 160.656 103.239 161.483 103.285 162.337C103.33 163.191 103.155 164.042 102.775 164.808C102.088 166.368 101.148 167.813 100.339 169.306C96.243 176.835 93.9634 185.217 93.6818 193.783C93.4612 204.078 96.8525 212.646 106.437 218.039C111.224 220.734 116.298 220.25 121.411 220.195C129.443 220.173 135.518 216.651 140.091 210.125C143.845 204.757 146.696 198.81 148.528 192.52C150.123 187.114 151.294 181.593 152.722 175.848C154.583 175.188 156.576 174.986 158.532 175.259C160.488 175.532 162.349 176.271 163.959 177.415C166.238 179.112 168.652 180.619 171.177 181.922C178.16 185.15 184.782 184.771 190.997 179.676C194.242 176.907 196.912 173.529 198.855 169.732C201.802 164.29 201.995 158.781 198.867 153.461C195.279 147.362 192.103 140.92 187.148 135.718C186.061 134.576 185.542 132.906 184.822 131.669C186.955 128.147 190.119 127.895 193.211 127.378C212.171 124.282 219.296 101.256 212.259 87.133C211.444 85.3003 210.213 83.6828 208.664 82.4087C207.115 81.1346 205.29 80.2389 203.334 79.7926C193.595 77.6479 183.803 75.497 174.452 81.6273C171.449 83.6048 168.415 82.3457 166.077 79.8827C165.23 78.847 164.444 77.7617 163.726 76.6325Z" fill="white"/>
<path d="M163.725 76.6323C164.444 77.7614 165.229 78.8468 166.077 79.8825C168.449 82.3644 171.449 83.6046 174.451 81.6271C183.803 75.4968 193.56 77.6287 203.334 79.7924C205.289 80.2386 207.114 81.1344 208.663 82.4085C210.212 83.6826 211.443 85.3001 212.259 87.1328C219.226 101.218 212.127 124.258 193.192 127.413C190.1 127.93 186.936 128.182 184.803 131.704C185.479 132.917 185.988 134.605 187.129 135.753C192.118 140.974 195.26 147.396 198.847 153.496C201.976 158.816 201.809 164.339 198.836 169.767C196.892 173.564 194.223 176.942 190.978 179.71C184.753 184.823 178.141 185.185 171.158 181.957C168.633 180.654 166.219 179.147 163.94 177.45C162.33 176.306 160.469 175.567 158.513 175.294C156.557 175.021 154.564 175.223 152.702 175.883C151.294 181.592 150.122 187.114 148.528 192.52C146.705 198.813 143.863 204.764 140.117 210.139C135.529 216.691 129.469 220.187 121.437 220.209C116.297 220.25 106.143 219.311 101.355 216.616C91.8326 211.257 93.4608 204.078 93.7043 193.761C93.9859 185.195 96.2655 176.813 100.361 169.285C101.17 167.791 102.093 166.337 102.797 164.786C103.177 164.02 103.353 163.169 103.307 162.315C103.262 161.462 102.996 160.634 102.537 159.913C102.078 159.191 101.44 158.601 100.686 158.198C99.9316 157.796 99.0861 157.595 98.2313 157.615C97.109 157.72 95.9953 157.902 94.8979 158.159C91.2606 158.741 87.5954 159.131 83.9173 159.33C67.4138 159.498 56.0753 142.909 62.5961 127.78C65.2449 121.657 70.4538 117.441 76.5206 114.581C78.8226 113.501 81.3655 112.935 83.7265 111.954C85.0201 111.421 86.2148 110.674 87.2609 109.745C87.6553 109.434 87.9793 109.044 88.2114 108.599C88.4436 108.154 88.5786 107.664 88.6075 107.163C88.6365 106.662 88.5588 106.161 88.3794 105.692C88.2001 105.223 87.9233 104.798 87.5673 104.444C85.9475 102.864 84.2055 101.415 82.3577 100.109C79.5924 98.0632 77.6203 95.1235 76.7759 91.789C73.8931 81.8014 76.1245 72.6741 81.4573 64.1192C83.0131 61.7378 84.7054 59.4484 86.5256 57.2624C91.3816 51.1942 97.9923 49.3745 105.559 51.7549C110.557 53.3315 114.734 55.6723 117.918 60.2208C119.625 62.681 122.44 64.3863 125.003 66.2034C126.471 67.2469 128.464 66.383 129.265 64.7158C129.704 63.987 130.014 63.1883 130.182 62.3546C130.688 55.7266 134.81 51.5767 139.884 48.089C141.278 47.1143 142.727 46.2208 144.224 45.4129C151.456 41.5912 156.144 42.1754 161.923 47.8575C163.356 49.2082 164.378 50.9364 164.871 52.8427C166.453 60.7478 167.15 68.6596 163.725 76.6323ZM122.847 142.298C124.341 143.107 125.81 143.982 127.337 144.73C133.249 147.558 138.984 146.959 144.323 143.4C148.684 140.664 152.364 136.971 155.084 132.6C159.865 124.48 160.534 116.653 153.69 109.016C150.506 105.395 146.694 102.378 142.438 100.111C134.819 96.2221 127.043 96.6882 119.95 102.008C115.786 105.018 112.269 108.832 109.605 113.226C107.435 116.942 106.112 121.263 108.005 125.485C111.236 132.577 115.304 139.061 122.891 142.322L122.847 142.298Z" fill="#D66B6B"/>
<path d="M122.891 142.322C115.305 139.061 111.209 132.607 108.059 125.491C106.165 121.269 107.489 116.948 109.659 113.232C112.322 108.839 115.84 105.024 120.003 102.014C127.097 96.6944 134.872 96.2283 142.492 100.117C146.748 102.384 150.56 105.401 153.744 109.022C160.588 116.659 159.919 124.487 155.138 132.606C152.418 136.977 148.738 140.67 144.376 143.406C139.055 146.975 133.298 147.573 127.39 144.736C125.854 144.006 124.341 143.107 122.891 142.322ZM144.539 127.544C145.024 125.751 146.249 122.822 146.56 119.806C147.305 112.528 142.753 108.064 135.434 108.291C129.491 108.462 125.606 112.006 122.104 116.221C117.76 121.448 117.624 126.683 122.503 131.212C132.002 140.015 136.042 140.045 144.539 127.544Z" fill="white"/>
<path d="M144.539 127.545C136.041 140.045 132.026 139.972 122.503 131.212C117.624 126.684 117.76 121.448 122.104 116.221C125.615 111.989 129.481 108.48 135.434 108.292C142.735 108.055 147.305 112.528 146.56 119.806C146.248 122.823 145.033 125.757 144.539 127.545Z" fill="#D66B6B"/>
<path d="M85.5239 169.214C77.8675 169.439 71.6988 166.438 66.0609 162.56C55.6017 155.383 49.6126 145.521 49.4729 132.512C49.3822 123.855 53.4095 117.169 59.8599 111.953C63.5481 108.98 67.865 106.765 72.3804 103.913C71.7586 102.504 71.0049 101.158 70.1294 99.8923C64.2476 92.7312 63.2748 84.4105 64.6475 75.7218C66.2332 66.1189 70.3827 57.1225 76.6579 49.6825C78.3224 47.553 80.3956 45.7774 82.7558 44.46C85.116 43.1427 87.7155 42.3101 90.4019 42.0112C98.2841 40.993 105.697 41.9684 112.697 45.7925C115.177 47.1358 117.649 48.4743 119.684 49.5763C122.331 49.3827 122.997 47.6311 123.99 46.3391C127.782 41.4228 133.096 38.5963 138.652 36.4088C151.038 31.5376 167.492 37.5105 174.477 48.8721C176.688 52.4644 176.637 56.4805 177.401 60.3277C177.8 63.2186 178.03 66.1304 178.089 69.0481C179.185 69.3961 180.321 69.6049 181.469 69.6696C188.938 69.0601 196.204 70.4529 203.468 71.7657C216.215 74.0708 224.43 83.117 226.196 96.0015C226.941 102.231 226.259 108.548 224.202 114.474C221.841 121.89 216.74 128.124 209.939 131.907C207.231 133.467 204.397 134.779 201.11 136.467C201.573 137.968 202.168 139.424 202.888 140.819C204.965 144.202 207.191 147.475 209.424 150.819C214.047 157.886 214.308 165.143 210.925 172.766C207.706 180.132 202.258 186.304 195.349 190.413C192.162 192.33 188.589 193.511 184.888 193.872C181.187 194.232 177.452 193.762 173.956 192.497C170.21 191.237 166.583 189.634 163.055 188.243C162.418 188.814 161.768 189.117 161.702 189.51C160.143 199.002 155.675 207.234 150.52 215.083C146.718 220.792 141.51 225.425 135.396 228.536C128.56 232.109 120.908 231.783 113.641 230.435C105.754 228.836 98.5586 224.825 93.0509 218.958C82.5224 208.05 79.6752 194.93 83.8685 180.302C84.8583 177.077 85.9106 173.84 85.5239 169.214ZM163.726 76.6325C167.107 68.6362 166.41 60.7244 164.849 52.8644C164.355 50.9581 163.333 49.2299 161.9 47.8792C156.104 42.1876 151.434 41.6129 144.202 45.4346C142.705 46.2425 141.256 47.136 139.861 48.1107C134.787 51.5984 130.665 55.7483 130.16 62.3763C129.991 63.21 129.681 64.0087 129.243 64.7375C128.441 66.4047 126.449 67.2686 124.981 66.2251C122.461 64.4317 119.602 62.7027 117.896 60.2425C114.763 55.7224 110.543 53.3579 105.537 51.7766C97.9745 49.3874 91.3638 51.2072 86.5031 57.2841C84.6829 59.4701 82.9906 61.7595 81.4347 64.1409C76.102 72.6958 73.8706 81.8231 76.7534 91.8107C77.5978 95.1452 79.5699 98.0849 82.3351 100.131C84.183 101.436 85.9249 102.886 87.5448 104.465C87.9008 104.819 88.1776 105.245 88.3569 105.714C88.5362 106.182 88.614 106.684 88.585 107.185C88.556 107.686 88.421 108.175 88.1889 108.62C87.9567 109.065 87.6327 109.456 87.2383 109.767C86.1923 110.696 84.9975 111.443 83.7039 111.976C81.343 112.956 78.8 113.522 76.4981 114.603C70.4313 117.462 65.1875 121.66 62.5735 127.802C56.0353 142.922 67.3738 159.51 83.8948 159.352C87.5729 159.153 91.2381 158.763 94.8754 158.181C95.9728 157.924 97.0865 157.742 98.2088 157.637C99.0636 157.617 99.9091 157.818 100.663 158.22C101.418 158.623 102.055 159.213 102.515 159.934C102.974 160.656 103.239 161.483 103.285 162.337C103.33 163.191 103.155 164.042 102.775 164.808C102.088 166.368 101.148 167.813 100.339 169.306C96.243 176.835 93.9634 185.217 93.6818 193.783C93.4612 204.078 96.8525 212.646 106.437 218.039C111.224 220.734 116.298 220.25 121.411 220.195C129.443 220.173 135.518 216.651 140.091 210.125C143.845 204.757 146.696 198.81 148.528 192.52C150.123 187.114 151.294 181.593 152.722 175.848C154.583 175.188 156.576 174.986 158.532 175.259C160.488 175.532 162.349 176.271 163.959 177.415C166.238 179.112 168.652 180.619 171.177 181.922C178.16 185.15 184.782 184.771 190.997 179.676C194.242 176.907 196.912 173.529 198.855 169.732C201.802 164.29 201.995 158.781 198.867 153.461C195.279 147.362 192.103 140.92 187.148 135.718C186.061 134.576 185.542 132.906 184.822 131.669C186.955 128.147 190.119 127.895 193.211 127.378C212.171 124.282 219.296 101.256 212.259 87.133C211.444 85.3003 210.213 83.6828 208.664 82.4087C207.115 81.1346 205.29 80.2389 203.334 79.7926C193.595 77.6479 183.803 75.497 174.452 81.6273C171.449 83.6048 168.415 82.3457 166.077 79.8827C165.23 78.847 164.444 77.7617 163.726 76.6325Z" fill="white"/>
<path d="M163.725 76.6323C164.444 77.7614 165.229 78.8468 166.077 79.8825C168.449 82.3644 171.449 83.6046 174.451 81.6271C183.803 75.4968 193.56 77.6287 203.334 79.7924C205.289 80.2386 207.114 81.1344 208.663 82.4085C210.212 83.6826 211.443 85.3001 212.259 87.1328C219.226 101.218 212.127 124.258 193.192 127.413C190.1 127.93 186.936 128.182 184.803 131.704C185.479 132.917 185.988 134.605 187.129 135.753C192.118 140.974 195.26 147.396 198.847 153.496C201.976 158.816 201.809 164.339 198.836 169.767C196.892 173.564 194.223 176.942 190.978 179.71C184.753 184.823 178.141 185.185 171.158 181.957C168.633 180.654 166.219 179.147 163.94 177.45C162.33 176.306 160.469 175.567 158.513 175.294C156.557 175.021 154.564 175.223 152.702 175.883C151.294 181.592 150.122 187.114 148.528 192.52C146.705 198.813 143.863 204.764 140.117 210.139C135.529 216.691 129.469 220.187 121.437 220.209C116.297 220.25 106.143 219.311 101.355 216.616C91.8326 211.257 93.4608 204.078 93.7043 193.761C93.9859 185.195 96.2655 176.813 100.361 169.285C101.17 167.791 102.093 166.337 102.797 164.786C103.177 164.02 103.353 163.169 103.307 162.315C103.262 161.462 102.996 160.634 102.537 159.913C102.078 159.191 101.44 158.601 100.686 158.198C99.9316 157.796 99.0861 157.595 98.2313 157.615C97.109 157.72 95.9953 157.902 94.8979 158.159C91.2606 158.741 87.5954 159.131 83.9173 159.33C67.4138 159.498 56.0753 142.909 62.5961 127.78C65.2449 121.657 70.4538 117.441 76.5206 114.581C78.8226 113.501 81.3655 112.935 83.7265 111.954C85.0201 111.421 86.2148 110.674 87.2609 109.745C87.6553 109.434 87.9793 109.044 88.2114 108.599C88.4436 108.154 88.5786 107.664 88.6075 107.163C88.6365 106.662 88.5588 106.161 88.3794 105.692C88.2001 105.223 87.9233 104.798 87.5673 104.444C85.9475 102.864 84.2055 101.415 82.3577 100.109C79.5924 98.0632 77.6203 95.1235 76.7759 91.789C73.8931 81.8014 76.1245 72.6741 81.4573 64.1192C83.0131 61.7378 84.7054 59.4484 86.5256 57.2624C91.3816 51.1942 97.9923 49.3745 105.559 51.7549C110.557 53.3315 114.734 55.6723 117.918 60.2208C119.625 62.681 122.44 64.3863 125.003 66.2034C126.471 67.2469 128.464 66.383 129.265 64.7158C129.704 63.987 130.014 63.1883 130.182 62.3546C130.688 55.7266 134.81 51.5767 139.884 48.089C141.278 47.1143 142.727 46.2208 144.224 45.4129C151.456 41.5912 156.144 42.1754 161.923 47.8575C163.356 49.2082 164.378 50.9364 164.871 52.8427C166.453 60.7478 167.15 68.6596 163.725 76.6323ZM122.847 142.298C124.341 143.107 125.81 143.982 127.337 144.73C133.249 147.558 138.984 146.959 144.323 143.4C148.684 140.664 152.364 136.971 155.084 132.6C159.865 124.48 160.534 116.653 153.69 109.016C150.506 105.395 146.694 102.378 142.438 100.111C134.819 96.2221 127.043 96.6882 119.95 102.008C115.786 105.018 112.269 108.832 109.605 113.226C107.435 116.942 106.112 121.263 108.005 125.485C111.236 132.577 115.304 139.061 122.891 142.322L122.847 142.298Z" fill="#6B73EE"/>
<path d="M122.891 142.322C115.305 139.061 111.209 132.607 108.059 125.491C106.165 121.269 107.489 116.948 109.659 113.232C112.322 108.839 115.84 105.024 120.003 102.014C127.097 96.6944 134.872 96.2283 142.492 100.117C146.748 102.384 150.56 105.401 153.744 109.022C160.588 116.659 159.919 124.487 155.138 132.606C152.418 136.977 148.738 140.67 144.376 143.406C139.055 146.975 133.298 147.573 127.39 144.736C125.854 144.006 124.341 143.107 122.891 142.322ZM144.539 127.544C145.024 125.751 146.249 122.822 146.56 119.806C147.305 112.528 142.753 108.064 135.434 108.291C129.491 108.462 125.606 112.006 122.104 116.221C117.76 121.448 117.624 126.683 122.503 131.212C132.002 140.015 136.042 140.045 144.539 127.544Z" fill="white"/>
<path d="M144.539 127.545C136.041 140.045 132.026 139.972 122.503 131.212C117.624 126.684 117.76 121.448 122.104 116.221C125.615 111.989 129.481 108.48 135.434 108.292C142.735 108.055 147.305 112.528 146.56 119.806C146.248 122.823 145.033 125.757 144.539 127.545Z" fill="#6B73EE"/>
</g>
<defs>
<clipPath id="clip0_2461_51">
<rect width="194" height="194" fill="white" transform="translate(171.109 263.485) rotate(-151.565)"/>
</clipPath>
</defs>
</svg>
