<svg width="268" height="268" viewBox="0 0 268 268" fill="none" xmlns="http://www.w3.org/2000/svg">
<g clip-path="url(#clip0_2461_23)">
<path d="M142.471 192.933C138.779 199.645 133.062 203.436 126.859 206.325C115.366 211.693 103.829 211.847 92.5494 205.364C85.0451 201.048 81.3285 194.184 80.1087 185.979C79.4195 181.292 79.7027 176.448 79.537 171.11C78.0082 170.931 76.4658 170.897 74.9306 171.009C65.7751 172.441 58.1122 169.056 51.323 163.462C43.8542 157.222 38.2094 149.08 34.9846 139.897C33.9947 137.381 33.5173 134.694 33.5804 131.992C33.6434 129.289 34.2457 126.627 35.3518 124.161C38.4756 116.853 43.0788 110.961 49.9268 106.872C52.3433 105.416 54.7513 103.966 56.7339 102.772C57.9104 100.394 56.7394 98.9305 56.1304 97.4188C53.8193 91.6564 54.0818 85.6426 55.0174 79.7453C57.1077 66.6011 70.6062 55.4564 83.9407 55.2058C88.1583 55.1238 91.5927 57.2066 95.2948 58.5018C97.9881 59.6255 100.614 60.9054 103.158 62.3351C104.014 61.5674 104.77 60.6951 105.409 59.7386C108.675 52.9942 113.563 47.4412 118.382 41.8491C126.838 32.0365 138.803 29.5498 150.8 34.5686C156.545 37.0895 161.641 40.8836 165.704 45.664C170.894 51.462 173.677 59.022 173.483 66.8014C173.453 69.9274 173.145 73.0351 172.931 76.7235C174.459 77.0859 176.015 77.3125 177.583 77.4005C181.552 77.3291 185.502 77.0721 189.516 76.8456C197.951 76.4499 204.337 79.9092 209.188 86.6929C213.9 93.2061 216.452 101.032 216.485 109.071C216.519 112.789 215.723 116.468 214.155 119.84C212.587 123.211 210.286 126.191 207.421 128.561C204.434 131.148 201.212 133.46 198.223 135.794C198.391 136.632 198.322 137.345 198.628 137.602C206.014 143.763 210.838 151.792 214.985 160.218C217.974 166.391 219.322 173.231 218.899 180.077C218.506 187.781 214.342 194.208 209.491 199.785C204.11 205.769 197.002 209.932 189.151 211.699C174.408 215.233 161.659 211.026 151.185 199.988C148.908 197.498 146.653 194.948 142.471 192.933ZM102.401 78.5604C97.228 71.5882 90.0574 68.1727 82.4929 65.528C80.6 64.9854 78.5922 64.9888 76.7011 65.5377C68.855 67.6427 65.9891 71.3747 65.611 79.5453C65.5471 81.2453 65.5813 82.9476 65.7132 84.6436C66.1426 90.7857 67.6256 96.4439 73.0797 100.244C73.7125 100.812 74.2431 101.485 74.6485 102.232C75.6783 103.769 75.411 105.924 73.7667 106.66C70.9427 107.92 68.0018 109.506 65.0159 109.727C59.5314 110.131 55.3517 112.567 51.4481 116.078C45.551 121.381 43.7632 128 46.5316 135.273C47.491 137.951 48.6045 140.571 49.8665 143.12C54.5303 152.057 61.2615 158.613 71.3301 161.199C74.6317 162.164 78.1656 161.957 81.3319 160.613C83.3948 159.684 85.5278 158.919 87.7111 158.325C88.1967 158.198 88.7037 158.175 89.1987 158.259C89.6936 158.342 90.1652 158.53 90.5822 158.809C90.9993 159.089 91.3523 159.453 91.6179 159.879C91.8835 160.305 92.0556 160.783 92.1229 161.28C92.3925 162.653 92.4294 164.061 92.2321 165.447C91.8786 167.979 91.0753 170.457 90.8377 172.989C90.222 179.667 91.1768 186.316 95.1413 191.686C104.85 204.994 124.897 203.645 133.147 189.331C134.843 186.061 136.367 182.705 137.713 179.276C138.048 178.2 138.457 177.148 138.936 176.128C139.352 175.381 139.955 174.755 140.684 174.309C141.414 173.863 142.247 173.614 143.101 173.584C143.956 173.555 144.803 173.746 145.562 174.14C146.321 174.535 146.965 175.118 147.432 175.834C148.428 177.217 149.195 178.761 150.071 180.216C154.479 187.567 160.543 193.785 167.781 198.376C176.539 203.792 185.643 205.22 195.154 199.7C199.906 196.943 202.065 192.326 204.613 187.893C208.671 180.961 208.72 173.939 205.419 166.686C202.699 160.727 199.022 155.252 194.534 150.481C190.685 146.363 186.523 142.551 182.298 138.405C182.674 136.466 183.512 134.646 184.74 133.1C185.968 131.553 187.55 130.324 189.352 129.518C191.971 128.416 194.495 127.101 196.899 125.587C203.225 121.209 206.26 115.311 205.025 107.37C204.287 103.169 202.731 99.1538 200.447 95.552C197.254 90.251 192.605 87.2879 186.433 87.2829C179.357 87.2777 172.195 86.7446 165.198 88.3729C163.662 88.7298 161.96 88.329 160.529 88.3211C158.577 84.696 159.966 81.842 161.09 78.9152C168.046 61.0085 151.825 43.1814 136.085 42.0749C134.092 41.8471 132.073 42.0867 130.189 42.7747C128.305 43.4626 126.607 44.5801 125.23 46.0384C118.438 53.3407 111.614 60.6856 112.149 71.8545C112.329 75.4451 109.704 77.4204 106.395 78.184C105.073 78.3887 103.739 78.5143 102.401 78.5604Z" fill="white"/>
<path d="M102.402 78.5602C103.739 78.5142 105.073 78.3885 106.396 78.1839C109.738 77.3998 112.33 75.445 112.15 71.8543C111.615 60.6855 118.405 53.361 125.23 46.0382C126.607 44.5799 128.305 43.4625 130.189 42.7745C132.074 42.0866 134.092 41.847 136.085 42.0748C151.757 43.2223 168.004 61.0339 161.111 78.9491C159.987 81.8759 158.598 84.7298 160.55 88.355C161.938 88.3885 163.651 88.8063 165.219 88.4068C172.25 86.758 179.378 87.3116 186.454 87.3168C192.626 87.3218 197.3 90.2695 200.468 95.5859C202.752 99.1877 204.308 103.203 205.046 107.404C206.291 115.362 203.246 121.243 196.92 125.621C194.516 127.135 191.992 128.45 189.373 129.552C187.571 130.358 185.989 131.587 184.761 133.134C183.533 134.68 182.695 136.5 182.319 138.439C186.523 142.55 190.686 146.363 194.534 150.48C199.03 155.246 202.716 160.715 205.445 166.671C208.762 173.949 208.697 180.946 204.639 187.877C202.066 192.326 196.101 200.598 191.35 203.355C181.898 208.839 176.539 203.792 167.774 198.345C160.537 193.755 154.472 187.536 150.065 180.185C149.189 178.73 148.404 177.197 147.426 175.803C146.959 175.087 146.314 174.504 145.556 174.11C144.797 173.715 143.949 173.524 143.095 173.553C142.24 173.583 141.408 173.833 140.678 174.278C139.948 174.724 139.346 175.35 138.929 176.097C138.45 177.117 138.042 178.169 137.706 179.245C136.361 182.674 134.837 186.03 133.141 189.3C124.908 203.604 104.86 204.953 95.1349 191.655C91.2045 186.265 90.2156 179.636 90.8313 172.958C91.0689 170.426 91.8722 167.948 92.2257 165.416C92.423 164.031 92.3861 162.622 92.1165 161.249C92.0492 160.752 91.8771 160.274 91.6115 159.849C91.3459 159.423 90.9929 159.058 90.5759 158.779C90.1588 158.499 89.6872 158.312 89.1923 158.228C88.6973 158.145 88.1903 158.167 87.7047 158.294C85.5214 158.888 83.3884 159.653 81.3256 160.583C78.1592 161.927 74.6253 162.133 71.3237 161.168C61.2551 158.582 54.5239 152.027 49.8601 143.089C48.5981 140.54 47.4846 137.92 46.5252 135.242C43.7619 127.978 45.5497 121.358 51.4417 116.047C55.3368 112.542 59.4739 110.131 65.0095 109.696C67.9954 109.475 70.8938 107.915 73.7603 106.629C75.4047 105.894 75.6719 103.738 74.6421 102.202C74.2367 101.454 73.7061 100.781 73.0733 100.213C67.6192 96.4131 66.1362 90.7549 65.7069 84.6128C65.5749 82.9168 65.5407 81.2145 65.6046 79.5145C65.9827 71.3439 68.8656 67.6016 76.6947 65.5069C78.5858 64.958 80.5936 64.9546 82.4865 65.4972C90.1004 68.147 97.271 71.5624 102.402 78.5602ZM138.228 147.113C139.683 146.237 141.183 145.415 142.602 144.479C148.04 140.821 150.435 135.576 150.078 129.169C149.935 124.023 148.621 118.977 146.236 114.415C141.667 106.174 135.263 101.625 125.209 103.645C120.473 104.55 115.939 106.303 111.825 108.819C104.606 113.41 101.061 120.346 102.044 129.158C102.524 134.273 104.025 139.24 106.458 143.765C108.558 147.521 111.609 150.854 116.208 151.366C123.958 152.183 131.61 151.969 138.271 147.088L138.228 147.113Z" fill="#87AB87"/>
<path d="M138.27 147.088C131.609 151.969 123.97 152.222 116.24 151.324C111.641 150.812 108.59 147.478 106.49 143.722C104.056 139.197 102.555 134.231 102.075 129.115C101.093 120.303 104.638 113.368 111.857 108.776C115.97 106.26 120.504 104.508 125.241 103.603C135.295 101.583 141.699 106.132 146.268 114.373C148.653 118.935 149.967 123.981 150.11 129.127C150.484 135.523 148.077 140.787 142.634 144.437C141.225 145.39 139.683 146.237 138.27 147.088ZM136.527 120.936C135.228 119.607 133.326 117.065 130.885 115.266C124.993 110.93 118.836 112.586 115.317 119.007C112.446 124.214 113.528 129.36 115.382 134.517C117.68 140.913 122.122 143.688 128.501 141.783C140.908 138.067 142.983 134.602 136.527 120.936Z" fill="white"/>
<path d="M136.527 120.935C142.984 134.602 140.882 138.024 128.501 141.782C122.123 143.687 117.681 140.913 115.382 134.517C113.518 129.343 112.457 124.231 115.317 119.007C118.819 112.596 124.993 110.93 130.886 115.265C133.326 117.065 135.237 119.602 136.527 120.935Z" fill="#87AB87"/>
<path d="M142.471 192.933C138.779 199.645 133.062 203.436 126.859 206.325C115.366 211.693 103.829 211.847 92.5494 205.364C85.0451 201.048 81.3285 194.184 80.1087 185.979C79.4195 181.292 79.7027 176.448 79.537 171.11C78.0082 170.931 76.4658 170.897 74.9306 171.009C65.7751 172.441 58.1122 169.056 51.323 163.462C43.8542 157.222 38.2094 149.08 34.9846 139.897C33.9947 137.381 33.5173 134.694 33.5804 131.992C33.6434 129.289 34.2457 126.627 35.3518 124.161C38.4756 116.853 43.0788 110.961 49.9268 106.872C52.3433 105.416 54.7513 103.966 56.7339 102.772C57.9104 100.394 56.7394 98.9305 56.1304 97.4188C53.8193 91.6564 54.0818 85.6426 55.0174 79.7453C57.1077 66.6011 70.6062 55.4564 83.9407 55.2058C88.1583 55.1238 91.5927 57.2066 95.2948 58.5018C97.9881 59.6255 100.614 60.9054 103.158 62.3351C104.014 61.5674 104.77 60.6951 105.409 59.7386C108.675 52.9942 113.563 47.4412 118.382 41.8491C126.838 32.0365 138.803 29.5498 150.8 34.5686C156.545 37.0895 161.641 40.8836 165.704 45.664C170.894 51.462 173.677 59.022 173.483 66.8014C173.453 69.9274 173.145 73.0351 172.931 76.7235C174.459 77.0859 176.015 77.3125 177.583 77.4005C181.552 77.3291 185.502 77.0721 189.516 76.8456C197.951 76.4499 204.337 79.9092 209.188 86.6929C213.9 93.2061 216.452 101.032 216.485 109.071C216.519 112.789 215.723 116.468 214.155 119.84C212.587 123.211 210.286 126.191 207.421 128.561C204.434 131.148 201.212 133.46 198.223 135.794C198.391 136.632 198.322 137.345 198.628 137.602C206.014 143.763 210.838 151.792 214.985 160.218C217.974 166.391 219.322 173.231 218.899 180.077C218.506 187.781 214.342 194.208 209.491 199.785C204.11 205.769 197.002 209.932 189.151 211.699C174.408 215.233 161.659 211.026 151.185 199.988C148.908 197.498 146.653 194.948 142.471 192.933ZM102.401 78.5604C97.228 71.5882 90.0574 68.1727 82.4929 65.528C80.6 64.9854 78.5922 64.9888 76.7011 65.5377C68.855 67.6427 65.9891 71.3747 65.611 79.5453C65.5471 81.2453 65.5813 82.9476 65.7132 84.6436C66.1426 90.7857 67.6256 96.4439 73.0797 100.244C73.7125 100.812 74.2431 101.485 74.6485 102.232C75.6783 103.769 75.411 105.924 73.7667 106.66C70.9427 107.92 68.0018 109.506 65.0159 109.727C59.5314 110.131 55.3517 112.567 51.4481 116.078C45.551 121.381 43.7632 128 46.5316 135.273C47.491 137.951 48.6045 140.571 49.8665 143.12C54.5303 152.057 61.2615 158.613 71.3301 161.199C74.6317 162.164 78.1656 161.957 81.3319 160.613C83.3948 159.684 85.5278 158.919 87.7111 158.325C88.1967 158.198 88.7037 158.175 89.1987 158.259C89.6936 158.342 90.1652 158.53 90.5822 158.809C90.9993 159.089 91.3523 159.453 91.6179 159.879C91.8835 160.305 92.0556 160.783 92.1229 161.28C92.3925 162.653 92.4294 164.061 92.2321 165.447C91.8786 167.979 91.0753 170.457 90.8377 172.989C90.222 179.667 91.1768 186.316 95.1413 191.686C104.85 204.994 124.897 203.645 133.147 189.331C134.843 186.061 136.367 182.705 137.713 179.276C138.048 178.2 138.457 177.148 138.936 176.128C139.352 175.381 139.955 174.755 140.684 174.309C141.414 173.863 142.247 173.614 143.101 173.584C143.956 173.555 144.803 173.746 145.562 174.14C146.321 174.535 146.965 175.118 147.432 175.834C148.428 177.217 149.195 178.761 150.071 180.216C154.479 187.567 160.543 193.785 167.781 198.376C176.539 203.792 185.643 205.22 195.154 199.7C199.906 196.943 202.065 192.326 204.613 187.893C208.671 180.961 208.72 173.939 205.419 166.686C202.699 160.727 199.022 155.252 194.534 150.481C190.685 146.363 186.523 142.551 182.298 138.405C182.674 136.466 183.512 134.646 184.74 133.1C185.968 131.553 187.55 130.324 189.352 129.518C191.971 128.416 194.495 127.101 196.899 125.587C203.225 121.209 206.26 115.311 205.025 107.37C204.287 103.169 202.731 99.1538 200.447 95.552C197.254 90.251 192.605 87.2879 186.433 87.2829C179.357 87.2777 172.195 86.7446 165.198 88.3729C163.662 88.7298 161.96 88.329 160.529 88.3211C158.577 84.696 159.966 81.842 161.09 78.9152C168.046 61.0085 151.825 43.1814 136.085 42.0749C134.092 41.8471 132.073 42.0867 130.189 42.7747C128.305 43.4626 126.607 44.5801 125.23 46.0384C118.438 53.3407 111.614 60.6856 112.149 71.8545C112.329 75.4451 109.704 77.4204 106.395 78.184C105.073 78.3887 103.739 78.5143 102.401 78.5604Z" fill="white"/>
<path d="M102.402 78.5602C103.739 78.5142 105.073 78.3885 106.396 78.1839C109.738 77.3998 112.33 75.445 112.15 71.8543C111.615 60.6855 118.405 53.361 125.23 46.0382C126.607 44.5799 128.305 43.4625 130.189 42.7745C132.074 42.0866 134.092 41.847 136.085 42.0748C151.757 43.2223 168.004 61.0339 161.111 78.9491C159.987 81.8759 158.598 84.7298 160.55 88.355C161.938 88.3885 163.651 88.8063 165.219 88.4068C172.25 86.758 179.378 87.3116 186.454 87.3168C192.626 87.3218 197.3 90.2695 200.468 95.5859C202.752 99.1877 204.308 103.203 205.046 107.404C206.291 115.362 203.246 121.243 196.92 125.621C194.516 127.135 191.992 128.45 189.373 129.552C187.571 130.358 185.989 131.587 184.761 133.134C183.533 134.68 182.695 136.5 182.319 138.439C186.523 142.55 190.686 146.363 194.534 150.48C199.03 155.246 202.716 160.715 205.445 166.671C208.762 173.949 208.697 180.946 204.639 187.877C202.066 192.326 196.101 200.598 191.35 203.355C181.898 208.839 176.539 203.792 167.774 198.345C160.537 193.755 154.472 187.536 150.065 180.185C149.189 178.73 148.404 177.197 147.426 175.803C146.959 175.087 146.314 174.504 145.556 174.11C144.797 173.715 143.949 173.524 143.095 173.553C142.24 173.583 141.408 173.833 140.678 174.278C139.948 174.724 139.346 175.35 138.929 176.097C138.45 177.117 138.042 178.169 137.706 179.245C136.361 182.674 134.837 186.03 133.141 189.3C124.908 203.604 104.86 204.953 95.1349 191.655C91.2045 186.265 90.2156 179.636 90.8313 172.958C91.0689 170.426 91.8722 167.948 92.2257 165.416C92.423 164.031 92.3861 162.622 92.1165 161.249C92.0492 160.752 91.8771 160.274 91.6115 159.849C91.3459 159.423 90.9929 159.058 90.5759 158.779C90.1588 158.499 89.6872 158.312 89.1923 158.228C88.6973 158.145 88.1903 158.167 87.7047 158.294C85.5214 158.888 83.3884 159.653 81.3256 160.583C78.1592 161.927 74.6253 162.133 71.3237 161.168C61.2551 158.582 54.5239 152.027 49.8601 143.089C48.5981 140.54 47.4846 137.92 46.5252 135.242C43.7619 127.978 45.5497 121.358 51.4417 116.047C55.3368 112.542 59.4739 110.131 65.0095 109.696C67.9954 109.475 70.8938 107.915 73.7603 106.629C75.4047 105.894 75.6719 103.738 74.6421 102.202C74.2367 101.454 73.7061 100.781 73.0733 100.213C67.6192 96.4131 66.1362 90.7549 65.7069 84.6128C65.5749 82.9168 65.5407 81.2145 65.6046 79.5145C65.9827 71.3439 68.8656 67.6016 76.6947 65.5069C78.5858 64.958 80.5936 64.9546 82.4865 65.4972C90.1004 68.147 97.271 71.5624 102.402 78.5602ZM138.228 147.113C139.683 146.237 141.183 145.415 142.602 144.479C148.04 140.821 150.435 135.576 150.078 129.169C149.935 124.023 148.621 118.977 146.236 114.415C141.667 106.174 135.263 101.625 125.209 103.645C120.473 104.55 115.939 106.303 111.825 108.819C104.606 113.41 101.061 120.346 102.044 129.158C102.524 134.273 104.025 139.24 106.458 143.765C108.558 147.521 111.609 150.854 116.208 151.366C123.958 152.183 131.61 151.969 138.271 147.088L138.228 147.113Z" fill="#87AB87"/>
<path d="M138.27 147.088C131.609 151.969 123.97 152.222 116.24 151.324C111.641 150.812 108.59 147.478 106.49 143.722C104.056 139.197 102.555 134.231 102.075 129.115C101.093 120.303 104.638 113.368 111.857 108.776C115.97 106.26 120.504 104.508 125.241 103.603C135.295 101.583 141.699 106.132 146.268 114.373C148.653 118.935 149.967 123.981 150.11 129.127C150.484 135.523 148.077 140.787 142.634 144.437C141.225 145.39 139.683 146.237 138.27 147.088ZM136.527 120.936C135.228 119.607 133.326 117.065 130.885 115.266C124.993 110.93 118.836 112.586 115.317 119.007C112.446 124.214 113.528 129.36 115.382 134.517C117.68 140.913 122.122 143.688 128.501 141.783C140.908 138.067 142.983 134.602 136.527 120.936Z" fill="white"/>
<path d="M136.527 120.935C142.984 134.602 140.882 138.024 128.501 141.782C122.123 143.687 117.681 140.913 115.382 134.517C113.518 129.343 112.457 124.231 115.317 119.007C118.819 112.596 124.993 110.93 130.886 115.265C133.326 117.065 135.237 119.602 136.527 120.935Z" fill="#87AB87"/>
</g>
<defs>
<clipPath id="clip0_2461_23">
<rect width="194" height="194" fill="white" transform="translate(267.139 167.048) rotate(148.94)"/>
</clipPath>
</defs>
</svg>
