<svg width="194" height="194" viewBox="0 0 194 194" fill="none" xmlns="http://www.w3.org/2000/svg">
<g clip-path="url(#clip0_2405_2)">
<path d="M120.149 42.1455C126.774 38.3015 133.628 38.0035 140.432 38.7286C153.047 40.0596 163.01 45.8803 169.327 57.2535C173.529 64.8224 173.171 72.6198 169.983 80.278C168.155 84.6485 165.413 88.6515 162.801 93.3101C164.018 94.2522 165.322 95.077 166.695 95.7734C175.277 99.2698 180.094 106.124 183.025 114.418C186.203 123.617 186.838 133.504 184.862 143.034C184.412 145.7 183.435 148.248 181.987 150.53C180.538 152.813 178.649 154.783 176.429 156.325C169.983 160.973 163 163.645 155.024 163.615C152.203 163.615 149.392 163.615 147.077 163.615C144.842 165.046 145.091 166.903 144.832 168.512C143.839 174.641 140.512 179.657 136.668 184.226C128.095 194.407 110.782 196.99 99.2304 190.325C95.575 188.219 93.7076 184.663 91.2045 181.644C89.4771 179.291 87.8884 176.84 86.4467 174.303C85.3171 174.519 84.2192 174.876 83.1787 175.366C76.9011 179.458 69.8488 181.693 62.8361 183.998C50.5292 188.04 38.9971 183.998 31.309 173.508C27.6885 168.385 25.2803 162.506 24.2665 156.315C22.8118 148.67 24.3287 140.758 28.5079 134.194C30.1468 131.532 32.0142 129.029 34.1001 125.979C32.9786 124.881 31.762 123.884 30.4647 123C27.0279 121.013 23.5116 119.195 19.9557 117.318C12.5258 113.305 8.84071 107.047 8.18513 98.7334C7.50891 90.7229 9.36045 82.7019 13.4794 75.7983C15.369 72.5959 17.949 69.8553 21.0317 67.7762C24.1144 65.697 27.622 64.3316 31.2991 63.7795C35.1928 63.104 39.1461 62.7862 42.9106 62.3293C43.1987 61.5247 43.6258 60.9486 43.4967 60.5711C40.348 51.4825 40.3579 42.1157 41.1525 32.7589C41.7776 25.9283 44.1517 19.3739 48.046 13.7274C52.3569 7.33063 59.2404 3.9733 66.2729 1.69866C73.9698 -0.650928 82.2066 -0.550267 89.8437 1.98671C104.296 6.56579 113.047 16.747 116.325 31.6067C116.99 34.9144 117.606 38.2618 120.149 42.1455ZM95.4658 160.794C96.3001 169.436 100.681 176.061 105.796 182.23C107.138 183.671 108.859 184.704 110.762 185.21C118.57 187.454 122.95 185.736 127.49 178.932C128.421 177.509 129.27 176.033 130.032 174.512C132.833 169.029 134.482 163.417 131.771 157.348C131.522 156.534 131.414 155.684 131.453 154.835C131.363 152.987 132.704 151.279 134.492 151.497C137.562 151.875 140.899 152.034 143.571 153.384C148.478 155.868 153.315 155.937 158.47 154.944C166.258 153.444 171.204 148.696 172.585 141.038C173.145 138.249 173.543 135.43 173.777 132.595C174.393 122.533 172.009 113.444 164.718 106.034C162.388 103.504 159.254 101.858 155.848 101.376C153.601 101.107 151.38 100.662 149.203 100.045C148.721 99.9029 148.275 99.6606 147.894 99.3338C147.514 99.0069 147.206 98.6029 146.993 98.1484C146.78 97.694 146.666 97.1995 146.658 96.6976C146.65 96.1957 146.749 95.6979 146.948 95.237C147.426 93.9219 148.121 92.6963 149.004 91.6115C150.613 89.6249 152.58 87.9165 154.09 85.8703C158.063 80.4668 160.675 74.2786 160.05 67.6334C158.599 51.2242 140.73 42.0363 126.278 50.0422C123.138 51.968 120.101 54.0568 117.179 56.3C116.337 57.0489 115.444 57.7392 114.507 58.366C113.765 58.7907 112.926 59.0165 112.071 59.0217C111.216 59.0269 110.374 58.8113 109.627 58.3957C108.879 57.9802 108.252 57.3787 107.806 56.6496C107.359 55.9205 107.108 55.0884 107.077 54.2339C106.938 52.5354 107.077 50.817 107.077 49.1185C107.094 40.5478 105.108 32.0919 101.277 24.4252C96.5683 15.267 89.506 9.34701 78.5103 9.16822C73.0174 9.07882 68.7859 11.9196 64.3161 14.4029C57.2637 18.2469 53.5985 24.2365 52.6847 32.153C51.9395 38.6615 52.2649 45.2481 53.6481 51.6514C54.8202 57.1641 56.4194 62.5776 57.8994 68.3089C56.5767 69.7753 54.9204 70.9019 53.0705 71.5934C51.2207 72.2849 49.2316 72.5211 47.2712 72.282C44.4595 71.8746 41.6191 71.6985 38.7786 71.7556C31.1004 72.2423 25.4585 75.7288 22.419 83.1685C20.8839 87.148 20.1448 91.3901 20.2437 95.6542C20.2437 101.842 22.6971 106.779 27.9815 109.968C34.0405 113.623 39.901 117.775 46.7348 119.99C48.2347 120.477 49.4862 121.698 50.708 122.443C50.5093 126.556 47.8473 128.284 45.374 130.211C30.1766 141.962 34.8749 165.602 47.7877 174.671C49.3773 175.894 51.23 176.73 53.199 177.113C55.1679 177.496 57.199 177.414 59.1311 176.876C68.7164 174.124 78.3513 171.353 83.6555 161.51C85.354 158.341 88.622 158.003 91.8502 159.056C93.0888 159.563 94.2962 160.144 95.4658 160.794Z" fill="white"/>
<path d="M95.4662 160.794C94.2966 160.144 93.0892 159.563 91.8506 159.056C88.5827 158.003 85.3545 158.341 83.6559 161.509C78.3517 171.353 68.7565 174.124 59.1315 176.876C57.1994 177.414 55.1684 177.496 53.1994 177.113C51.2304 176.73 49.3777 175.894 47.7881 174.671C34.9548 165.602 30.2267 141.961 45.3744 130.171C47.8477 128.244 50.5097 126.516 50.7084 122.403C49.5363 121.658 48.2848 120.417 46.7352 119.95C39.8616 117.735 34.041 113.583 27.9819 109.928C22.6976 106.739 20.2143 101.803 20.2441 95.6144C20.1452 91.3502 20.8843 87.1081 22.4194 83.1287C25.4589 75.669 31.1008 72.2024 38.779 71.7157C41.6195 71.6587 44.4599 71.8348 47.2716 72.2422C49.232 72.4813 51.2211 72.245 53.0709 71.5535C54.9208 70.862 56.5771 69.7354 57.8998 68.269C56.4198 62.5774 54.8206 57.164 53.6486 51.6512C52.2554 45.2495 51.9199 38.663 52.6553 32.1529C53.5691 24.2065 57.2343 18.2468 64.2867 14.4027C68.7863 11.9195 78.163 7.9106 83.6559 8C94.5821 8.17879 96.5687 15.2669 101.267 24.4549C105.098 32.1215 107.085 40.5775 107.068 49.1481C107.068 50.8466 106.949 52.565 107.068 54.2636C107.099 55.1181 107.349 55.9501 107.796 56.6792C108.243 57.4084 108.87 58.0098 109.617 58.4254C110.364 58.841 111.206 59.0566 112.061 59.0514C112.916 59.0462 113.756 58.8203 114.498 58.3957C115.434 57.7689 116.327 57.0786 117.17 56.3296C120.091 54.0864 123.128 51.9977 126.268 50.0719C140.701 42.0659 158.57 51.2539 160.04 67.6631C160.626 74.3082 158.054 80.4964 154.08 85.9C152.571 87.9461 150.604 89.6546 148.995 91.6412C148.111 92.726 147.416 93.9515 146.939 95.2667C146.74 95.7275 146.641 96.2253 146.649 96.7272C146.656 97.2291 146.771 97.7236 146.984 98.1781C147.197 98.6325 147.504 99.0366 147.885 99.3634C148.266 99.6903 148.712 99.9326 149.193 100.074C151.37 100.692 153.592 101.137 155.839 101.405C159.244 101.888 162.378 103.534 164.709 106.064C171.999 113.474 174.383 122.562 173.767 132.624C173.533 135.459 173.135 138.278 172.576 141.067C171.195 148.716 166.248 153.464 158.461 154.974C153.316 155.967 148.528 155.897 143.561 153.414C140.889 152.063 137.602 151.904 134.483 151.527C132.695 151.308 131.354 153.017 131.443 154.864C131.405 155.714 131.512 156.564 131.761 157.377C134.473 163.446 132.824 169.058 130.023 174.541C129.261 176.062 128.412 177.538 127.48 178.962C122.941 185.766 118.54 187.484 110.753 185.239C108.85 184.734 107.128 183.701 105.786 182.259C100.631 176.061 96.2509 169.436 95.4662 160.794ZM100.145 83.5856C98.4461 83.5856 96.7376 83.516 95.0391 83.5856C88.4933 83.9134 83.7354 87.1714 80.7356 92.8431C78.2033 97.3253 76.7256 102.326 76.4148 107.464C76.0771 116.881 79.2159 124.082 88.8707 127.539C93.395 129.207 98.1833 130.045 103.005 130.012C111.558 129.803 118.173 125.691 121.878 117.636C124.106 113.006 125.382 107.977 125.632 102.846C125.772 98.5446 124.878 94.1145 121.202 91.3035C114.984 86.6052 108.319 82.8406 100.095 83.5856H100.145Z" fill="#D66B6B"/>
<path d="M100.095 83.5854C108.319 82.8405 114.994 86.5653 121.153 91.3232C124.828 94.1342 125.722 98.5643 125.583 102.865C125.333 107.997 124.056 113.026 121.828 117.655C118.123 125.711 111.508 129.823 102.956 130.032C98.1336 130.065 93.3452 129.227 88.821 127.559C79.1662 124.102 76.0274 116.9 76.3651 107.484C76.6758 102.345 78.1535 97.345 80.6859 92.8628C83.6658 87.1911 88.4435 83.9232 94.9893 83.6053C96.6879 83.5159 98.446 83.5854 100.095 83.5854ZM88.0959 106.888C88.523 108.696 88.8408 111.855 90.003 114.656C92.814 121.41 98.9426 123.168 105.27 119.483C110.415 116.503 112.144 111.537 113.216 106.163C114.547 99.498 112.173 94.8295 105.727 93.1707C93.1815 89.9525 89.6156 91.8496 88.0959 106.888Z" fill="white"/>
<path d="M88.0957 106.888C89.6154 91.8498 93.1814 90.0023 105.727 93.1709C112.173 94.8297 114.547 99.4982 113.216 106.163C112.143 111.557 110.415 116.483 105.27 119.483C98.9623 123.168 92.8138 121.41 90.0028 114.656C88.8407 111.855 88.5129 108.696 88.0957 106.888Z" fill="#D66B6B"/>
<path d="M120.149 42.1455C126.774 38.3015 133.628 38.0035 140.432 38.7286C153.047 40.0596 163.01 45.8803 169.327 57.2535C173.529 64.8224 173.171 72.6198 169.983 80.278C168.155 84.6485 165.413 88.6515 162.801 93.3101C164.018 94.2522 165.322 95.077 166.695 95.7734C175.277 99.2698 180.094 106.124 183.025 114.418C186.203 123.617 186.838 133.504 184.862 143.034C184.412 145.7 183.435 148.248 181.987 150.53C180.538 152.813 178.649 154.783 176.429 156.325C169.983 160.973 163 163.645 155.024 163.615C152.203 163.615 149.392 163.615 147.077 163.615C144.842 165.046 145.091 166.903 144.832 168.512C143.839 174.641 140.512 179.657 136.668 184.226C128.095 194.407 110.782 196.99 99.2304 190.325C95.575 188.219 93.7076 184.663 91.2045 181.644C89.4771 179.291 87.8884 176.84 86.4467 174.303C85.3171 174.519 84.2192 174.876 83.1787 175.366C76.9011 179.458 69.8488 181.693 62.8361 183.998C50.5292 188.04 38.9971 183.998 31.309 173.509C27.6885 168.385 25.2803 162.506 24.2665 156.315C22.8118 148.67 24.3287 140.758 28.5079 134.194C30.1468 131.532 32.0142 129.029 34.1001 125.979C32.9786 124.881 31.762 123.884 30.4647 123C27.0279 121.013 23.5116 119.195 19.9557 117.318C12.5258 113.305 8.84071 107.047 8.18513 98.7334C7.50891 90.7229 9.36045 82.7019 13.4794 75.7983C15.369 72.5959 17.949 69.8553 21.0317 67.7762C24.1144 65.697 27.622 64.3316 31.2991 63.7795C35.1928 63.104 39.1461 62.7862 42.9106 62.3293C43.1987 61.5247 43.6258 60.9486 43.4967 60.5711C40.348 51.4825 40.3579 42.1157 41.1525 32.7589C41.7776 25.9283 44.1517 19.3739 48.046 13.7274C52.3569 7.33063 59.2404 3.9733 66.2729 1.69866C73.9698 -0.650928 82.2066 -0.550267 89.8437 1.98671C104.296 6.56579 113.047 16.747 116.325 31.6067C116.99 34.9144 117.606 38.2618 120.149 42.1455ZM95.4658 160.794C96.3001 169.436 100.681 176.061 105.796 182.23C107.138 183.671 108.859 184.704 110.762 185.21C118.57 187.454 122.95 185.736 127.49 178.932C128.421 177.509 129.27 176.033 130.032 174.512C132.833 169.029 134.482 163.417 131.771 157.348C131.522 156.534 131.414 155.684 131.453 154.835C131.363 152.987 132.704 151.279 134.492 151.497C137.562 151.875 140.899 152.034 143.571 153.384C148.478 155.868 153.315 155.937 158.47 154.944C166.258 153.444 171.204 148.696 172.585 141.038C173.145 138.249 173.543 135.43 173.777 132.595C174.393 122.533 172.009 113.444 164.718 106.034C162.388 103.504 159.254 101.858 155.848 101.376C153.601 101.107 151.38 100.662 149.203 100.045C148.721 99.9029 148.275 99.6606 147.894 99.3338C147.514 99.0069 147.206 98.6029 146.993 98.1484C146.78 97.694 146.666 97.1995 146.658 96.6976C146.65 96.1957 146.749 95.6979 146.948 95.237C147.426 93.9219 148.121 92.6963 149.004 91.6115C150.613 89.6249 152.58 87.9165 154.09 85.8703C158.063 80.4668 160.675 74.2786 160.05 67.6334C158.599 51.2242 140.73 42.0363 126.278 50.0422C123.138 51.968 120.101 54.0568 117.179 56.3C116.337 57.0489 115.444 57.7392 114.507 58.366C113.765 58.7907 112.926 59.0165 112.071 59.0217C111.216 59.0269 110.374 58.8113 109.627 58.3957C108.879 57.9802 108.252 57.3787 107.806 56.6496C107.359 55.9205 107.108 55.0884 107.077 54.2339C106.938 52.5354 107.077 50.817 107.077 49.1185C107.094 40.5478 105.108 32.0919 101.277 24.4252C96.5683 15.267 89.506 9.34701 78.5103 9.16822C73.0174 9.07882 68.7859 11.9196 64.3161 14.4029C57.2637 18.2469 53.5985 24.2365 52.6847 32.153C51.9395 38.6615 52.265 45.2481 53.6481 51.6514C54.8202 57.1641 56.4194 62.5776 57.8994 68.3089C56.5767 69.7753 54.9204 70.9019 53.0705 71.5934C51.2207 72.2849 49.2316 72.5211 47.2712 72.282C44.4595 71.8746 41.6191 71.6986 38.7786 71.7556C31.1004 72.2423 25.4585 75.7288 22.419 83.1685C20.8839 87.148 20.1448 91.3901 20.2437 95.6542C20.2437 101.842 22.6971 106.779 27.9815 109.968C34.0405 113.623 39.901 117.775 46.7348 119.99C48.2347 120.477 49.4862 121.698 50.708 122.443C50.5093 126.556 47.8473 128.284 45.374 130.211C30.1766 141.962 34.8749 165.602 47.7877 174.671C49.3773 175.894 51.23 176.73 53.199 177.113C55.1679 177.496 57.199 177.414 59.1311 176.876C68.7164 174.124 78.3513 171.353 83.6555 161.51C85.3541 158.341 88.622 158.003 91.8502 159.056C93.0888 159.563 94.2962 160.144 95.4658 160.794Z" fill="white"/>
<path d="M95.4662 160.794C94.2966 160.144 93.0892 159.563 91.8506 159.056C88.5827 158.003 85.3545 158.341 83.6559 161.509C78.3517 171.353 68.7565 174.124 59.1315 176.876C57.1994 177.414 55.1684 177.496 53.1994 177.113C51.2304 176.73 49.3777 175.894 47.7881 174.671C34.9548 165.602 30.2267 141.961 45.3744 130.171C47.8477 128.244 50.5097 126.516 50.7084 122.403C49.5363 121.658 48.2848 120.417 46.7352 119.95C39.8616 117.735 34.041 113.583 27.9819 109.928C22.6976 106.739 20.2143 101.803 20.2441 95.6144C20.1452 91.3502 20.8843 87.1081 22.4194 83.1287C25.4589 75.669 31.1008 72.2024 38.779 71.7157C41.6195 71.6587 44.4599 71.8348 47.2716 72.2422C49.232 72.4813 51.2211 72.2451 53.0709 71.5535C54.9208 70.862 56.5771 69.7354 57.8998 68.269C56.4198 62.5774 54.8206 57.164 53.6486 51.6512C52.2554 45.2495 51.9199 38.663 52.6553 32.1529C53.5691 24.2065 57.2343 18.2468 64.2867 14.4027C68.7863 11.9195 78.163 7.9106 83.6559 8C94.5821 8.17879 96.5687 15.2669 101.267 24.4549C105.098 32.1215 107.085 40.5775 107.068 49.1481C107.068 50.8466 106.949 52.565 107.068 54.2636C107.099 55.1181 107.349 55.9501 107.796 56.6792C108.243 57.4084 108.87 58.0098 109.617 58.4254C110.364 58.841 111.206 59.0566 112.061 59.0514C112.916 59.0462 113.756 58.8203 114.498 58.3957C115.434 57.7689 116.327 57.0786 117.17 56.3296C120.091 54.0864 123.128 51.9977 126.268 50.0719C140.701 42.0659 158.57 51.2539 160.04 67.6631C160.626 74.3082 158.054 80.4964 154.08 85.9C152.571 87.9461 150.604 89.6546 148.995 91.6412C148.111 92.7259 147.416 93.9515 146.939 95.2667C146.74 95.7275 146.641 96.2253 146.649 96.7272C146.656 97.2291 146.771 97.7236 146.984 98.1781C147.197 98.6325 147.504 99.0366 147.885 99.3634C148.266 99.6903 148.712 99.9326 149.193 100.074C151.37 100.692 153.592 101.137 155.839 101.405C159.244 101.888 162.378 103.534 164.709 106.064C171.999 113.474 174.383 122.562 173.767 132.624C173.533 135.459 173.135 138.278 172.576 141.067C171.195 148.716 166.248 153.464 158.461 154.974C153.316 155.967 148.528 155.897 143.561 153.414C140.889 152.063 137.602 151.904 134.483 151.527C132.695 151.308 131.354 153.017 131.443 154.864C131.405 155.714 131.512 156.564 131.761 157.377C134.473 163.446 132.824 169.058 130.023 174.541C129.261 176.062 128.412 177.538 127.48 178.962C122.941 185.766 118.54 187.484 110.753 185.239C108.85 184.734 107.128 183.701 105.786 182.259C100.631 176.061 96.2509 169.436 95.4662 160.794ZM100.145 83.5856C98.4461 83.5856 96.7376 83.516 95.0391 83.5856C88.4933 83.9134 83.7354 87.1714 80.7356 92.8431C78.2032 97.3253 76.7256 102.326 76.4148 107.464C76.0771 116.881 79.2159 124.082 88.8707 127.539C93.395 129.207 98.1833 130.045 103.005 130.012C111.558 129.803 118.173 125.691 121.878 117.636C124.106 113.006 125.382 107.977 125.632 102.846C125.772 98.5446 124.878 94.1145 121.202 91.3035C114.984 86.6052 108.319 82.8406 100.095 83.5856H100.145Z" fill="#D66B6B"/>
<path d="M100.095 83.5854C108.319 82.8405 114.994 86.5653 121.153 91.3232C124.828 94.1342 125.722 98.5643 125.583 102.865C125.333 107.997 124.056 113.026 121.828 117.655C118.123 125.711 111.508 129.823 102.956 130.032C98.1336 130.065 93.3452 129.227 88.821 127.559C79.1662 124.102 76.0274 116.9 76.3651 107.484C76.6758 102.345 78.1535 97.345 80.6859 92.8628C83.6658 87.1911 88.4435 83.9232 94.9893 83.6053C96.6879 83.5159 98.446 83.5854 100.095 83.5854ZM88.0959 106.888C88.523 108.696 88.8408 111.855 90.003 114.656C92.814 121.41 98.9426 123.168 105.27 119.483C110.415 116.503 112.144 111.537 113.216 106.163C114.547 99.498 112.173 94.8295 105.727 93.1707C93.1815 89.9525 89.6156 91.8496 88.0959 106.888Z" fill="white"/>
<path d="M88.0957 106.888C89.6154 91.8498 93.1814 90.0023 105.727 93.1709C112.173 94.8297 114.547 99.4982 113.216 106.163C112.143 111.557 110.415 116.483 105.27 119.483C98.9623 123.168 92.8138 121.41 90.0028 114.656C88.8407 111.855 88.5129 108.696 88.0957 106.888Z" fill="#D66B6B"/>
</g>
<defs>
<clipPath id="clip0_2405_2">
<rect width="194" height="194" fill="white"/>
</clipPath>
</defs>
</svg>
