<svg width="198" height="198" viewBox="0 0 198 198" fill="none" xmlns="http://www.w3.org/2000/svg">
<g clip-path="url(#clip0_2461_9)">
<path d="M44.4354 75.1739C40.6736 68.5016 40.4605 61.6447 41.2697 54.8502C42.7568 42.2528 48.7003 32.3628 60.1508 26.1867C67.7711 22.0791 75.5634 22.5332 83.1817 25.8162C87.5292 27.6978 91.498 30.4886 96.1238 33.1584C97.081 31.9529 97.9218 30.6595 98.6352 29.2955C102.237 20.7573 109.15 16.0251 117.48 13.1977C126.718 10.1337 136.612 9.62119 146.117 11.7144C148.777 12.1971 151.313 13.2062 153.577 14.6825C155.841 16.1587 157.788 18.0725 159.302 20.3113C163.871 26.8148 166.456 33.8302 166.327 41.8053C166.293 44.6261 166.258 47.4369 166.229 49.7511C167.632 52.0035 169.492 51.7782 171.098 52.0564C177.214 53.1254 182.188 56.5148 186.71 60.4151C196.784 69.1125 199.152 86.4563 192.345 97.9249C190.194 101.554 186.615 103.377 183.565 105.843C181.191 107.541 178.721 109.099 176.166 110.509C176.368 111.641 176.711 112.744 177.188 113.79C181.202 120.118 183.35 127.197 185.567 134.238C189.457 146.594 185.272 158.075 174.689 165.633C169.521 169.19 163.612 171.525 157.409 172.462C149.747 173.822 141.855 172.207 135.343 167.947C132.701 166.276 130.221 164.377 127.198 162.254C126.086 163.362 125.073 164.566 124.173 165.852C122.144 169.264 120.283 172.758 118.362 176.29C114.258 183.67 107.955 187.277 99.6333 187.83C91.6151 188.407 83.6176 186.456 76.7655 182.252C73.5867 180.323 70.8783 177.709 68.8374 174.601C66.7965 171.493 65.4747 167.969 64.9681 164.285C64.3409 160.383 64.072 156.426 63.6617 152.656C62.8607 152.358 62.29 151.924 61.9109 152.048C52.784 155.085 43.4181 154.959 34.0719 154.048C27.2495 153.339 20.725 150.884 15.1271 146.92C8.78416 142.53 5.51228 135.606 3.32484 128.545C1.07069 120.82 1.27328 112.585 3.90458 104.98C8.66216 90.5854 18.9509 81.9611 33.85 78.8674C37.1657 78.2429 40.5204 77.6685 44.4354 75.1739ZM162.77 101.324C171.421 100.596 178.1 96.2983 184.331 91.2595C185.789 89.9358 186.843 88.2271 187.372 86.3303C189.714 78.5514 188.049 74.1501 181.302 69.5269C179.89 68.5775 178.425 67.7103 176.914 66.9295C171.466 64.0608 165.875 62.3426 159.772 64.979C158.956 65.2177 158.105 65.3147 157.256 65.2657C155.407 65.3322 153.715 63.9703 153.956 62.1852C154.372 59.1208 154.572 55.7856 155.956 53.1305C158.499 48.2548 158.629 43.4187 157.699 38.2516C156.296 30.4462 151.61 25.4412 143.969 23.9659C141.187 23.3716 138.373 22.9388 135.541 22.6695C125.488 21.9292 116.37 24.2004 108.871 31.399C106.312 33.6978 104.627 36.8112 104.103 40.2107C103.807 42.4538 103.334 44.6701 102.69 46.8389C102.542 47.3186 102.294 47.7616 101.963 48.1384C101.631 48.5153 101.223 48.8174 100.766 49.0249C100.309 49.2324 99.8132 49.3405 99.3113 49.3421C98.8093 49.3437 98.3128 49.2386 97.8545 49.034C96.5453 48.5403 95.3284 47.8302 94.2547 46.9332C92.2881 45.2996 90.6041 43.3118 88.5768 41.7768C83.2229 37.7371 77.0675 35.0483 70.4151 35.5918C53.9892 36.8389 44.5808 54.5931 52.4073 69.1435C54.2941 72.307 56.3451 75.3697 58.552 78.3188C59.2904 79.1704 59.9696 80.0716 60.5848 81.0161C61.0002 81.7635 61.2157 82.6054 61.2103 83.4604C61.2049 84.3154 60.9789 85.1546 60.5541 85.8966C60.1293 86.6387 59.5201 87.2585 58.7855 87.696C58.051 88.1336 57.2158 88.3741 56.3611 88.3943C54.6609 88.5123 52.9444 88.352 51.246 88.331C42.6762 88.2081 34.1963 90.0897 26.4828 93.8258C17.2671 98.4203 11.2601 105.409 10.9453 116.401C10.7879 121.893 13.5761 126.159 16.0039 130.659C19.7603 137.759 25.7041 141.498 33.6087 142.51C40.1075 143.335 46.6975 143.091 53.1175 141.787C58.6443 140.684 64.0771 139.152 69.8263 137.743C71.2763 139.083 72.3822 140.754 73.0508 142.612C73.7194 144.47 73.931 146.462 73.6677 148.419C73.2255 151.226 73.0143 154.064 73.0362 156.905C73.4278 164.588 76.8442 170.273 84.2458 173.404C88.2059 174.989 92.4385 175.78 96.7036 175.734C102.891 175.81 107.858 173.418 111.112 168.174C114.842 162.16 119.066 156.352 121.365 149.546C121.87 148.052 123.108 146.816 123.868 145.603C127.977 145.853 129.672 148.536 131.569 151.033C143.13 166.375 166.827 161.969 176.055 149.17C177.298 147.596 178.157 145.753 178.564 143.789C178.971 141.825 178.915 139.793 178.4 137.855C175.768 128.236 173.116 118.568 163.339 113.142C160.191 111.404 159.894 108.132 160.987 104.918C161.509 103.685 162.105 102.485 162.77 101.324Z" fill="white"/>
<path d="M162.77 101.324C162.105 102.486 161.509 103.686 160.987 104.918C159.894 108.173 160.191 111.405 163.339 113.142C173.116 118.568 175.768 128.197 178.4 137.855C178.915 139.794 178.971 141.825 178.564 143.79C178.157 145.754 177.298 147.596 176.055 149.17C166.828 161.89 143.131 166.325 131.529 151.033C129.633 148.536 127.937 145.853 123.828 145.603C123.069 146.766 121.812 148.002 121.326 149.546C119.026 156.391 114.802 162.16 111.072 168.174C107.818 173.418 102.851 175.84 96.6639 175.734C92.3989 175.78 88.1662 174.988 84.2061 173.404C76.7847 170.273 73.3881 164.588 72.9965 156.905C72.9746 154.064 73.1858 151.226 73.628 148.419C73.8913 146.462 73.6797 144.47 73.0112 142.612C72.3426 140.753 71.2366 139.083 69.7867 137.742C64.0772 139.152 58.6444 140.684 53.1175 141.788C46.6991 143.102 40.1089 143.356 33.6084 142.54C25.674 141.528 19.76 137.789 16.0036 130.689C13.5762 126.159 9.68365 116.734 9.84101 111.243C10.155 100.319 17.2672 98.4206 26.5126 93.8364C34.2261 90.1004 42.7059 88.2187 51.2757 88.3416C52.9741 88.3626 54.6909 88.5031 56.3908 88.4049C57.2456 88.3848 58.0807 88.1442 58.8153 87.7067C59.5499 87.2691 60.159 86.6493 60.5838 85.9073C61.0086 85.1652 61.2346 84.3261 61.24 83.4711C61.2454 82.616 61.0299 81.7741 60.6145 81.0268C59.9993 80.0823 59.3201 79.1811 58.5817 78.3295C56.3748 75.3803 54.3238 72.3177 52.437 69.1542C44.6103 54.6237 54.0187 36.8694 70.4448 35.6025C77.0967 35.0988 83.2526 37.7478 88.6065 41.7875C90.6339 43.3225 92.3179 45.3102 94.2844 46.9438C95.3581 47.8408 96.575 48.551 97.8842 49.0446C98.3425 49.2493 98.8391 49.3543 99.341 49.3528C99.843 49.3512 100.339 49.2431 100.796 49.0356C101.253 48.8281 101.661 48.5259 101.992 48.1491C102.324 47.7722 102.572 47.3293 102.719 46.8495C103.364 44.6808 103.836 42.4645 104.132 40.2214C104.657 36.8218 106.342 33.7084 108.9 31.4096C116.4 24.2111 125.517 21.9399 135.571 22.6802C138.403 22.9495 141.217 23.3823 143.999 23.9765C151.629 25.4517 156.316 30.4567 157.729 38.2622C158.659 43.4194 158.53 48.2058 155.985 53.1412C154.601 55.7962 154.402 59.0818 153.986 62.1958C153.745 63.9809 155.437 65.3429 157.285 65.2764C158.135 65.3254 158.986 65.2284 159.802 64.9896C165.904 62.3533 171.496 64.0715 176.943 66.9402C178.455 67.721 179.92 68.5882 181.332 69.5375C188.079 74.1607 189.743 78.5819 187.402 86.341C186.873 88.2378 185.819 89.9465 184.361 91.2702C178.099 96.3483 171.42 100.646 162.77 101.324ZM85.6249 95.6905C85.6038 97.3889 85.5132 99.0964 85.5617 100.796C85.8084 107.345 89.0073 112.143 94.6414 115.213C99.092 117.8 104.074 119.34 109.208 119.714C118.62 120.168 125.859 117.119 129.435 107.507C131.159 103.004 132.057 98.2266 132.083 93.4046C131.98 84.8504 127.95 78.1847 119.941 74.3803C115.34 72.0954 110.327 70.7565 105.199 70.4429C100.9 70.2507 96.459 71.0897 93.6028 74.7298C88.8279 80.8892 84.9811 87.5071 85.6242 95.7402L85.6249 95.6905Z" fill="#F2D82D"/>
<path d="M85.6245 95.7402C84.9814 87.5071 88.7886 80.8788 93.6223 74.7797C96.4786 71.1396 100.919 70.3006 105.218 70.4928C110.346 70.8064 115.359 72.1453 119.961 74.4302C127.97 78.2346 132 84.9003 132.103 93.4545C132.076 98.2765 131.179 103.054 129.455 107.557C125.879 117.169 118.639 120.218 109.228 119.764C104.093 119.39 99.1115 117.85 94.661 115.262C89.0266 112.213 85.818 107.395 85.5812 100.846C85.5128 99.146 85.6041 97.3889 85.6245 95.7402ZM108.777 108.027C110.59 107.622 113.752 107.343 116.567 106.216C123.356 103.489 125.19 97.3822 121.583 91.0098C118.667 85.828 113.723 84.0384 108.363 82.8992C101.715 81.4858 97.0172 83.8018 95.2788 90.2273C91.9055 102.732 93.7584 106.321 108.777 108.027Z" fill="white"/>
<path d="M108.777 108.026C93.7583 106.32 91.955 102.732 95.2787 90.2265C97.0171 83.801 101.715 81.485 108.363 82.8984C113.743 84.0378 118.647 85.827 121.583 91.009C125.19 97.3615 123.356 103.488 116.567 106.215C113.752 107.342 110.59 107.631 108.777 108.026Z" fill="#F2D82D"/>
<path d="M44.4354 75.1739C40.6736 68.5016 40.4605 61.6447 41.2697 54.8502C42.7568 42.2528 48.7003 32.3628 60.1508 26.1867C67.7711 22.0791 75.5634 22.5332 83.1817 25.8162C87.5292 27.6978 91.498 30.4886 96.1238 33.1584C97.081 31.9529 97.9218 30.6595 98.6352 29.2955C102.237 20.7573 109.15 16.0251 117.48 13.1977C126.718 10.1337 136.612 9.62119 146.117 11.7144C148.777 12.1971 151.313 13.2062 153.577 14.6825C155.841 16.1587 157.788 18.0725 159.302 20.3113C163.871 26.8148 166.456 33.8302 166.327 41.8053C166.293 44.6261 166.258 47.4369 166.229 49.7511C167.632 52.0035 169.492 51.7782 171.098 52.0564C177.214 53.1254 182.188 56.5148 186.71 60.4151C196.784 69.1125 199.152 86.4563 192.345 97.9249C190.194 101.554 186.615 103.377 183.565 105.843C181.191 107.541 178.721 109.099 176.166 110.509C176.368 111.641 176.711 112.744 177.188 113.79C181.202 120.118 183.35 127.197 185.567 134.238C189.457 146.594 185.272 158.075 174.689 165.633C169.521 169.19 163.612 171.525 157.409 172.462C149.747 173.822 141.855 172.207 135.343 167.947C132.701 166.276 130.221 164.377 127.198 162.254C126.086 163.362 125.073 164.566 124.173 165.852C122.144 169.264 120.283 172.758 118.362 176.29C114.258 183.67 107.955 187.277 99.6333 187.83C91.6151 188.407 83.6176 186.456 76.7655 182.252C73.5867 180.323 70.8783 177.709 68.8374 174.601C66.7965 171.493 65.4747 167.969 64.9681 164.285C64.3409 160.383 64.072 156.426 63.6617 152.656C62.8607 152.358 62.29 151.924 61.9109 152.048C52.784 155.085 43.4181 154.959 34.0719 154.048C27.2495 153.339 20.725 150.884 15.1271 146.92C8.78416 142.53 5.51228 135.606 3.32484 128.545C1.07069 120.82 1.27328 112.585 3.90458 104.98C8.66216 90.5854 18.9509 81.9611 33.85 78.8674C37.1657 78.2429 40.5204 77.6685 44.4354 75.1739ZM162.77 101.324C171.421 100.596 178.1 96.2983 184.331 91.2595C185.789 89.9358 186.843 88.2271 187.372 86.3303C189.714 78.5514 188.049 74.1501 181.302 69.5269C179.89 68.5775 178.425 67.7103 176.914 66.9295C171.466 64.0608 165.875 62.3426 159.772 64.979C158.956 65.2177 158.105 65.3147 157.256 65.2657C155.407 65.3322 153.715 63.9703 153.956 62.1852C154.372 59.1208 154.572 55.7856 155.956 53.1305C158.499 48.2548 158.629 43.4187 157.699 38.2516C156.296 30.4462 151.61 25.4412 143.969 23.9659C141.187 23.3716 138.373 22.9388 135.541 22.6695C125.488 21.9292 116.37 24.2004 108.871 31.399C106.312 33.6978 104.627 36.8112 104.103 40.2107C103.807 42.4538 103.334 44.6701 102.69 46.8389C102.542 47.3186 102.294 47.7616 101.963 48.1384C101.631 48.5153 101.223 48.8174 100.766 49.0249C100.309 49.2324 99.8132 49.3405 99.3113 49.3421C98.8093 49.3437 98.3128 49.2386 97.8545 49.034C96.5453 48.5403 95.3284 47.8302 94.2547 46.9332C92.2881 45.2996 90.6041 43.3118 88.5768 41.7768C83.2229 37.7371 77.0675 35.0483 70.4151 35.5918C53.9892 36.8389 44.5808 54.5931 52.4073 69.1435C54.2941 72.307 56.3451 75.3697 58.552 78.3188C59.2904 79.1704 59.9696 80.0716 60.5848 81.0161C61.0002 81.7635 61.2157 82.6054 61.2103 83.4604C61.2049 84.3154 60.9789 85.1546 60.5541 85.8966C60.1293 86.6387 59.5201 87.2585 58.7855 87.696C58.051 88.1336 57.2158 88.3741 56.3611 88.3943C54.6609 88.5123 52.9444 88.352 51.246 88.331C42.6762 88.2081 34.1963 90.0897 26.4828 93.8258C17.2671 98.4203 11.2601 105.409 10.9453 116.401C10.7879 121.893 13.5761 126.159 16.0039 130.659C19.7603 137.759 25.7041 141.498 33.6087 142.51C40.1075 143.335 46.6975 143.091 53.1175 141.787C58.6443 140.684 64.0771 139.152 69.8263 137.743C71.2763 139.083 72.3822 140.754 73.0508 142.612C73.7194 144.47 73.931 146.462 73.6677 148.419C73.2255 151.226 73.0143 154.064 73.0362 156.905C73.4278 164.588 76.8442 170.273 84.2458 173.404C88.2059 174.989 92.4385 175.78 96.7036 175.734C102.891 175.81 107.858 173.418 111.112 168.174C114.842 162.16 119.066 156.352 121.365 149.546C121.87 148.052 123.108 146.816 123.868 145.603C127.977 145.853 129.672 148.536 131.569 151.033C143.13 166.375 166.827 161.969 176.055 149.17C177.298 147.596 178.157 145.753 178.564 143.789C178.971 141.825 178.915 139.793 178.4 137.855C175.768 128.236 173.116 118.568 163.339 113.142C160.191 111.404 159.894 108.132 160.987 104.918C161.509 103.685 162.105 102.485 162.77 101.324Z" fill="white"/>
<path d="M162.77 101.324C162.105 102.486 161.509 103.686 160.987 104.918C159.894 108.173 160.191 111.405 163.339 113.142C173.116 118.568 175.768 128.197 178.4 137.855C178.915 139.794 178.971 141.825 178.564 143.79C178.157 145.754 177.298 147.596 176.055 149.17C166.828 161.89 143.131 166.325 131.529 151.033C129.633 148.536 127.937 145.853 123.828 145.603C123.069 146.766 121.812 148.002 121.326 149.546C119.026 156.391 114.802 162.16 111.072 168.174C107.818 173.418 102.851 175.84 96.6639 175.734C92.3989 175.78 88.1662 174.988 84.2061 173.404C76.7847 170.273 73.3881 164.588 72.9965 156.905C72.9746 154.064 73.1858 151.226 73.628 148.419C73.8913 146.462 73.6797 144.47 73.0112 142.612C72.3426 140.753 71.2366 139.083 69.7867 137.742C64.0772 139.152 58.6444 140.684 53.1175 141.788C46.6991 143.102 40.1089 143.356 33.6084 142.54C25.674 141.528 19.76 137.789 16.0036 130.689C13.5762 126.159 9.68365 116.734 9.84101 111.243C10.155 100.319 17.2672 98.4206 26.5126 93.8364C34.2261 90.1004 42.7059 88.2187 51.2757 88.3416C52.9741 88.3626 54.6909 88.5031 56.3908 88.4049C57.2456 88.3848 58.0807 88.1442 58.8153 87.7067C59.5499 87.2691 60.159 86.6493 60.5838 85.9073C61.0086 85.1652 61.2346 84.3261 61.24 83.4711C61.2454 82.616 61.0299 81.7741 60.6145 81.0268C59.9993 80.0823 59.3201 79.1811 58.5817 78.3295C56.3748 75.3803 54.3238 72.3177 52.437 69.1542C44.6103 54.6237 54.0187 36.8694 70.4448 35.6025C77.0967 35.0988 83.2526 37.7478 88.6065 41.7875C90.6339 43.3225 92.3179 45.3102 94.2844 46.9438C95.3581 47.8408 96.575 48.551 97.8842 49.0446C98.3425 49.2493 98.8391 49.3543 99.341 49.3528C99.843 49.3512 100.339 49.2431 100.796 49.0356C101.253 48.8281 101.661 48.5259 101.992 48.1491C102.324 47.7722 102.572 47.3293 102.719 46.8495C103.364 44.6808 103.836 42.4645 104.132 40.2214C104.657 36.8218 106.342 33.7084 108.9 31.4096C116.4 24.2111 125.517 21.9399 135.571 22.6802C138.403 22.9495 141.217 23.3823 143.999 23.9765C151.629 25.4517 156.316 30.4567 157.729 38.2622C158.659 43.4194 158.53 48.2058 155.985 53.1412C154.601 55.7962 154.402 59.0818 153.986 62.1958C153.745 63.9809 155.437 65.3429 157.285 65.2764C158.135 65.3254 158.986 65.2284 159.802 64.9896C165.904 62.3533 171.496 64.0715 176.943 66.9402C178.455 67.721 179.92 68.5882 181.332 69.5375C188.079 74.1607 189.743 78.5819 187.402 86.341C186.873 88.2378 185.819 89.9465 184.361 91.2702C178.099 96.3483 171.42 100.646 162.77 101.324ZM85.6249 95.6905C85.6038 97.3889 85.5132 99.0964 85.5617 100.796C85.8084 107.345 89.0073 112.143 94.6414 115.213C99.092 117.8 104.074 119.34 109.208 119.714C118.62 120.168 125.859 117.119 129.435 107.507C131.159 103.004 132.057 98.2266 132.083 93.4046C131.98 84.8504 127.95 78.1847 119.941 74.3803C115.34 72.0954 110.327 70.7565 105.199 70.4429C100.9 70.2507 96.459 71.0897 93.6028 74.7298C88.8279 80.8892 84.9811 87.5071 85.6242 95.7402L85.6249 95.6905Z" fill="#F2D82D"/>
<path d="M85.6245 95.7402C84.9814 87.5071 88.7886 80.8788 93.6223 74.7797C96.4786 71.1396 100.919 70.3006 105.218 70.4928C110.346 70.8064 115.359 72.1453 119.961 74.4302C127.97 78.2346 132 84.9003 132.103 93.4545C132.076 98.2765 131.179 103.054 129.455 107.557C125.879 117.169 118.639 120.218 109.228 119.764C104.093 119.39 99.1115 117.85 94.661 115.262C89.0266 112.213 85.818 107.395 85.5812 100.846C85.5128 99.146 85.6041 97.3889 85.6245 95.7402ZM108.777 108.027C110.59 107.622 113.752 107.343 116.567 106.216C123.356 103.489 125.19 97.3822 121.583 91.0098C118.667 85.828 113.723 84.0384 108.363 82.8992C101.715 81.4858 97.0172 83.8018 95.2788 90.2273C91.9055 102.732 93.7584 106.321 108.777 108.027Z" fill="white"/>
<path d="M108.777 108.026C93.7583 106.32 91.955 102.732 95.2787 90.2265C97.0171 83.801 101.715 81.485 108.363 82.8984C113.743 84.0378 118.647 85.827 121.583 91.009C125.19 97.3615 123.356 103.488 116.567 106.215C113.752 107.342 110.59 107.631 108.777 108.026Z" fill="#F2D82D"/>
</g>
<defs>
<clipPath id="clip0_2461_9">
<rect width="194" height="194" fill="white" transform="translate(0.806641 194.792) rotate(-89.2909)"/>
</clipPath>
</defs>
</svg>
