<?xml version="1.0" standalone="no"?>
<!DOCTYPE svg PUBLIC "-//W3C//DTD SVG 1.1//EN" "http://www.w3.org/Graphics/SVG/1.1/DTD/svg11.dtd">
<svg version="1.1" xmlns="http://www.w3.org/2000/svg" viewBox="0 0 62.99608399152703 74.50930869651984" width="188.9882519745811" height="223.52792608955951"><!-- svg-source:excalidraw --><metadata></metadata><defs><style class="style-fonts">
      </style></defs><rect x="0" y="0" width="62.99608399152703" height="74.50930869651984" fill="#ffffff"></rect><g stroke-opacity="0.2" fill-opacity="0.2" transform="translate(35.70991280900057 27.071494110605272) rotate(0 -5.266588601371723 12.812954368689589)" stroke="none"><path fill="#a5d8ff" d="M 0,10.27 Q 0,10.27 -3.48,10.44 -6.96,10.60 -4.89,14.69 -2.82,18.77 -8.96,19.29 -15.10,19.81 -17.09,15.32 -19.08,10.84 -18.94,4.09 -18.80,-2.64 -15.27,-6.96 -11.74,-11.27 -7.94,-13.71 -4.14,-16.15 7.55,-15.62 19.26,-15.10 21.18,-11.19 23.10,-7.29 23.71,-2.69 24.32,1.90 22.70,8.08 21.08,14.26 19.39,16.05 17.70,17.83 15.53,18.98 13.36,20.12 10.94,20.52 8.52,20.92 6.10,20.52 3.68,20.12 1.51,18.97 -0.65,17.82 -2.33,16.04 -4.02,14.26 -5.05,12.03 -6.08,9.80 -6.34,7.36 -6.61,4.92 -6.08,2.53 -5.55,0.13 -4.29,-1.96 -3.02,-4.06 -1.15,-5.65 0.71,-7.24 2.99,-8.15 5.27,-9.05 7.72,-9.19 10.17,-9.32 12.54,-8.66 14.90,-8.00 16.93,-6.62 18.96,-5.25 20.45,-3.29 21.93,-1.34 22.71,0.98 23.49,3.30 23.49,5.76 23.49,8.21 22.71,10.54 21.92,12.86 20.44,14.81 18.95,16.77 16.92,18.14 14.89,19.52 12.52,20.17 10.16,20.83 7.71,20.69 5.26,20.56 2.98,19.65 0.70,18.74 -1.16,17.15 -3.03,15.56 -4.29,13.46 -5.56,11.35 -6.08,8.96 -6.61,6.56 -6.34,4.12 -6.08,1.68 -5.04,-0.53 -4.01,-2.76 -4.01,-2.76 -4.01,-2.76 -3.92,-0.53 -3.83,1.69 2.60,2.90 9.03,4.11 6.23,0.61 3.44,-2.89 7.64,-1.21 11.84,0.46 15.57,3.88 19.31,7.30 20.60,15.09 21.90,22.89 20.81,29.01 19.72,35.13 15.90,39.63 12.09,44.12 7.32,45.22 2.55,46.33 -1.69,45.96 -5.95,45.59 -10.03,44.20 -14.12,42.82 -19.01,39.40 -23.91,35.99 -26.75,31.92 -29.58,27.84 -30.79,21.39 -32.00,14.94 -31.49,10.45 -30.98,5.97 -28.60,1.32 -26.21,-3.33 -21.73,-6.29 -17.25,-9.25 -12.12,-9.93 -6.99,-10.60 -3.49,-10.44 0,-10.27 1.22,-10.12 2.45,-9.97 3.61,-9.53 4.77,-9.09 5.79,-8.39 6.81,-7.69 7.63,-6.76 8.45,-5.83 9.03,-4.74 9.60,-3.64 9.90,-2.44 10.20,-1.23 10.20,0.00 10.20,1.23 9.90,2.44 9.60,3.64 9.03,4.74 8.45,5.83 7.63,6.76 6.81,7.69 5.79,8.39 4.77,9.10 3.61,9.53 2.45,9.97 1.22,10.12 -0.00,10.27 -0.00,10.27 L 0,10.27 Z"></path></g><g stroke-opacity="0.2" fill-opacity="0.2" transform="translate(16.55231758646505 31.83172483581484) rotate(0 14.945724409298464 5.42292951244508)" stroke="none"><path fill="#a5d8ff" d="M -4.33,-2.73 Q -4.33,-2.73 -3.53,-4.15 -2.74,-5.57 -1.03,-8.27 0.68,-10.96 2.51,-12.93 4.35,-14.91 6.09,-16.33 7.84,-17.75 10.12,-19.41 12.41,-21.08 15.25,-22.04 18.08,-23.00 20.50,-23.29 22.92,-23.57 25.29,-23.67 27.65,-23.77 30.35,-23.59 33.05,-23.42 36.05,-21.56 39.05,-19.70 40.67,-17.82 42.30,-15.94 43.01,-13.34 43.71,-10.73 43.75,-8.25 43.79,-5.78 43.80,-3.35 43.81,-0.93 43.82,1.20 43.83,3.34 43.34,5.66 42.84,7.99 42.33,10.87 41.82,13.75 41.10,16.40 40.38,19.04 39.85,21.18 39.33,23.31 38.68,25.49 38.03,27.68 36.95,30.15 35.87,32.62 34.58,34.79 33.28,36.96 30.80,38.24 28.32,39.53 25.23,39.81 22.14,40.10 19.42,40.09 16.70,40.08 13.25,39.26 9.81,38.45 8.02,37.06 6.23,35.67 4.37,34.20 2.51,32.74 0.97,31.01 -0.56,29.29 -1.80,27.03 -3.03,24.78 -3.88,22.08 -4.72,19.39 -5.09,17.18 -5.46,14.97 -5.61,12.60 -5.76,10.23 -5.53,7.60 -5.30,4.98 -3.83,2.41 -2.37,-0.15 -0.26,-1.95 1.84,-3.75 4.59,-4.78 7.34,-5.82 9.95,-6.31 12.56,-6.80 14.95,-6.87 17.33,-6.94 19.62,-6.80 21.92,-6.65 24.80,-5.10 27.69,-3.55 28.99,-1.52 30.29,0.50 30.61,3.09 30.93,5.69 30.46,9.15 29.99,12.62 28.66,14.74 27.32,16.87 25.28,18.85 23.23,20.83 20.09,21.97 16.94,23.12 14.37,23.25 11.80,23.37 8.48,22.25 5.17,21.12 3.33,18.32 1.50,15.53 1.55,12.74 1.59,9.95 2.45,7.94 3.30,5.92 7.21,4.37 11.13,2.82 14.70,3.37 18.27,3.92 20.91,6.01 23.54,8.09 24.43,10.57 25.32,13.06 25.65,15.71 25.98,18.36 26.05,20.69 26.12,23.01 26.12,23.07 26.12,23.12 26.02,24.01 25.92,24.90 25.61,25.74 25.30,26.58 24.79,27.33 24.29,28.07 23.62,28.67 22.95,29.27 22.16,29.69 21.37,30.11 20.50,30.33 19.63,30.55 18.74,30.56 17.84,30.56 16.97,30.36 16.09,30.15 15.30,29.74 14.50,29.32 13.83,28.73 13.15,28.14 12.64,27.41 12.12,26.68 11.80,25.84 11.47,25.00 11.36,24.11 11.25,23.22 12.12,20.76 12.99,18.29 14.90,15.45 16.82,12.62 18.30,10.91 19.79,9.21 19.68,6.86 19.58,4.51 17.56,3.42 15.54,2.34 13.28,2.02 11.01,1.71 8.81,2.18 6.61,2.64 4.69,4.46 2.77,6.27 1.91,8.39 1.05,10.52 1.08,12.67 1.10,14.82 3.33,15.87 5.56,16.92 7.45,18.60 9.34,20.27 11.60,22.48 13.85,24.68 15.26,26.43 16.67,28.18 12.69,27.07 8.71,25.97 6.41,30.78 4.11,35.60 2.44,33.71 0.76,31.81 -0.87,29.33 -2.52,26.85 -3.28,24.86 -4.05,22.88 -5.05,20.12 -6.05,17.36 -6.55,14.72 -7.05,12.08 -7.32,9.67 -7.60,7.26 -7.07,3.83 -6.54,0.39 -5.90,-1.73 -5.27,-3.85 -4.53,-5.85 -3.78,-7.85 -2.86,-10.01 -1.93,-12.16 -0.61,-13.97 0.70,-15.79 2.91,-17.84 5.12,-19.89 6.90,-21.17 8.68,-22.45 11.07,-23.87 13.46,-25.29 15.83,-25.70 18.21,-26.11 20.49,-26.96 22.77,-27.82 25.29,-28.47 27.82,-29.13 29.96,-29.29 32.10,-29.45 34.42,-28.88 36.75,-28.31 38.60,-26.24 40.44,-24.18 40.96,-22.01 41.48,-19.84 40.40,-16.46 39.32,-13.07 37.59,-11.22 35.85,-9.36 33.62,-8.15 31.38,-6.94 29.16,-6.78 26.94,-6.62 24.63,-6.92 22.31,-7.22 20.16,-7.22 18.01,-7.22 18.31,-6.45 18.60,-5.68 17.88,-4.66 17.16,-3.64 16.15,-2.91 15.15,-2.17 13.96,-1.80 12.77,-1.43 11.52,-1.45 10.27,-1.48 9.10,-1.90 7.92,-2.32 6.95,-3.10 5.97,-3.87 5.29,-4.92 4.61,-5.97 4.30,-7.18 4.00,-8.38 4.09,-9.63 4.18,-10.87 4.67,-12.02 5.15,-13.17 5.98,-14.10 6.81,-15.04 7.89,-15.66 8.97,-16.28 10.20,-16.52 11.42,-16.76 12.66,-16.60 13.89,-16.44 15.01,-15.90 16.13,-15.35 17.02,-14.47 17.91,-13.59 18.47,-12.48 19.03,-11.37 19.21,-10.13 19.38,-8.90 19.16,-7.67 18.93,-6.44 18.32,-5.35 17.72,-4.27 16.79,-3.43 15.87,-2.59 14.73,-2.09 13.58,-1.59 12.34,-1.48 11.10,-1.37 9.89,-1.66 8.67,-1.96 7.62,-2.62 6.56,-3.29 5.78,-4.26 4.99,-5.22 4.55,-6.39 4.11,-7.56 4.07,-8.81 4.03,-10.05 4.39,-11.25 4.75,-12.44 4.75,-12.44 4.75,-12.44 7.10,-15.92 9.45,-19.41 11.75,-20.64 14.05,-21.88 17.07,-22.26 20.09,-22.64 22.55,-22.61 25.01,-22.58 27.70,-22.08 30.40,-21.58 28.43,-19.82 26.45,-18.06 28.19,-16.02 29.93,-13.98 27.32,-13.13 24.71,-12.29 22.62,-11.80 20.53,-11.32 18.38,-10.32 16.23,-9.32 14.04,-7.45 11.86,-5.57 10.91,-3.50 9.96,-1.42 9.12,1.20 8.28,3.83 7.82,6.06 7.36,8.28 7.99,11.18 8.61,14.09 9.50,16.55 10.39,19.01 11.65,20.77 12.92,22.53 14.88,25.64 16.84,28.75 14.44,33.64 12.04,38.54 7.30,36.88 2.56,35.23 0.76,33.46 -1.03,31.69 -3.47,29.72 -5.92,27.74 -8.21,25.88 -10.50,24.01 -11.91,22.14 -13.33,20.26 -13.77,18.14 -14.21,16.03 -14.19,13.82 -14.17,11.62 -13.91,9.15 -13.66,6.68 -12.95,4.33 -12.24,1.97 -11.05,0.10 -9.86,-1.76 -8.13,-3.67 -6.40,-5.59 -4.55,-7.29 -2.70,-9.00 -0.69,-10.26 1.31,-11.52 3.64,-12.31 5.97,-13.10 9.43,-13.31 12.89,-13.52 15.68,-13.34 18.47,-13.16 21.37,-11.57 24.27,-9.97 25.99,-8.46 27.71,-6.95 30.45,-4.81 33.19,-2.67 33.90,-0.18 34.60,2.31 34.58,4.59 34.56,6.88 34.51,9.39 34.45,11.90 33.75,14.00 33.06,16.11 31.44,18.12 29.82,20.14 27.97,21.63 26.12,23.12 26.02,24.01 25.92,24.90 25.61,25.74 25.30,26.58 24.79,27.33 24.29,28.07 23.62,28.67 22.95,29.27 22.16,29.69 21.37,30.11 20.50,30.33 19.63,30.55 18.74,30.56 17.84,30.56 16.97,30.36 16.10,30.15 15.30,29.74 14.50,29.33 13.83,28.74 13.15,28.15 12.64,27.41 12.12,26.68 11.80,25.84 11.47,25.00 11.36,24.11 11.25,23.23 11.25,21.96 11.25,20.70 12.63,18.58 14.01,16.46 13.98,12.86 13.96,9.26 14.91,7.29 15.86,5.31 17.60,6.68 19.33,8.05 16.79,8.12 14.24,8.20 11.79,8.00 9.34,7.80 9.36,10.04 9.38,12.28 9.91,15.27 10.44,18.27 11.77,20.27 13.09,22.27 14.85,23.76 16.61,25.25 19.70,25.29 22.78,25.34 23.66,23.05 24.54,20.76 25.18,18.20 25.81,15.64 26.52,13.16 27.23,10.68 27.76,8.32 28.29,5.97 28.68,2.52 29.07,-0.92 29.08,-3.33 29.09,-5.74 27.96,-7.77 26.84,-9.80 24.63,-9.88 22.43,-9.97 20.25,-9.69 18.07,-9.41 16.19,-8.38 14.32,-7.35 12.19,-5.74 10.06,-4.13 8.14,-2.02 6.21,0.08 5.27,1.40 4.33,2.73 3.94,3.21 3.55,3.68 3.05,4.06 2.56,4.43 1.99,4.67 1.42,4.91 0.82,5.01 0.21,5.11 -0.40,5.06 -1.01,5.01 -1.60,4.82 -2.19,4.62 -2.71,4.29 -3.23,3.96 -3.66,3.52 -4.09,3.08 -4.39,2.54 -4.70,2.01 -4.88,1.41 -5.05,0.82 -5.07,0.20 -5.10,-0.40 -4.98,-1.01 -4.85,-1.61 -4.59,-2.17 -4.33,-2.73 -4.33,-2.73 L -4.33,-2.73 Z"></path></g><g stroke-opacity="0.2" fill-opacity="0.2" transform="translate(36.83463399015318 29.334937151513714) rotate(0 -2.94480939961511 4.267873527651318)" stroke="none"><path d="M0 0 C-0.27 0, -1.05 -0.35, -1.61 0 C-2.17 0.35, -2.67 0.7, -3.39 2.12 C-4.1 3.55, -5.87 7.47, -5.89 8.54 C-5.91 9.6, -4 9.57, -3.53 8.54 C-3.05 7.5, -3.05 2.74, -3.03 2.33 C-3.01 1.93, -3.91 6.49, -3.4 6.1 C-2.9 5.72, -0.57 1.02, 0 0" stroke="none" stroke-width="0" fill="#a5d8ff" fill-rule="evenodd"></path><path fill="#8ca0a0" d="M 3.17,3.87 Q 3.17,3.87 2.00,4.94 0.84,6.02 -1.85,4.34 -4.55,2.65 -6.76,3.80 -8.96,4.95 -9.16,3.76 -9.36,2.57 -9.23,1.82 -9.10,1.07 -8.80,0.37 -8.49,-0.32 -8.03,-0.93 -7.57,-1.54 -6.97,-2.01 -6.38,-2.49 -5.68,-2.81 -4.99,-3.13 -4.24,-3.28 -3.49,-3.43 -2.73,-3.39 -1.97,-3.35 -1.24,-3.14 -0.51,-2.92 0.14,-2.53 0.80,-2.14 1.34,-1.61 1.89,-1.08 2.29,-0.43 2.70,0.21 2.93,0.94 3.17,1.66 3.22,2.42 3.28,3.18 -2.47,3.04 -8.23,2.90 -6.81,0.09 -5.39,-2.70 -4.82,-3.49 -4.24,-4.29 -3.45,-4.85 -2.65,-5.42 -1.71,-5.70 -0.78,-5.98 0.19,-5.95 1.16,-5.92 2.08,-5.58 2.99,-5.23 3.75,-4.62 4.51,-4.00 5.03,-3.18 5.55,-2.35 5.78,-1.40 6.01,-0.45 5.93,0.51 5.85,1.48 5.45,2.38 5.06,3.27 4.41,4.00 3.75,4.72 2.90,5.20 2.05,5.67 1.09,5.85 0.13,6.03 -0.83,5.89 -1.80,5.76 -2.67,5.32 -3.54,4.88 -4.23,4.18 -4.92,3.49 -5.35,2.61 -5.77,1.74 -5.90,0.77 -6.03,-0.19 -5.84,-1.15 -5.65,-2.11 -5.16,-2.95 -4.68,-3.80 -3.95,-4.45 -3.22,-5.10 -2.32,-5.48 -1.42,-5.86 -0.45,-5.93 0.52,-6.01 1.46,-5.77 2.41,-5.53 3.23,-5.00 4.05,-4.47 4.66,-3.70 5.27,-2.94 5.60,-2.02 5.93,-1.10 5.95,-0.12 5.97,0.84 5.68,1.77 5.39,2.71 5.39,2.71 5.39,2.70 3.78,5.94 2.17,9.17 -3.01,9.48 -8.19,9.80 -8.78,6.18 -9.36,2.57 -9.23,1.82 -9.10,1.07 -8.80,0.37 -8.49,-0.32 -8.03,-0.93 -7.57,-1.54 -6.97,-2.01 -6.38,-2.49 -5.68,-2.81 -4.99,-3.13 -4.24,-3.28 -3.49,-3.43 -2.73,-3.39 -1.97,-3.35 -1.24,-3.14 -0.51,-2.92 0.14,-2.53 0.80,-2.14 1.34,-1.61 1.89,-1.08 2.29,-0.43 2.69,0.21 2.93,0.93 3.17,1.66 3.22,2.42 3.28,3.18 3.08,4.97 2.89,6.77 1.10,9.58 -0.68,12.40 -2.66,13.43 -4.63,14.46 -6.82,13.76 -9.00,13.07 -10.22,9.77 -11.44,6.48 -10.53,4.41 -9.62,2.35 -7.68,0.17 -5.75,-2.00 -4.46,-2.93 -3.17,-3.87 -2.66,-4.19 -2.15,-4.51 -1.58,-4.71 -1.00,-4.90 -0.40,-4.95 0.19,-5.00 0.78,-4.90 1.38,-4.80 1.93,-4.57 2.49,-4.33 2.97,-3.97 3.46,-3.61 3.84,-3.14 4.22,-2.68 4.48,-2.13 4.74,-1.59 4.86,-1.00 4.98,-0.41 4.96,0.19 4.94,0.79 4.77,1.37 4.60,1.95 4.30,2.47 4.00,2.99 3.58,3.43 3.17,3.87 3.17,3.87 L 3.17,3.87 Z"></path></g></svg>