<?xml version="1.0" standalone="no"?>
<!DOCTYPE svg PUBLIC "-//W3C//DTD SVG 1.1//EN" "http://www.w3.org/Graphics/SVG/1.1/DTD/svg11.dtd">
<svg version="1.1" xmlns="http://www.w3.org/2000/svg" viewBox="0 0 101.1909499804126 83.51725459494264" width="303.5728499412378" height="250.55176378482793"><!-- svg-source:excalidraw --><metadata></metadata><defs><style class="style-fonts">
      </style></defs><rect x="0" y="0" width="101.1909499804126" height="83.51725459494264" fill="#ffffff"></rect><g stroke-linecap="round" transform="translate(10 10) rotate(0 40.5954749902063 31.75862729747132)"><path d="M-3.52 2.37 L77.71 3.12 L82.52 62.22 L2.34 63.85" stroke="none" stroke-width="0" fill="#ffc9c9"></path><path d="M-1.92 3.4 C32.1 2.4, 64 3.55, 79.99 1.1 M1.24 1.83 C16.3 -0.16, 32.81 0.28, 80.64 -0.25 M83.52 -2.76 C80.37 23.13, 79.63 42.68, 85.12 62.59 M81.84 1.71 C80.06 21.42, 79.28 45.13, 81.27 62.66 M84.61 64.99 C66.33 63.69, 47.62 65.83, -0.94 67.22 M81.47 62.78 C62.08 60.82, 42.91 63.98, 1.23 62.42 M-3.28 59.74 C-4.13 41.42, 2.42 16.87, -3.97 -0.63 M-0.62 64.59 C0.18 44.86, 0.6 25.84, 1.2 0.7" stroke="transparent" stroke-width="1" fill="none"></path></g><g stroke-linecap="round" transform="translate(44.38197528254125 22.241211348003162) rotate(0 14.277876184768388 12.425611166203907)"><path d="M16.21 -0.31 C19.01 -0.21, 22.52 1.85, 24.58 3.89 C26.64 5.93, 28.5 9.18, 28.57 11.93 C28.64 14.68, 26.97 18.23, 25.01 20.41 C23.04 22.6, 19.68 24.49, 16.78 25.04 C13.88 25.58, 10.22 24.98, 7.61 23.67 C5 22.35, 2.19 19.7, 1.12 17.15 C0.04 14.59, 0.13 10.93, 1.16 8.32 C2.2 5.72, 4.7 2.89, 7.32 1.51 C9.94 0.12, 15.16 0.19, 16.88 0 C18.6 -0.18, 17.64 0.24, 17.63 0.41" stroke="none" stroke-width="0" fill="#ffffff"></path><path d="M15.31 0.18 C18.11 0.22, 21.69 1.91, 23.88 3.82 C26.06 5.72, 27.98 9.01, 28.41 11.6 C28.84 14.19, 28.21 17.25, 26.47 19.33 C24.72 21.42, 20.95 23.41, 17.93 24.12 C14.9 24.82, 11.07 24.62, 8.3 23.57 C5.53 22.53, 2.6 20.3, 1.3 17.84 C0.01 15.39, -0.3 11.51, 0.54 8.86 C1.38 6.2, 3.72 3.33, 6.33 1.93 C8.93 0.53, 14.42 0.65, 16.17 0.45 C17.92 0.24, 16.77 0.55, 16.84 0.69" stroke="transparent" stroke-width="2.5" fill="none" stroke-dasharray="8 10"></path></g><g stroke-linecap="round" transform="translate(31.416120152589087 26.71751847620044) rotate(0 10.959234693173585 10.650523856746076)"><path d="M12.86 -0.09 C15.11 0.28, 18.21 2.02, 19.65 3.92 C21.08 5.81, 21.64 8.9, 21.49 11.29 C21.35 13.68, 20.25 16.53, 18.77 18.24 C17.29 19.95, 14.87 21.28, 12.62 21.55 C10.37 21.82, 7.2 21.16, 5.25 19.86 C3.31 18.57, 1.59 16.04, 0.93 13.78 C0.27 11.52, 0.49 8.45, 1.28 6.32 C2.07 4.18, 3.58 2.01, 5.7 0.99 C7.81 -0.03, 12.49 0.32, 13.96 0.2 C15.43 0.09, 14.54 0.03, 14.5 0.28" stroke="none" stroke-width="0" fill="#ffffff"></path><path d="M12.19 0.34 C14.43 0.57, 17.43 2.3, 19.13 3.95 C20.83 5.61, 22.33 8.08, 22.37 10.26 C22.42 12.44, 20.94 15.25, 19.39 17.03 C17.84 18.82, 15.37 20.45, 13.08 20.96 C10.78 21.47, 7.65 21.24, 5.61 20.1 C3.56 18.95, 1.59 16.29, 0.8 14.09 C0.02 11.88, 0.15 8.9, 0.88 6.86 C1.61 4.82, 3.14 2.93, 5.17 1.86 C7.19 0.78, 11.51 0.66, 13.02 0.43 C14.54 0.2, 14.21 0.33, 14.26 0.46" stroke="transparent" stroke-width="2.5" fill="none" stroke-dasharray="8 10"></path></g><g stroke-linecap="round" transform="translate(18.45026502263738 35.51577731438192) rotate(0 12.96585512995182 13.506099093699731)"><path d="M10.07 0.13 C12.61 -0.56, 16.02 0.27, 18.44 1.69 C20.86 3.11, 23.42 5.97, 24.6 8.66 C25.79 11.34, 26.29 15.07, 25.55 17.8 C24.81 20.53, 22.46 23.54, 20.17 25.04 C17.88 26.54, 14.5 27.23, 11.79 26.79 C9.09 26.36, 5.93 24.55, 3.94 22.41 C1.96 20.28, 0.07 16.85, -0.14 13.98 C-0.35 11.11, 0.89 7.56, 2.68 5.19 C4.47 2.82, 9.18 0.5, 10.59 -0.24 C12 -0.98, 11.08 0.48, 11.16 0.74" stroke="none" stroke-width="0" fill="#ffffff"></path><path d="M13.77 0.34 C16.57 0.29, 20.42 1.7, 22.42 3.6 C24.41 5.51, 25.53 8.89, 25.75 11.78 C25.97 14.66, 25.27 18.44, 23.73 20.91 C22.18 23.38, 19.15 25.85, 16.49 26.6 C13.84 27.36, 10.26 26.7, 7.77 25.45 C5.29 24.2, 2.86 21.58, 1.61 19.1 C0.36 16.62, -0.33 13.3, 0.26 10.58 C0.84 7.86, 2.68 4.56, 5.11 2.79 C7.54 1.02, 13.17 0.37, 14.84 -0.04 C16.51 -0.45, 15.19 0.05, 15.13 0.32" stroke="transparent" stroke-width="2.5" fill="none" stroke-dasharray="8 10"></path></g><g stroke-linecap="round" transform="translate(46.8818723360647 33.35480145939027) rotate(0 11.113590111387282 10.959234693173585)"><path d="M8.86 0.37 C11.01 -0.03, 14.3 0.73, 16.45 1.94 C18.6 3.15, 20.9 5.46, 21.77 7.64 C22.64 9.81, 22.46 12.87, 21.67 15 C20.87 17.12, 19.02 19.3, 17 20.38 C14.98 21.45, 11.99 21.88, 9.56 21.43 C7.12 20.99, 3.96 19.49, 2.38 17.7 C0.8 15.91, 0.01 13.08, 0.07 10.69 C0.13 8.3, 1.15 5.07, 2.75 3.36 C4.34 1.65, 8.43 0.98, 9.64 0.42 C10.86 -0.13, 9.99 -0.14, 10.03 0.03" stroke="none" stroke-width="0" fill="#ffc9c9"></path><path d="M12.76 -0.11 C15.02 -0.12, 17.44 1.37, 19.02 3.06 C20.59 4.76, 22.03 7.67, 22.2 10.08 C22.37 12.49, 21.42 15.69, 20.03 17.54 C18.64 19.39, 16.1 20.71, 13.85 21.19 C11.59 21.68, 8.68 21.37, 6.51 20.45 C4.34 19.54, 1.88 17.77, 0.83 15.72 C-0.22 13.66, -0.54 10.44, 0.22 8.11 C0.98 5.78, 3.3 3.1, 5.41 1.74 C7.51 0.39, 11.58 0.21, 12.85 0 C14.11 -0.21, 13.01 0.34, 13.01 0.5" stroke="transparent" stroke-width="2.5" fill="none" stroke-dasharray="8 10"></path></g><g stroke-linecap="round" transform="translate(33.114029752940155 42.343258518282255) rotate(0 11.113590111387282 10.959234693173585)"><path d="M9.63 0.49 C11.97 0.13, 15.44 0.93, 17.49 2.2 C19.54 3.48, 21.23 5.94, 21.93 8.12 C22.63 10.3, 22.6 13.22, 21.69 15.28 C20.77 17.34, 18.7 19.48, 16.47 20.5 C14.23 21.51, 10.66 21.91, 8.29 21.37 C5.91 20.82, 3.57 19.17, 2.21 17.23 C0.84 15.3, -0.06 11.99, 0.11 9.73 C0.29 7.47, 1.52 5.33, 3.27 3.67 C5.01 2, 9.32 0.29, 10.58 -0.24 C11.85 -0.77, 10.94 0.32, 10.85 0.48" stroke="none" stroke-width="0" fill="#ffc9c9"></path><path d="M12.72 -0.17 C14.9 0.05, 17.91 1.78, 19.49 3.61 C21.06 5.45, 22.1 8.56, 22.16 10.86 C22.22 13.17, 21.27 15.68, 19.83 17.43 C18.4 19.18, 15.92 20.79, 13.55 21.37 C11.18 21.94, 7.79 21.92, 5.62 20.88 C3.45 19.83, 1.29 17.37, 0.53 15.1 C-0.23 12.84, 0.23 9.57, 1.09 7.3 C1.95 5.03, 3.62 2.65, 5.7 1.49 C7.78 0.34, 12.18 0.57, 13.57 0.37 C14.97 0.17, 14.24 0.21, 14.08 0.29" stroke="transparent" stroke-width="2.5" fill="none" stroke-dasharray="8 10"></path></g><g stroke-linecap="round" transform="translate(60.434938776767126 39.869475506577146) rotate(0 11.113590111387282 10.959234693173585)"><path d="M12.52 0.41 C14.85 0.48, 17.61 1.97, 19.29 3.59 C20.97 5.21, 22.41 7.87, 22.61 10.13 C22.82 12.39, 22.04 15.27, 20.53 17.14 C19.03 19.02, 15.97 20.8, 13.59 21.37 C11.21 21.95, 8.36 21.68, 6.26 20.6 C4.17 19.52, 1.97 16.95, 1.03 14.88 C0.08 12.81, -0.1 10.41, 0.61 8.19 C1.31 5.97, 3.23 2.88, 5.25 1.57 C7.28 0.26, 11.58 0.61, 12.78 0.34 C13.97 0.07, 12.58 -0.14, 12.44 -0.07" stroke="none" stroke-width="0" fill="#ffc9c9"></path><path d="M10.13 -0.09 C12.38 -0.36, 15.45 0.79, 17.42 2.09 C19.38 3.39, 21.23 5.52, 21.91 7.71 C22.59 9.9, 22.52 12.99, 21.48 15.24 C20.45 17.49, 17.94 20.12, 15.7 21.21 C13.46 22.29, 10.23 22.42, 8.03 21.74 C5.83 21.07, 3.78 19.11, 2.51 17.14 C1.23 15.17, 0.2 12.22, 0.37 9.93 C0.54 7.64, 1.71 5.07, 3.55 3.38 C5.39 1.69, 10.09 0.37, 11.39 -0.23 C12.69 -0.82, 11.45 -0.41, 11.33 -0.18" stroke="transparent" stroke-width="2.5" fill="none" stroke-dasharray="8 10"></path></g><g stroke-linecap="round" transform="translate(41.88003006887527 52.58471169161021) rotate(0 19.603138113141426 4.553484837304495)"><path d="M0.04 -0.43 L38.38 0.44 L38.61 9.96 L0.37 9.79" stroke="none" stroke-width="0" fill="#ffffff"></path><path d="M0 0 C13.98 -0.53, 28.38 -0.21, 39.21 0 M39.21 0 C38.85 2.88, 38.9 5.12, 39.21 9.11 M39.21 9.11 C25.91 8.95, 11.3 9.01, 0 9.11 M0 9.11 C-0.22 5.41, -0.4 2.23, 0 0" stroke="transparent" stroke-width="2.5" fill="none" stroke-dasharray="8 10"></path></g><g stroke-linecap="round" transform="translate(62.40930069129888 51.19551292768756) rotate(0 11.808189493349005 6.637282983189607)"><path d="M14.24 -0.02 C16.68 0.04, 19.76 0.99, 21.29 2.05 C22.83 3.12, 23.52 4.94, 23.46 6.39 C23.4 7.83, 22.53 9.65, 20.95 10.7 C19.37 11.75, 16.46 12.35, 13.98 12.69 C11.51 13.02, 8.25 13.37, 6.1 12.7 C3.94 12.03, 1.89 10, 1.03 8.65 C0.17 7.31, 0.17 5.99, 0.92 4.63 C1.68 3.27, 3.38 1.3, 5.57 0.49 C7.76 -0.33, 12.48 -0.31, 14.08 -0.26 C15.68 -0.21, 15.19 0.7, 15.16 0.8" stroke="none" stroke-width="0" fill="#ffffff"></path><path d="M11.07 -0.39 C13.51 -0.64, 17.04 -0.03, 19.05 0.93 C21.06 1.89, 22.62 3.89, 23.15 5.36 C23.67 6.83, 23.21 8.55, 22.2 9.75 C21.19 10.95, 19.31 12.06, 17.09 12.59 C14.87 13.12, 11.33 13.28, 8.87 12.93 C6.41 12.58, 3.71 11.71, 2.31 10.5 C0.92 9.3, 0.35 7.22, 0.49 5.71 C0.64 4.2, 1.41 2.38, 3.16 1.43 C4.92 0.49, 9.64 0.31, 11.04 0.03 C12.43 -0.26, 11.43 -0.34, 11.53 -0.28" stroke="transparent" stroke-width="2.5" fill="none" stroke-dasharray="8 10"></path></g><g stroke-linecap="round" transform="translate(63.64414403700869 41.00805532558206) rotate(0 9.415680511036442 8.10365945621993)"><path d="M10.85 -0.26 C12.67 -0.21, 14.68 0.97, 16.02 2.23 C17.36 3.5, 18.69 5.65, 18.88 7.34 C19.06 9.03, 18.3 10.88, 17.13 12.37 C15.96 13.86, 13.79 15.81, 11.87 16.27 C9.95 16.73, 7.42 15.89, 5.61 15.12 C3.81 14.35, 1.97 13.27, 1.04 11.66 C0.12 10.05, -0.38 7.26, 0.05 5.47 C0.49 3.69, 1.86 1.79, 3.66 0.96 C5.47 0.12, 9.66 0.67, 10.89 0.48 C12.12 0.3, 11.08 -0.21, 11.04 -0.15" stroke="none" stroke-width="0" fill="#ffffff"></path><path d="M10.26 -0.33 C12.15 -0.22, 14.38 1.25, 15.76 2.54 C17.14 3.82, 18.22 5.71, 18.55 7.37 C18.89 9.02, 18.79 11.04, 17.77 12.45 C16.75 13.85, 14.4 15.24, 12.44 15.78 C10.47 16.33, 7.82 16.42, 5.98 15.7 C4.15 14.99, 2.45 13.16, 1.43 11.51 C0.4 9.86, -0.54 7.45, -0.2 5.8 C0.14 4.16, 1.76 2.65, 3.47 1.62 C5.18 0.59, 8.85 -0.1, 10.07 -0.38 C11.29 -0.66, 10.7 -0.31, 10.79 -0.07" stroke="transparent" stroke-width="2.5" fill="none" stroke-dasharray="8 10"></path></g><g stroke-linecap="round" transform="translate(47.43682512456883 35.45126026988828) rotate(0 12.194078038883276 12.039722620669636)"><path d="M11.32 -0.21 C13.72 -0.49, 17.4 0.7, 19.54 2.19 C21.68 3.69, 23.53 6.18, 24.15 8.77 C24.77 11.36, 24.39 15.4, 23.26 17.74 C22.12 20.08, 19.73 21.8, 17.34 22.82 C14.95 23.83, 11.53 24.58, 8.93 23.82 C6.32 23.06, 3.26 20.52, 1.7 18.25 C0.15 15.98, -0.74 12.64, -0.39 10.21 C-0.04 7.78, 1.74 5.45, 3.79 3.67 C5.85 1.88, 10.4 0.08, 11.93 -0.5 C13.47 -1.07, 12.97 -0.08, 13.01 0.23" stroke="none" stroke-width="0" fill="#ffffff"></path><path d="M9.62 0.57 C11.93 0.01, 15.37 0.49, 17.77 1.64 C20.18 2.8, 22.97 5.14, 24.02 7.49 C25.07 9.84, 24.95 13.26, 24.09 15.75 C23.24 18.25, 21.1 21.13, 18.89 22.46 C16.68 23.78, 13.55 24.2, 10.84 23.72 C8.13 23.25, 4.49 21.5, 2.62 19.61 C0.76 17.72, -0.29 14.98, -0.33 12.4 C-0.36 9.82, 0.62 6.24, 2.42 4.15 C4.23 2.06, 9.03 0.46, 10.51 -0.15 C11.99 -0.76, 11.24 0.23, 11.29 0.5" stroke="transparent" stroke-width="2.5" fill="none" stroke-dasharray="8 10"></path></g><g stroke-linecap="round" transform="translate(34.934036249258156 45.17565161735229) rotate(0 8.566725710861078 8.952614256395236)"><path d="M7.35 -0.08 C9.1 -0.51, 11.53 -0.26, 13.12 0.82 C14.7 1.9, 16.22 4.54, 16.85 6.4 C17.47 8.25, 17.51 10.16, 16.85 11.94 C16.19 13.72, 14.61 16.16, 12.89 17.06 C11.18 17.95, 8.49 17.81, 6.57 17.32 C4.66 16.83, 2.5 15.47, 1.4 14.1 C0.3 12.74, -0.09 11.05, -0.02 9.12 C0.04 7.19, 0.5 4.06, 1.78 2.54 C3.06 1.02, 6.6 0.36, 7.66 0 C8.71 -0.36, 8.11 0.15, 8.12 0.35" stroke="none" stroke-width="0" fill="#ffffff"></path><path d="M6.88 0.33 C8.68 -0.17, 11.68 0.18, 13.36 1.09 C15.03 2.01, 16.36 3.97, 16.95 5.82 C17.54 7.67, 17.53 10.42, 16.91 12.19 C16.3 13.97, 14.98 15.63, 13.26 16.49 C11.54 17.35, 8.54 17.64, 6.61 17.34 C4.67 17.05, 2.8 16.18, 1.66 14.71 C0.52 13.24, -0.31 10.49, -0.21 8.52 C-0.12 6.55, 0.9 4.26, 2.24 2.89 C3.57 1.51, 6.85 0.69, 7.82 0.27 C8.79 -0.15, 8.07 0.18, 8.05 0.37" stroke="transparent" stroke-width="2.5" fill="none" stroke-dasharray="8 10"></path></g><g stroke-linecap="round" transform="translate(23.38963840547615 60.559943919556645) rotate(0 30.485195097208134 5.1323176556059025)"><path d="M1.98 -0.09 L60.7 -1.62 L59.39 10.76 L1.27 9.51" stroke="none" stroke-width="0" fill="#ffc9c9"></path><path d="M-0.49 1.29 C12.48 1.2, 28.66 -0.04, 62.28 -0.34 M-0.46 -0.91 C21.15 -1.19, 44.03 -0.95, 60.14 0.44 M61.67 0.29 C61.48 3.31, 60.82 5.88, 60.35 9.94 M61.06 -0.5 C61.15 2.92, 61.3 4.92, 61.2 10.52 M59.22 10.16 C47.95 8.25, 29.89 9.37, -0.17 9.92 M60.95 10.2 C40.88 10.27, 21 10.94, -0.88 10.86 M-0.33 10.87 C0.01 8.86, -0.58 6.47, -0.2 -0.61 M0.19 10.58 C-0.35 7.36, -0.12 4.88, -0.38 -0.02" stroke="transparent" stroke-width="1" fill="none"></path></g></svg>