<?xml version="1.0" standalone="no"?>
<!DOCTYPE svg PUBLIC "-//W3C//DTD SVG 1.1//EN" "http://www.w3.org/Graphics/SVG/1.1/DTD/svg11.dtd">
<svg version="1.1" xmlns="http://www.w3.org/2000/svg" viewBox="0 0 451.0870008360789 384.71203049894757" width="1353.2610025082367" height="1154.1360914968427"><!-- svg-source:excalidraw --><metadata></metadata><defs><style class="style-fonts">
      </style></defs><g transform="translate(51.81041083756895 224.92103297131234) rotate(0 -2.4548391513937986 36.10041724612756)" stroke="none"><path d="M0 0 C-4.31 -0.06, -19.88 -0.09, -25.84 -0.38 C-31.8 -0.67, -33.27 -1.74, -35.76 -1.74 C-38.25 -1.74, -39.79 -1.4, -40.8 -0.38 C-41.81 0.64, -41.64 -1.71, -41.81 4.38 C-41.98 10.46, -42.08 29.87, -41.81 36.12 C-41.54 42.37, -41.22 39.86, -40.19 41.88 C-39.15 43.9, -38.95 44.35, -35.59 48.26 C-32.23 52.16, -24.09 61.61, -20.02 65.3 C-15.96 69, -13.97 69.12, -11.2 70.43 C-8.44 71.75, -6.76 72.62, -3.43 73.21 C-0.11 73.79, 5.61 74.06, 8.75 73.94 C11.88 73.82, 13.7 73.15, 15.36 72.47 C17.02 71.79, 16.87 72.21, 18.72 69.83 C20.57 67.46, 23.42 64.85, 26.45 58.23 C29.48 51.61, 35.16 35.72, 36.9 30.12 C38.64 24.51, 37.58 26.29, 36.9 24.6 C36.22 22.9, 34.55 21.47, 32.83 19.94 C31.11 18.41, 28.79 16.77, 26.58 15.44 C24.38 14.1, 23.03 13.18, 19.6 11.94 C16.17 10.7, 10.39 9.74, 6 7.99 C1.62 6.23, -5.7 2.75, -6.7 1.42 C-7.7 0.09, -1.12 0.24, 0 0" stroke="none" stroke-width="0" fill="#a5d8ff" fill-rule="evenodd"></path><path fill="#1a2a27" d="M -0.09,2.02 Q -0.09,2.02 -2.46,1.82 -4.84,1.61 -8.34,1.49 -11.85,1.38 -15.87,1.31 -19.89,1.23 -24.51,0.79 -29.14,0.35 -31.46,0.31 -33.78,0.26 -35.50,0.42 -37.21,0.59 -38.19,1.11 -39.16,1.64 -39.25,3.79 -39.33,5.94 -39.41,7.59 -39.49,9.24 -39.59,11.22 -39.70,13.19 -39.81,15.69 -39.92,18.19 -40.00,21.30 -40.08,24.41 -40.14,27.77 -40.19,31.14 -39.78,34.10 -39.37,37.06 -37.94,40.01 -36.51,42.96 -34.27,46.17 -32.04,49.39 -29.90,52.17 -27.76,54.96 -25.27,57.65 -22.77,60.33 -20.49,62.28 -18.20,64.24 -16.01,65.67 -13.81,67.11 -11.67,68.12 -9.52,69.13 -7.62,69.94 -5.73,70.75 -3.74,71.28 -1.75,71.81 0.01,71.98 1.78,72.15 3.78,72.25 5.77,72.35 8.41,71.99 11.05,71.64 13.01,70.79 14.97,69.94 17.01,67.86 19.05,65.77 20.84,63.40 22.63,61.03 24.67,56.48 26.70,51.93 28.32,48.29 29.94,44.65 31.03,41.78 32.13,38.91 32.98,36.70 33.83,34.49 34.25,33.06 34.68,31.64 34.76,30.49 34.85,29.35 34.80,27.63 34.75,25.91 33.54,24.45 32.33,22.99 31.39,22.16 30.45,21.32 28.55,19.94 26.64,18.56 25.63,17.98 24.61,17.39 23.51,16.81 22.41,16.23 21.27,15.66 20.13,15.08 18.53,14.43 16.93,13.77 15.28,13.26 13.64,12.75 11.89,12.11 10.14,11.47 8.78,11.09 7.42,10.72 6.22,10.25 5.01,9.78 3.85,9.27 2.69,8.75 1.18,7.98 -0.33,7.22 -1.79,6.69 -3.25,6.16 -4.29,5.77 -5.33,5.38 -6.43,4.87 -7.53,4.36 -7.77,4.28 -8.01,4.20 -8.31,3.97 -8.60,3.73 -8.83,3.43 -9.06,3.13 -9.21,2.79 -9.36,2.44 -9.43,2.07 -9.49,1.70 -9.46,1.32 -9.43,0.94 -9.32,0.58 -9.20,0.22 -9.00,-0.09 -8.80,-0.41 -8.53,-0.67 -8.26,-0.93 -7.94,-1.13 -7.61,-1.32 -7.25,-1.43 -6.89,-1.53 -6.51,-1.55 -6.13,-1.57 -5.76,-1.50 -5.39,-1.42 -5.05,-1.27 -4.71,-1.11 -2.67,-1.85 -0.63,-2.59 -0.20,-2.62 0.23,-2.66 0.64,-2.55 1.06,-2.44 1.43,-2.21 1.79,-1.97 2.06,-1.64 2.33,-1.30 2.47,-0.89 2.62,-0.48 2.63,-0.05 2.64,0.37 2.51,0.78 2.38,1.19 2.13,1.54 1.87,1.89 1.52,2.14 1.17,2.39 0.76,2.52 0.34,2.64 -0.08,2.63 -0.51,2.62 -0.92,2.46 -1.32,2.31 -1.66,2.04 -1.99,1.77 -2.22,1.40 -2.45,1.04 -2.56,0.62 -2.66,0.20 -2.62,-0.22 -2.58,-0.65 -2.41,-1.05 -2.24,-1.45 -1.95,-1.77 -1.66,-2.09 -1.28,-2.30 -0.90,-2.51 -0.48,-2.59 -0.05,-2.67 0.36,-2.60 0.79,-2.54 1.18,-2.35 1.56,-2.16 1.87,-1.85 2.17,-1.54 2.36,-1.15 2.55,-0.77 2.61,-0.34 2.66,0.08 2.58,0.51 2.50,0.93 2.28,1.30 2.07,1.68 1.74,1.97 1.42,2.25 1.02,2.42 0.63,2.59 0.63,2.59 0.63,2.59 -3.69,3.40 -8.01,4.20 -8.31,3.97 -8.60,3.73 -8.83,3.43 -9.06,3.13 -9.21,2.79 -9.36,2.44 -9.43,2.07 -9.49,1.70 -9.46,1.32 -9.43,0.94 -9.32,0.58 -9.20,0.22 -9.00,-0.09 -8.80,-0.41 -8.53,-0.67 -8.26,-0.93 -7.94,-1.13 -7.61,-1.32 -7.25,-1.43 -6.89,-1.53 -6.51,-1.55 -6.13,-1.57 -5.76,-1.50 -5.39,-1.43 -5.05,-1.27 -4.71,-1.11 -3.91,-0.66 -3.11,-0.21 -1.48,0.59 0.14,1.41 1.41,2.19 2.68,2.98 3.72,3.71 4.76,4.43 6.72,5.45 8.69,6.47 10.12,6.93 11.54,7.38 13.19,7.91 14.84,8.43 16.67,8.89 18.49,9.34 20.48,9.95 22.47,10.56 23.64,11.19 24.81,11.81 26.00,12.47 27.18,13.14 28.40,13.90 29.61,14.67 30.66,15.50 31.71,16.32 32.67,17.13 33.62,17.94 34.76,19.05 35.90,20.17 36.89,21.51 37.88,22.86 38.28,25.35 38.68,27.84 38.48,28.90 38.28,29.95 37.92,31.33 37.56,32.71 36.93,34.08 36.30,35.44 35.46,37.65 34.61,39.85 33.49,42.79 32.37,45.73 30.76,49.38 29.15,53.03 26.97,57.84 24.79,62.65 22.88,65.17 20.98,67.70 18.55,70.07 16.12,72.44 13.79,73.43 11.46,74.42 8.55,74.82 5.64,75.23 3.53,75.12 1.41,75.02 -0.51,74.71 -2.44,74.40 -4.62,73.81 -6.79,73.23 -8.72,72.39 -10.66,71.55 -12.97,70.46 -15.28,69.36 -17.62,67.83 -19.96,66.30 -22.37,64.26 -24.78,62.21 -27.37,59.44 -29.97,56.67 -32.17,53.85 -34.38,51.03 -36.77,47.64 -39.15,44.24 -40.77,40.90 -42.38,37.56 -42.90,34.35 -43.41,31.14 -43.47,27.77 -43.52,24.40 -43.59,21.29 -43.66,18.18 -43.76,15.66 -43.85,13.15 -43.92,11.13 -43.98,9.11 -43.96,7.33 -43.94,5.55 -43.76,3.98 -43.57,2.41 -42.62,0.56 -41.66,-1.29 -40.68,-1.82 -39.69,-2.36 -38.55,-2.45 -37.41,-2.54 -35.58,-2.60 -33.76,-2.65 -31.32,-2.66 -28.88,-2.66 -24.37,-2.30 -19.87,-1.94 -15.84,-1.97 -11.80,-2.01 -8.23,-2.03 -4.67,-2.05 -2.28,-2.04 0.09,-2.02 0.33,-1.98 0.57,-1.94 0.80,-1.84 1.02,-1.75 1.21,-1.60 1.41,-1.45 1.56,-1.26 1.72,-1.07 1.82,-0.85 1.92,-0.63 1.97,-0.39 2.02,-0.15 2.01,0.09 2.00,0.33 1.93,0.57 1.86,0.80 1.73,1.01 1.61,1.22 1.44,1.40 1.27,1.57 1.06,1.70 0.85,1.83 0.62,1.91 0.39,1.99 0.14,2.00 -0.09,2.02 -0.09,2.02 L -0.09,2.02 Z"></path></g><g transform="translate(57.47459513639399 258.65284032273667) rotate(0 -4.338409477216146 1.9266849541672855)" stroke="none"><path d="M0 0 C-0.39 0, -1.97 -0.5, -2.37 0 C-2.76 0.5, -2.79 2.02, -2.37 3.02 C-1.94 4.02, -0.04 6.13, 0.19 6 C0.42 5.86, -0.01 3.42, -0.98 2.21 C-1.95 1, -4.32 -0.56, -5.63 -1.28 C-6.95 -2.01, -9.8 -2.36, -8.87 -2.14 C-7.93 -1.93, -1.48 -0.36, 0 0" stroke="none" stroke-width="0" fill="#a5d8ff" fill-rule="evenodd"></path><path fill="#1a2a27" d="M 0.63,2.56 Q 0.63,2.56 0.08,2.70 -0.47,2.84 0.61,2.99 1.69,3.14 1.96,3.41 2.22,3.67 2.41,3.99 2.61,4.30 2.72,4.66 2.83,5.01 2.86,5.38 2.88,5.75 2.82,6.11 2.75,6.47 2.60,6.81 2.45,7.15 2.23,7.44 2.00,7.74 1.71,7.97 1.42,8.20 1.09,8.35 0.75,8.50 0.39,8.57 0.03,8.64 -0.33,8.62 -0.70,8.60 -1.06,8.49 -1.41,8.39 -1.73,8.20 -2.04,8.01 -2.31,7.75 -2.57,7.49 -2.71,5.96 -2.85,4.44 -4.46,3.35 -6.07,2.26 -7.33,1.64 -8.58,1.03 -9.06,0.95 -9.53,0.87 -9.87,0.70 -10.20,0.53 -10.49,0.29 -10.77,0.04 -10.99,-0.26 -11.21,-0.56 -11.35,-0.91 -11.48,-1.26 -11.53,-1.64 -11.59,-2.01 -11.55,-2.38 -11.50,-2.76 -11.38,-3.11 -11.25,-3.46 -11.04,-3.78 -10.83,-4.09 -10.55,-4.34 -10.27,-4.59 -9.94,-4.77 -9.61,-4.95 -9.25,-5.05 -8.88,-5.14 -8.51,-5.15 -8.13,-5.15 -7.77,-5.07 -7.40,-4.98 -3.38,-3.78 0.62,-2.58 1.02,-2.41 1.41,-2.24 1.74,-1.96 2.06,-1.67 2.27,-1.30 2.49,-0.93 2.57,-0.50 2.65,-0.08 2.60,0.33 2.54,0.76 2.35,1.15 2.16,1.53 1.86,1.84 1.56,2.15 1.17,2.34 0.79,2.53 0.36,2.59 -0.05,2.65 -0.48,2.57 -0.90,2.50 -1.27,2.29 -1.65,2.08 -1.94,1.76 -2.23,1.44 -2.40,1.04 -2.57,0.65 -2.61,0.22 -2.65,-0.20 -2.54,-0.61 -2.44,-1.03 -2.21,-1.40 -1.98,-1.76 -1.65,-2.03 -1.32,-2.30 -0.91,-2.45 -0.51,-2.60 -0.08,-2.62 0.34,-2.63 0.75,-2.51 1.16,-2.38 1.51,-2.13 1.86,-1.88 2.12,-1.54 2.37,-1.19 2.50,-0.78 2.63,-0.37 2.62,0.05 2.61,0.48 2.46,0.89 2.32,1.29 2.05,1.63 1.78,1.96 1.42,2.20 1.06,2.43 0.64,2.54 0.22,2.64 -0.19,2.61 -0.62,2.58 -0.62,2.58 -0.62,2.58 -5.08,1.72 -9.53,0.87 -9.87,0.70 -10.20,0.53 -10.49,0.29 -10.77,0.04 -10.99,-0.26 -11.21,-0.56 -11.35,-0.91 -11.48,-1.26 -11.53,-1.64 -11.59,-2.01 -11.55,-2.38 -11.50,-2.76 -11.38,-3.11 -11.25,-3.46 -11.04,-3.78 -10.83,-4.09 -10.55,-4.34 -10.27,-4.59 -9.94,-4.77 -9.61,-4.95 -9.25,-5.05 -8.88,-5.14 -8.51,-5.15 -8.13,-5.15 -7.77,-5.07 -7.40,-4.98 -7.14,-4.91 -6.88,-4.83 -5.67,-4.22 -4.46,-3.61 -3.34,-2.95 -2.21,-2.29 -1.06,-1.34 0.09,-0.39 1.15,1.64 2.22,3.67 2.41,3.99 2.61,4.30 2.72,4.66 2.83,5.01 2.86,5.38 2.88,5.75 2.82,6.11 2.75,6.47 2.60,6.81 2.45,7.15 2.23,7.44 2.00,7.74 1.71,7.97 1.42,8.20 1.09,8.35 0.75,8.50 0.39,8.57 0.03,8.64 -0.33,8.62 -0.70,8.60 -1.06,8.49 -1.41,8.39 -1.73,8.20 -2.04,8.01 -2.31,7.75 -2.57,7.49 -3.13,6.73 -3.70,5.98 -4.34,3.80 -4.98,1.62 -4.54,0.44 -4.09,-0.72 -3.17,-1.45 -2.24,-2.17 -1.44,-2.37 -0.63,-2.56 -0.32,-2.60 -0.00,-2.64 0.31,-2.60 0.62,-2.57 0.92,-2.45 1.22,-2.34 1.48,-2.16 1.75,-1.98 1.96,-1.74 2.17,-1.50 2.32,-1.22 2.47,-0.94 2.54,-0.63 2.62,-0.32 2.62,-0.00 2.62,0.31 2.55,0.62 2.47,0.93 2.32,1.21 2.18,1.49 1.96,1.73 1.75,1.97 1.49,2.15 1.23,2.34 0.93,2.45 0.63,2.56 0.63,2.56 L 0.63,2.56 Z"></path></g><g transform="translate(61.74833267109261 116.9404462812472) rotate(0 9.000178667019895 15.375754333537316)" stroke="none"><path d="M0 0 C-5.97 -0.14, -29.47 -1.89, -35.83 -0.81 C-42.19 0.26, -37.87 3, -38.17 6.45 C-38.46 9.9, -38.46 16.54, -37.59 19.9 C-36.72 23.27, -35.61 23.97, -32.92 26.63 C-30.24 29.29, -26 33.23, -21.49 35.86 C-16.97 38.48, -10.39 40.8, -5.84 42.4 C-1.28 44, 2.32 43.8, 5.84 45.45 C9.35 47.09, 13.34 51.14, 15.27 52.28 C17.21 53.42, 15.87 53.42, 17.43 52.28 C19 51.14, 21.68 49.49, 24.66 45.45 C27.63 41.41, 30.61 34.9, 35.26 28.03 C39.91 21.15, 49.06 9.31, 52.55 4.2 C56.03 -0.92, 55.56 -0.71, 56.17 -2.67 C56.77 -4.63, 56.97 -5.79, 56.17 -7.58 C55.37 -9.36, 54.17 -11.34, 51.38 -13.38 C48.59 -15.41, 42.76 -18.43, 39.43 -19.78 C36.1 -21.14, 34.53 -21.24, 31.4 -21.53 C28.26 -21.82, 23.33 -21.99, 20.61 -21.53 C17.89 -21.07, 17.21 -21.04, 15.09 -18.8 C12.97 -16.55, 9.62 -10.13, 7.87 -8.05 C6.12 -5.98, 5.91 -7.69, 4.6 -6.35 C3.29 -5.01, 0.77 -1.06, 0 0" stroke="none" stroke-width="0" fill="#ffec99" fill-rule="evenodd"></path><path fill="#1a2a27" d="M 0,2.11 Q 0,2.11 -1.66,2.11 -3.32,2.11 -5.00,2.11 -6.67,2.10 -8.36,2.10 -10.04,2.10 -12.02,2.03 -14.01,1.96 -15.82,1.95 -17.64,1.94 -19.47,1.77 -21.30,1.60 -23.36,1.29 -25.42,0.98 -26.71,0.96 -28.01,0.94 -29.88,1.03 -31.74,1.12 -33.04,1.22 -34.33,1.32 -34.68,3.25 -35.02,5.18 -35.22,7.61 -35.43,10.04 -35.56,11.90 -35.70,13.76 -35.61,15.40 -35.52,17.05 -34.99,18.49 -34.46,19.93 -33.58,21.49 -32.71,23.05 -31.49,24.41 -30.26,25.76 -28.68,27.49 -27.09,29.21 -25.24,30.75 -23.39,32.28 -21.66,33.48 -19.94,34.68 -17.69,35.75 -15.43,36.82 -13.49,37.67 -11.55,38.53 -9.75,39.23 -7.94,39.94 -6.01,40.45 -4.07,40.96 -2.19,41.54 -0.30,42.13 0.94,42.40 2.19,42.67 3.38,42.90 4.57,43.14 5.70,43.53 6.83,43.93 7.80,44.37 8.78,44.81 10.41,45.75 12.04,46.68 13.10,47.33 14.15,47.99 15.17,48.64 16.18,49.29 17.12,48.69 18.05,48.09 18.79,47.29 19.54,46.49 20.40,45.60 21.27,44.70 22.59,42.99 23.91,41.27 24.78,40.02 25.64,38.76 26.68,37.26 27.73,35.76 28.75,34.19 29.77,32.63 30.84,31.00 31.91,29.37 33.21,27.67 34.51,25.98 35.62,24.36 36.74,22.74 38.50,20.60 40.26,18.47 41.82,16.36 43.39,14.25 44.91,12.10 46.44,9.94 47.87,8.04 49.29,6.13 50.42,4.40 51.54,2.67 52.49,0.95 53.44,-0.77 53.70,-1.89 53.96,-3.02 54.00,-4.21 54.04,-5.40 53.80,-6.46 53.57,-7.53 52.63,-8.26 51.69,-8.99 50.96,-9.82 50.22,-10.65 48.71,-11.55 47.20,-12.45 46.13,-13.22 45.07,-13.99 43.87,-14.61 42.67,-15.23 41.41,-15.87 40.14,-16.52 39.07,-16.89 37.99,-17.25 36.88,-17.57 35.76,-17.89 34.39,-18.21 33.03,-18.53 31.87,-18.63 30.71,-18.74 29.48,-18.78 28.25,-18.83 27.05,-18.84 25.86,-18.85 24.35,-18.89 22.85,-18.93 21.05,-18.40 19.25,-17.88 18.12,-17.02 16.99,-16.16 16.03,-14.79 15.07,-13.42 14.12,-12.10 13.17,-10.79 12.41,-9.65 11.66,-8.52 10.63,-7.10 9.61,-5.68 8.65,-4.88 7.69,-4.09 4.98,-1.18 2.27,1.73 1.93,2.04 1.60,2.36 1.18,2.56 0.76,2.75 0.30,2.80 -0.15,2.85 -0.60,2.75 -1.05,2.65 -1.45,2.41 -1.85,2.17 -2.15,1.82 -2.44,1.47 -2.62,1.04 -2.79,0.61 -2.81,0.15 -2.84,-0.30 -2.71,-0.75 -2.59,-1.20 -2.33,-1.58 -2.07,-1.96 -1.70,-2.24 -1.33,-2.52 -0.89,-2.67 -0.46,-2.82 0.00,-2.82 0.46,-2.82 0.90,-2.67 1.33,-2.52 1.70,-2.24 2.07,-1.96 2.33,-1.58 2.59,-1.19 2.71,-0.75 2.84,-0.30 2.81,0.15 2.79,0.61 2.62,1.04 2.44,1.47 2.14,1.82 1.84,2.17 1.45,2.41 1.05,2.65 0.60,2.75 0.15,2.85 -0.30,2.80 -0.76,2.75 -1.18,2.55 -1.60,2.36 -1.94,2.04 -2.27,1.72 -2.49,1.32 -2.70,0.91 -2.78,0.45 -2.85,-0.00 -2.78,-0.45 -2.70,-0.91 -2.49,-1.32 -2.27,-1.73 -2.27,-1.73 -2.27,-1.73 -0.09,-4.98 2.08,-8.23 3.81,-9.26 5.54,-10.29 6.24,-11.34 6.95,-12.39 7.65,-13.30 8.36,-14.21 9.40,-15.48 10.44,-16.76 11.08,-17.61 11.72,-18.47 12.46,-19.33 13.20,-20.18 14.23,-21.04 15.26,-21.89 16.37,-22.39 17.48,-22.90 18.87,-23.34 20.26,-23.79 21.56,-23.94 22.87,-24.09 24.42,-24.11 25.96,-24.13 27.22,-24.09 28.47,-24.05 29.86,-23.98 31.25,-23.91 32.68,-23.75 34.11,-23.59 35.69,-23.27 37.27,-22.96 38.52,-22.57 39.77,-22.18 41.11,-21.68 42.45,-21.18 43.72,-20.56 44.99,-19.94 46.61,-19.17 48.23,-18.40 50.08,-17.08 51.93,-15.76 53.52,-14.24 55.10,-12.72 55.93,-11.85 56.76,-10.98 57.41,-9.77 58.05,-8.57 58.06,-6.72 58.06,-4.87 57.60,-3.40 57.13,-1.93 56.56,-0.64 55.99,0.63 54.98,2.43 53.97,4.22 52.82,6.05 51.67,7.87 50.32,9.77 48.97,11.67 47.49,13.90 46.02,16.13 44.50,18.36 42.98,20.59 41.44,22.69 39.90,24.79 38.84,26.53 37.78,28.28 36.73,29.94 35.67,31.61 34.76,33.31 33.85,35.00 32.97,36.71 32.09,38.42 31.22,40.05 30.34,41.68 29.46,43.24 28.58,44.79 27.82,45.84 27.05,46.89 26.31,47.83 25.57,48.78 24.77,49.64 23.97,50.50 22.93,51.67 21.90,52.84 20.48,53.85 19.07,54.87 17.03,54.99 15.00,55.10 13.83,54.43 12.66,53.75 11.72,52.90 10.78,52.05 9.93,51.32 9.07,50.59 7.87,49.64 6.67,48.69 5.12,47.74 3.57,46.79 2.38,46.37 1.19,45.95 -0.02,45.47 -1.23,44.98 -3.01,44.37 -4.79,43.76 -6.92,43.22 -9.06,42.68 -10.87,41.92 -12.67,41.16 -14.68,40.33 -16.68,39.49 -19.16,38.36 -21.64,37.24 -23.52,36.03 -25.40,34.82 -27.48,33.23 -29.56,31.65 -31.28,30.01 -33.00,28.37 -34.59,26.77 -36.18,25.18 -37.37,23.34 -38.56,21.50 -39.33,19.50 -40.11,17.50 -40.33,15.59 -40.54,13.69 -40.62,11.75 -40.70,9.80 -40.66,8.20 -40.61,6.60 -40.41,5.18 -40.21,3.75 -39.80,2.24 -39.39,0.73 -38.75,-0.50 -38.10,-1.74 -36.22,-2.69 -34.33,-3.64 -32.99,-3.52 -31.65,-3.39 -29.68,-3.18 -27.71,-2.96 -26.36,-2.79 -25.00,-2.61 -22.96,-2.44 -20.93,-2.27 -19.28,-2.10 -17.64,-1.94 -15.82,-1.95 -14.01,-1.96 -12.02,-2.03 -10.04,-2.10 -8.36,-2.10 -6.67,-2.10 -5.00,-2.11 -3.32,-2.11 -1.66,-2.11 0,-2.11 0.25,-2.08 0.50,-2.05 0.74,-1.96 0.98,-1.87 1.19,-1.72 1.40,-1.58 1.57,-1.39 1.74,-1.20 1.85,-0.97 1.97,-0.75 2.03,-0.50 2.10,-0.25 2.10,0.00 2.09,0.25 2.03,0.50 1.97,0.75 1.85,0.97 1.74,1.20 1.57,1.39 1.40,1.58 1.19,1.72 0.98,1.87 0.74,1.96 0.50,2.05 0.25,2.08 -0.00,2.11 -0.00,2.11 L 0,2.11 Z"></path></g><g transform="translate(69.98861601353178 128.35504413558738) rotate(0 3.675522066411702 -0.7464220032234152)" stroke="none"><path d="M0 0 C1.23 0.14, 6.13 1.17, 7.35 0.85 C8.58 0.53, 7.55 -1.38, 7.35 -1.91 C7.15 -2.45, 6.19 -2.73, 6.13 -2.34 C6.07 -1.96, 8.01 0, 6.98 0.39 C5.96 0.78, 1.16 0.07, 0 0" stroke="none" stroke-width="0" fill="#ffec99" fill-rule="evenodd"></path><path fill="#1a2a27" d="M 0.24,-2.58 Q 0.24,-2.58 1.53,-2.47 2.82,-2.35 3.93,-2.20 5.04,-2.04 4.51,-1.18 3.97,-0.33 3.79,-0.65 3.61,-0.97 3.51,-1.32 3.41,-1.68 3.40,-2.04 3.39,-2.41 3.47,-2.77 3.54,-3.13 3.70,-3.46 3.86,-3.79 4.10,-4.07 4.33,-4.36 4.63,-4.57 4.93,-4.79 5.26,-4.93 5.60,-5.08 5.97,-5.13 6.33,-5.19 6.70,-5.15 7.06,-5.12 7.41,-5.00 7.76,-4.88 8.07,-4.68 8.38,-4.48 8.63,-4.22 8.88,-3.95 8.90,-2.18 8.91,-0.41 9.22,-1.01 9.53,-1.62 9.68,-1.27 9.84,-0.93 9.91,-0.55 9.98,-0.18 9.96,0.19 9.94,0.57 9.83,0.93 9.72,1.30 9.52,1.62 9.33,1.95 9.06,2.22 8.79,2.49 8.47,2.69 8.14,2.88 7.78,3.00 7.42,3.11 7.04,3.14 6.66,3.16 6.29,3.10 5.91,3.03 5.56,2.87 5.22,2.72 4.92,2.49 4.62,2.25 4.38,1.96 4.15,1.66 2.07,2.17 -0.00,2.68 -0.43,2.61 -0.86,2.54 -1.24,2.33 -1.63,2.13 -1.92,1.81 -2.22,1.50 -2.40,1.10 -2.59,0.71 -2.63,0.27 -2.68,-0.15 -2.58,-0.57 -2.49,-1.00 -2.26,-1.37 -2.04,-1.74 -1.70,-2.02 -1.37,-2.30 -0.97,-2.46 -0.56,-2.62 -0.13,-2.64 0.29,-2.66 0.71,-2.55 1.13,-2.43 1.49,-2.18 1.85,-1.94 2.11,-1.59 2.37,-1.25 2.51,-0.83 2.65,-0.42 2.65,0.00 2.64,0.44 2.50,0.85 2.36,1.26 2.10,1.61 1.84,1.95 1.48,2.19 1.12,2.44 0.70,2.55 0.28,2.67 -0.15,2.64 -0.58,2.62 -0.98,2.45 -1.39,2.29 -1.72,2.01 -2.05,1.73 -2.27,1.35 -2.49,0.98 -2.59,0.56 -2.68,0.13 -2.63,-0.29 -2.58,-0.72 -2.40,-1.12 -2.21,-1.51 -1.91,-1.82 -1.61,-2.14 -1.23,-2.34 -0.84,-2.54 -0.42,-2.61 0.00,-2.68 0.00,-2.68 0.00,-2.68 4.76,-2.15 9.52,-1.62 9.68,-1.27 9.84,-0.93 9.91,-0.55 9.98,-0.18 9.96,0.19 9.94,0.57 9.83,0.93 9.72,1.30 9.52,1.62 9.33,1.95 9.06,2.22 8.79,2.49 8.47,2.69 8.14,2.88 7.78,3.00 7.42,3.11 7.04,3.14 6.66,3.16 6.29,3.10 5.91,3.03 5.56,2.87 5.22,2.72 4.92,2.49 4.62,2.25 4.38,1.96 4.15,1.66 4.06,1.39 3.97,1.13 3.60,-0.02 3.22,-1.17 3.41,-2.23 3.60,-3.28 3.79,-1.80 3.97,-0.33 3.79,-0.65 3.61,-0.97 3.51,-1.32 3.41,-1.68 3.40,-2.04 3.39,-2.41 3.47,-2.77 3.54,-3.13 3.70,-3.46 3.86,-3.79 4.10,-4.07 4.33,-4.36 4.63,-4.57 4.93,-4.79 5.26,-4.93 5.60,-5.08 5.97,-5.13 6.33,-5.19 6.70,-5.15 7.06,-5.12 7.41,-5.00 7.76,-4.88 8.07,-4.68 8.38,-4.48 8.63,-4.22 8.88,-3.95 9.05,-3.83 9.21,-3.70 9.66,-1.80 10.12,0.10 9.57,1.17 9.02,2.23 7.32,2.85 5.63,3.48 3.98,3.16 2.33,2.84 1.04,2.71 -0.24,2.58 -0.55,2.52 -0.85,2.45 -1.13,2.31 -1.42,2.17 -1.66,1.97 -1.90,1.77 -2.08,1.52 -2.27,1.26 -2.38,0.97 -2.50,0.68 -2.55,0.37 -2.60,0.06 -2.57,-0.24 -2.54,-0.55 -2.43,-0.85 -2.33,-1.14 -2.16,-1.41 -1.99,-1.67 -1.76,-1.88 -1.53,-2.10 -1.25,-2.25 -0.98,-2.40 -0.68,-2.48 -0.38,-2.57 -0.06,-2.58 0.24,-2.58 0.24,-2.58 L 0.24,-2.58 Z"></path></g><g transform="translate(162.55572307025818 220.6472954366145) rotate(0 43.39487342924792 -35.08991814429146)" stroke="none"><path d="M0 0 C0 -4.7, -0.65 -21.07, 0 -28.2 C0.65 -35.33, 2.25 -38.76, 3.89 -42.79 C5.53 -46.83, 6.5 -48.59, 9.82 -52.41 C13.15 -56.24, 20.21 -62.64, 23.86 -65.74 C27.51 -68.84, 29.69 -69.89, 31.74 -71.01 C33.79 -72.13, 33.56 -71.9, 36.15 -72.49 C38.74 -73.08, 42.8 -74.2, 47.29 -74.55 C51.77 -74.89, 59.09 -75.05, 63.06 -74.55 C67.02 -74.04, 67.82 -73.82, 71.05 -71.51 C74.29 -69.19, 79.86 -64.11, 82.48 -60.66 C85.1 -57.22, 86.07 -53.47, 86.79 -50.85 C87.51 -48.23, 90.68 -46.59, 86.79 -44.93 C82.9 -43.28, 69.55 -42.64, 63.43 -40.92 C57.31 -39.2, 54.52 -37.19, 50.06 -34.6 C45.6 -32.02, 38.84 -31.29, 36.69 -25.41 C34.53 -19.53, 37.26 -3.97, 37.11 0.66 C36.97 5.29, 36.64 1.74, 35.82 2.36 C35 2.98, 36.53 4.03, 32.2 4.37 C27.86 4.7, 14.4 4.94, 9.81 4.37 C5.22 3.79, 5.77 2.21, 4.63 0.92 C3.5 -0.38, 3.76 -3.27, 2.99 -3.42 C2.21 -3.57, 0.5 -0.57, 0 0" stroke="none" stroke-width="0" fill="#b2f2bb" fill-rule="evenodd"></path><path fill="#1a2a27" d="M -2.13,0 Q -2.13,0 -2.16,-1.40 -2.20,-2.81 -2.23,-4.20 -2.26,-5.59 -2.29,-6.94 -2.32,-8.29 -2.32,-9.83 -2.32,-11.37 -2.30,-13.00 -2.28,-14.63 -2.20,-16.59 -2.12,-18.55 -2.09,-20.35 -2.06,-22.16 -2.05,-23.89 -2.04,-25.63 -1.82,-27.47 -1.60,-29.30 -1.18,-30.87 -0.76,-32.45 -0.51,-33.73 -0.27,-35.02 -0.02,-36.29 0.23,-37.55 0.48,-38.77 0.73,-39.98 1.39,-42.22 2.05,-44.47 2.54,-45.51 3.03,-46.54 3.54,-47.60 4.05,-48.66 5.18,-50.19 6.31,-51.73 8.04,-53.46 9.76,-55.18 12.05,-57.39 14.35,-59.61 16.77,-61.74 19.20,-63.86 21.58,-65.70 23.95,-67.53 25.96,-68.89 27.97,-70.26 30.19,-71.30 32.41,-72.34 34.35,-72.99 36.30,-73.64 38.08,-74.15 39.87,-74.67 41.93,-75.07 43.99,-75.46 45.89,-75.68 47.79,-75.90 49.58,-76.02 51.36,-76.14 53.09,-76.20 54.81,-76.27 56.21,-76.36 57.61,-76.44 59.18,-76.49 60.74,-76.53 62.20,-76.41 63.67,-76.30 65.11,-75.90 66.55,-75.50 68.08,-74.94 69.61,-74.38 71.08,-73.59 72.55,-72.80 73.85,-71.96 75.15,-71.12 76.35,-69.99 77.55,-68.85 78.59,-67.99 79.63,-67.14 80.53,-66.20 81.44,-65.26 82.26,-64.45 83.07,-63.64 84.05,-62.06 85.02,-60.48 85.69,-59.47 86.36,-58.45 86.90,-57.46 87.44,-56.47 88.18,-54.72 88.91,-52.97 89.14,-51.92 89.36,-50.88 89.51,-49.34 89.67,-47.80 89.75,-46.72 89.83,-45.64 89.02,-44.01 88.21,-42.38 86.96,-41.85 85.71,-41.32 84.65,-41.14 83.59,-40.95 81.93,-40.69 80.27,-40.42 78.80,-40.26 77.33,-40.10 76.15,-40.03 74.96,-39.96 73.12,-39.64 71.27,-39.32 70.14,-39.09 69.02,-38.86 67.90,-38.72 66.79,-38.57 65.29,-38.05 63.79,-37.52 62.16,-36.84 60.52,-36.16 59.30,-35.75 58.07,-35.33 56.61,-34.54 55.14,-33.75 54.07,-33.21 52.99,-32.67 51.70,-31.77 50.40,-30.87 49.18,-29.93 47.96,-29.00 46.86,-28.40 45.76,-27.80 44.45,-26.92 43.14,-26.05 42.13,-25.55 41.12,-25.04 39.98,-24.00 38.83,-22.95 39.36,-21.57 39.89,-20.18 39.74,-18.35 39.59,-16.52 39.42,-14.47 39.24,-12.42 39.16,-10.58 39.07,-8.75 39.22,-7.63 39.37,-6.52 39.54,-5.10 39.72,-3.69 39.84,-2.27 39.95,-0.85 39.82,0.44 39.68,1.74 38.23,3.49 36.77,5.25 35.75,5.85 34.74,6.44 33.30,6.78 31.87,7.11 30.51,7.19 29.16,7.27 27.93,7.29 26.71,7.32 25.52,7.32 24.33,7.32 23.15,7.32 21.97,7.32 20.45,7.36 18.93,7.41 17.14,7.42 15.34,7.44 13.83,7.47 12.32,7.50 10.69,7.37 9.06,7.23 7.78,6.70 6.50,6.17 5.35,5.63 4.21,5.09 3.08,3.86 1.95,2.62 1.06,0.98 0.17,-0.66 -0.15,-1.63 -0.48,-2.61 -0.50,-3.03 -0.52,-3.46 -0.43,-3.88 -0.34,-4.29 -0.16,-4.68 0.01,-5.06 0.28,-5.39 0.55,-5.72 0.89,-5.98 1.23,-6.23 1.63,-6.40 2.02,-6.57 2.44,-6.63 2.86,-6.70 3.29,-6.67 3.71,-6.63 4.11,-6.49 4.52,-6.36 4.88,-6.13 5.24,-5.90 5.53,-5.59 5.83,-5.29 6.04,-4.92 6.25,-4.55 6.37,-4.14 6.49,-3.73 4.34,-0.82 2.20,2.08 1.81,2.38 1.42,2.68 0.95,2.83 0.49,2.99 0.00,2.99 -0.48,2.99 -0.95,2.83 -1.42,2.68 -1.81,2.38 -2.20,2.08 -2.47,1.68 -2.75,1.27 -2.88,0.80 -3.01,0.32 -2.99,-0.16 -2.96,-0.65 -2.78,-1.10 -2.60,-1.56 -2.28,-1.93 -1.96,-2.31 -1.54,-2.56 -1.12,-2.81 -0.64,-2.92 -0.16,-3.03 0.32,-2.97 0.81,-2.92 1.25,-2.71 1.70,-2.51 2.05,-2.17 2.41,-1.83 2.64,-1.40 2.87,-0.97 2.95,-0.48 3.03,-0.00 2.95,0.48 2.87,0.96 2.64,1.40 2.41,1.83 2.06,2.17 1.70,2.51 1.25,2.71 0.81,2.92 0.32,2.97 -0.16,3.03 -0.64,2.92 -1.12,2.82 -1.54,2.56 -1.96,2.31 -2.28,1.93 -2.60,1.56 -2.78,1.10 -2.96,0.65 -2.99,0.16 -3.01,-0.32 -2.88,-0.80 -2.75,-1.27 -2.47,-1.68 -2.20,-2.08 -2.20,-2.08 -2.20,-2.08 -1.34,-2.34 -0.48,-2.61 -0.50,-3.03 -0.52,-3.46 -0.43,-3.88 -0.35,-4.29 -0.16,-4.68 0.01,-5.06 0.28,-5.39 0.55,-5.72 0.89,-5.98 1.23,-6.23 1.63,-6.40 2.02,-6.56 2.44,-6.63 2.86,-6.70 3.29,-6.67 3.71,-6.63 4.11,-6.49 4.52,-6.36 4.88,-6.13 5.24,-5.90 5.53,-5.59 5.83,-5.29 6.04,-4.92 6.25,-4.55 6.37,-4.14 6.49,-3.73 5.98,-4.26 5.47,-4.80 6.36,-3.06 7.25,-1.32 8.58,-0.29 9.91,0.73 11.12,0.98 12.32,1.22 13.83,1.25 15.34,1.28 17.13,1.30 18.92,1.31 20.43,1.35 21.95,1.39 23.10,1.37 24.26,1.36 25.40,1.33 26.54,1.31 27.66,1.27 28.77,1.23 30.33,1.13 31.89,1.04 33.07,0.10 34.25,-0.82 34.34,-2.16 34.43,-3.49 34.46,-4.76 34.48,-6.03 34.39,-7.39 34.29,-8.75 34.21,-10.59 34.12,-12.42 33.95,-14.47 33.77,-16.52 33.63,-18.37 33.49,-20.21 33.44,-21.58 33.39,-22.94 33.63,-24.84 33.87,-26.75 34.77,-27.78 35.66,-28.81 37.10,-29.82 38.53,-30.82 39.72,-31.50 40.91,-32.18 42.65,-33.19 44.39,-34.20 45.70,-35.14 47.01,-36.07 48.58,-37.09 50.16,-38.11 52.06,-39.14 53.95,-40.18 55.86,-40.96 57.77,-41.74 59.62,-42.49 61.46,-43.25 62.70,-43.75 63.95,-44.26 65.80,-44.58 67.66,-44.91 68.86,-45.20 70.07,-45.50 71.27,-45.76 72.48,-46.02 73.54,-46.19 74.60,-46.35 76.43,-46.55 78.27,-46.75 79.59,-46.80 80.92,-46.85 82.38,-47.21 83.83,-47.57 83.83,-48.79 83.83,-50.01 83.55,-51.37 83.26,-52.74 82.70,-54.27 82.13,-55.81 81.51,-56.86 80.88,-57.92 80.17,-59.07 79.45,-60.22 78.02,-61.89 76.60,-63.56 75.44,-64.56 74.28,-65.56 73.45,-66.45 72.61,-67.33 71.48,-68.11 70.34,-68.89 69.21,-69.56 68.08,-70.23 66.63,-70.77 65.18,-71.30 64.16,-71.71 63.14,-72.11 61.95,-72.33 60.75,-72.54 59.20,-72.57 57.65,-72.60 56.26,-72.66 54.88,-72.71 53.19,-72.72 51.51,-72.73 49.80,-72.70 48.10,-72.66 46.36,-72.53 44.62,-72.40 42.65,-71.98 40.69,-71.56 38.96,-71.14 37.23,-70.73 35.47,-70.18 33.70,-69.64 31.74,-68.67 29.77,-67.70 27.90,-66.32 26.03,-64.94 23.83,-63.09 21.63,-61.24 19.40,-59.06 17.17,-56.88 15.11,-54.57 13.05,-52.26 11.74,-50.57 10.43,-48.88 9.60,-47.58 8.76,-46.28 7.75,-44.42 6.74,-42.57 6.03,-40.72 5.33,-38.87 5.00,-37.69 4.67,-36.50 4.34,-35.28 4.00,-34.06 3.64,-32.64 3.28,-31.23 2.86,-30.01 2.44,-28.79 2.24,-27.21 2.04,-25.63 2.05,-23.89 2.06,-22.16 2.09,-20.35 2.12,-18.55 2.20,-16.59 2.28,-14.63 2.30,-13.00 2.32,-11.37 2.32,-9.83 2.32,-8.29 2.29,-6.94 2.26,-5.59 2.23,-4.20 2.20,-2.81 2.16,-1.40 2.13,0 2.10,0.25 2.07,0.51 1.97,0.75 1.88,0.99 1.74,1.20 1.59,1.41 1.40,1.58 1.21,1.75 0.98,1.87 0.75,1.99 0.50,2.05 0.25,2.11 -0.00,2.11 -0.25,2.11 -0.50,2.05 -0.75,1.99 -0.98,1.87 -1.21,1.75 -1.40,1.58 -1.59,1.41 -1.74,1.20 -1.88,0.99 -1.98,0.75 -2.07,0.51 -2.10,0.25 -2.13,-0.00 -2.13,-0.00 L -2.13,0 Z"></path></g><g transform="translate(187.74005535228434 179.77462776554876) rotate(0 1.7407531194296553 3.295574404121453)" stroke="none"><path d="M0 0 C0.17 0.81, 0.42 3.79, 1 4.89 C1.58 5.99, 3.07 6.88, 3.48 6.59 C3.89 6.3, 4.06 4.23, 3.48 3.13 C2.9 2.03, 0.58 0.52, 0 0" stroke="none" stroke-width="0" fill="#b2f2bb" fill-rule="evenodd"></path><path fill="#1a2a27" d="M 2.52,-0.51 Q 2.52,-0.51 2.80,0.88 3.07,2.28 3.71,3.23 4.36,4.17 2.69,4.53 1.02,4.89 -0.40,3.37 -1.84,1.86 -2.08,1.51 -2.33,1.17 -2.46,0.77 -2.59,0.36 -2.58,-0.05 -2.57,-0.47 -2.42,-0.87 -2.28,-1.27 -2.02,-1.60 -1.75,-1.93 -1.40,-2.16 -1.04,-2.39 -0.63,-2.50 -0.22,-2.60 0.19,-2.57 0.61,-2.54 1.00,-2.37 1.39,-2.21 1.71,-1.93 2.03,-1.65 2.24,-1.28 2.45,-0.91 2.53,-0.50 2.61,-0.08 2.56,0.33 2.50,0.75 2.32,1.13 2.13,1.51 1.83,1.81 1.53,2.11 1.15,2.30 0.78,2.49 0.36,2.55 -0.05,2.61 -0.47,2.53 -0.88,2.46 -1.25,2.25 -1.62,2.04 -1.91,1.73 -2.19,1.42 -2.36,1.03 -2.53,0.64 -2.57,0.22 -2.61,-0.19 -2.51,-0.61 -2.41,-1.02 -2.18,-1.38 -1.95,-1.73 -1.62,-2.00 -1.30,-2.27 -0.90,-2.42 -0.50,-2.56 -0.08,-2.58 0.34,-2.59 0.74,-2.47 1.15,-2.35 1.49,-2.10 1.84,-1.86 1.84,-1.86 1.84,-1.86 4.03,0.47 6.23,2.80 6.28,4.04 6.33,5.27 5.80,6.62 5.27,7.96 3.07,8.14 0.88,8.32 -0.10,6.93 -1.10,5.55 -1.51,4.44 -1.92,3.33 -2.22,1.92 -2.52,0.51 -2.54,0.20 -2.57,-0.10 -2.52,-0.40 -2.47,-0.71 -2.35,-1.00 -2.23,-1.28 -2.04,-1.53 -1.85,-1.78 -1.61,-1.97 -1.37,-2.17 -1.09,-2.30 -0.81,-2.44 -0.51,-2.50 -0.20,-2.56 0.10,-2.55 0.41,-2.54 0.70,-2.45 1.00,-2.37 1.27,-2.21 1.54,-2.06 1.77,-1.84 1.99,-1.63 2.16,-1.36 2.32,-1.10 2.42,-0.81 2.52,-0.51 2.52,-0.51 L 2.52,-0.51 Z"></path></g><g transform="translate(126.10769413309936 354.6529496614339) rotate(0 24.381322329100442 3.0530546196805517)" stroke="none"><path d="M0 0 C4.54 0, 22.13 -0.19, 27.23 0 C32.33 0.19, 27.99 -0.82, 30.59 1.16 C33.19 3.14, 39.85 8.75, 42.8 11.9 C45.75 15.05, 47.05 18.97, 48.28 20.06 C49.52 21.15, 49.35 20.3, 50.23 18.46 C51.1 16.62, 53.08 13.23, 53.54 9.02 C53.99 4.81, 53.61 -3.61, 52.96 -6.8 C52.3 -10, 51 -9.2, 49.61 -10.14 C48.23 -11.09, 47.68 -11.84, 44.65 -12.48 C41.61 -13.11, 39.32 -13.71, 31.39 -13.95 C23.45 -14.2, 3.05 -14.93, -2.97 -13.95 C-9 -12.98, -4.47 -10.56, -4.77 -8.1 C-5.07 -5.64, -4.92 -0.84, -4.77 0.84 C-4.63 2.51, -4.72 2.07, -3.92 1.93 C-3.13 1.8, -0.65 0.32, 0 0" stroke="none" stroke-width="0" fill="#ffc9c9" fill-rule="evenodd"></path><path fill="#1a2a27" d="M 0,-1.94 Q 0,-1.94 2.41,-1.85 4.83,-1.77 6.31,-1.83 7.79,-1.89 9.72,-1.86 11.65,-1.83 13.14,-1.89 14.62,-1.94 16.01,-2.00 17.40,-2.05 18.62,-2.12 19.85,-2.18 21.97,-2.06 24.09,-1.95 26.14,-1.57 28.18,-1.19 30.59,0.08 33.01,1.35 35.09,3.01 37.18,4.68 39.10,6.45 41.02,8.23 42.61,9.99 44.20,11.76 45.30,13.17 46.41,14.59 47.70,15.83 49.00,17.08 48.93,15.81 48.85,14.54 49.39,13.03 49.92,11.53 50.27,9.49 50.61,7.46 50.71,5.98 50.80,4.49 50.87,2.88 50.95,1.28 51.00,-0.37 51.06,-2.02 50.90,-3.24 50.74,-4.46 49.81,-5.75 48.88,-7.05 47.15,-8.10 45.41,-9.16 43.85,-9.66 42.30,-10.16 40.45,-10.46 38.61,-10.76 36.44,-11.18 34.28,-11.59 32.47,-11.74 30.66,-11.88 28.00,-12.01 25.34,-12.14 22.85,-12.22 20.35,-12.30 18.02,-12.35 15.69,-12.40 13.42,-12.43 11.16,-12.47 8.93,-12.49 6.70,-12.52 5.08,-12.43 3.46,-12.35 2.32,-12.25 1.17,-12.14 -0.40,-11.98 -1.98,-11.81 -1.94,-10.35 -1.90,-8.89 -1.93,-7.16 -1.96,-5.42 -1.92,-4.32 -1.87,-3.21 -1.80,-1.92 -1.73,-0.63 -3.07,-0.89 -4.42,-1.14 -2.68,-1.84 -0.94,-2.55 -0.51,-2.63 -0.07,-2.71 0.35,-2.66 0.79,-2.60 1.18,-2.40 1.58,-2.21 1.89,-1.90 2.20,-1.59 2.40,-1.19 2.59,-0.80 2.65,-0.36 2.71,0.06 2.63,0.50 2.55,0.93 2.33,1.31 2.12,1.70 1.79,1.99 1.46,2.29 1.06,2.46 0.66,2.63 0.22,2.67 -0.21,2.71 -0.64,2.60 -1.07,2.50 -1.44,2.26 -1.81,2.02 -2.09,1.68 -2.36,1.34 -2.51,0.92 -2.67,0.51 -2.68,0.07 -2.69,-0.36 -2.56,-0.78 -2.43,-1.20 -2.18,-1.56 -1.92,-1.92 -1.56,-2.17 -1.21,-2.43 -0.79,-2.56 -0.37,-2.69 0.06,-2.68 0.50,-2.67 0.92,-2.52 1.33,-2.37 1.67,-2.09 2.02,-1.81 2.26,-1.44 2.49,-1.07 2.60,-0.65 2.71,-0.22 2.67,0.21 2.64,0.65 2.46,1.05 2.29,1.46 2.00,1.79 1.70,2.11 1.32,2.33 0.94,2.55 0.94,2.55 0.94,2.55 -1.49,3.39 -3.93,4.23 -5.72,3.09 -7.50,1.95 -7.63,0.22 -7.77,-1.49 -7.67,-2.92 -7.57,-4.34 -7.45,-5.95 -7.33,-7.55 -7.19,-8.78 -7.06,-10.01 -6.58,-11.80 -6.11,-13.59 -5.33,-14.48 -4.56,-15.37 -3.30,-15.73 -2.04,-16.08 -0.43,-15.92 1.17,-15.75 2.32,-15.64 3.47,-15.54 5.08,-15.46 6.70,-15.37 8.94,-15.40 11.17,-15.42 13.43,-15.44 15.70,-15.47 18.04,-15.50 20.38,-15.53 22.90,-15.56 25.41,-15.60 28.16,-15.62 30.92,-15.63 32.87,-15.52 34.82,-15.41 36.93,-15.22 39.05,-15.03 41.30,-14.91 43.55,-14.78 45.65,-14.28 47.76,-13.79 49.33,-12.96 50.91,-12.14 51.84,-11.29 52.77,-10.43 53.80,-9.09 54.84,-7.74 55.24,-6.40 55.65,-5.06 55.81,-3.53 55.98,-2.00 56.01,-0.32 56.05,1.35 56.08,3.01 56.10,4.67 56.09,6.32 56.08,7.96 55.93,9.63 55.77,11.29 55.05,13.25 54.33,15.20 53.50,16.75 52.67,18.31 52.08,19.49 51.49,20.67 50.49,21.29 49.49,21.90 47.81,21.06 46.12,20.23 45.57,19.28 45.02,18.33 44.41,17.40 43.80,16.46 42.91,15.11 42.03,13.76 40.49,12.14 38.96,10.52 37.08,8.88 35.20,7.25 33.31,5.85 31.42,4.45 29.44,3.48 27.47,2.52 25.77,2.23 24.08,1.95 21.96,2.06 19.85,2.18 18.62,2.12 17.40,2.05 16.01,2.00 14.62,1.94 13.14,1.89 11.65,1.83 9.72,1.86 7.79,1.89 6.31,1.83 4.83,1.77 2.41,1.85 0,1.94 -0.23,1.91 -0.46,1.88 -0.68,1.80 -0.90,1.72 -1.09,1.58 -1.28,1.45 -1.44,1.27 -1.59,1.10 -1.70,0.89 -1.81,0.68 -1.87,0.46 -1.92,0.23 -1.92,-0.00 -1.92,-0.23 -1.87,-0.46 -1.81,-0.68 -1.70,-0.89 -1.59,-1.10 -1.44,-1.27 -1.28,-1.45 -1.09,-1.58 -0.90,-1.72 -0.68,-1.80 -0.46,-1.88 -0.23,-1.91 0.00,-1.94 0.00,-1.94 L 0,-1.94 Z"></path></g><g transform="translate(160.05507462624792 353.3271748398247) rotate(0 -0.7976206243826027 -1.4712866922732246)" stroke="none"><path d="M0 0 C-0.27 -0.49, -1.6 -2.94, -1.6 -2.94 C-1.6 -2.94, -0.27 -0.49, 0 0" stroke="none" stroke-width="0" fill="#ffc9c9" fill-rule="evenodd"></path><path fill="#1a2a27" d="M -2.05,1.11 Q -2.05,1.11 -2.10,1.14 -2.15,1.16 -2.26,0.89 -2.37,0.61 -2.40,0.32 -2.44,0.03 -2.41,-0.26 -2.38,-0.55 -2.28,-0.83 -2.18,-1.10 -2.01,-1.35 -1.85,-1.59 -1.63,-1.79 -1.41,-1.99 -1.15,-2.13 -0.89,-2.27 -0.61,-2.35 -0.32,-2.42 -0.03,-2.43 0.26,-2.43 0.55,-2.36 0.83,-2.30 1.10,-2.16 1.36,-2.03 1.58,-1.84 1.81,-1.64 1.98,-1.40 2.15,-1.16 2.28,-0.79 2.41,-0.41 2.41,-0.02 2.42,0.37 2.29,0.75 2.17,1.12 1.93,1.44 1.70,1.76 1.37,1.98 1.04,2.21 0.66,2.32 0.28,2.43 -0.10,2.41 -0.50,2.39 -0.87,2.25 -1.24,2.11 -1.54,1.85 -1.85,1.60 -2.05,1.26 -2.26,0.92 -2.35,0.54 -2.44,0.15 -2.40,-0.23 -2.36,-0.63 -2.20,-0.99 -2.03,-1.35 -1.76,-1.64 -1.50,-1.93 -1.15,-2.12 -0.80,-2.31 -0.41,-2.38 -0.02,-2.44 0.36,-2.38 0.76,-2.32 1.11,-2.14 1.46,-1.96 1.73,-1.67 2.01,-1.39 2.18,-1.03 2.35,-0.67 2.40,-0.28 2.44,0.11 2.36,0.49 2.28,0.88 2.08,1.22 1.88,1.56 1.58,1.82 1.28,2.08 0.91,2.23 0.54,2.38 0.15,2.41 -0.24,2.43 -0.62,2.33 -1.00,2.23 -1.33,2.01 -1.66,1.79 -1.91,1.48 -2.15,1.16 -2.15,1.16 -2.15,1.16 -2.26,0.89 -2.37,0.61 -2.40,0.32 -2.44,0.03 -2.41,-0.26 -2.38,-0.55 -2.28,-0.83 -2.18,-1.10 -2.01,-1.35 -1.85,-1.59 -1.63,-1.79 -1.41,-1.99 -1.15,-2.13 -0.89,-2.27 -0.61,-2.35 -0.32,-2.42 -0.03,-2.43 0.26,-2.43 0.55,-2.36 0.83,-2.30 1.10,-2.16 1.36,-2.03 1.58,-1.84 1.81,-1.64 1.98,-1.40 2.15,-1.16 2.10,-1.14 2.05,-1.11 2.16,-0.85 2.26,-0.59 2.30,-0.31 2.34,-0.03 2.31,0.24 2.28,0.52 2.18,0.79 2.08,1.06 1.93,1.29 1.77,1.52 1.56,1.71 1.35,1.90 1.10,2.04 0.85,2.17 0.58,2.24 0.31,2.32 0.03,2.32 -0.25,2.32 -0.52,2.26 -0.80,2.20 -1.05,2.07 -1.30,1.94 -1.51,1.76 -1.73,1.57 -1.89,1.34 -2.05,1.11 -2.05,1.11 L -2.05,1.11 Z"></path></g><g transform="translate(184.27471709905467 259.4396822900326) rotate(0 39.9672604758199 16.553322620210565)" stroke="none"><path d="M0 0 C2.99 0.93, 12.35 4.63, 17.95 5.56 C23.55 6.48, 28.57 6.9, 33.6 5.56 C38.62 4.21, 44.56 -0.29, 48.09 -2.51 C51.63 -4.73, 52.68 -5.88, 54.82 -7.78 C56.97 -9.69, 58.56 -10.75, 60.96 -13.95 C63.36 -17.14, 66.5 -28.98, 69.22 -26.96 C71.94 -24.94, 75.49 -9.56, 77.28 -1.82 C79.06 5.92, 79.61 11.58, 79.93 19.49 C80.25 27.39, 80.56 39.94, 79.2 45.62 C77.84 51.3, 74.94 51.71, 71.78 53.58 C68.62 55.44, 66.06 55.74, 60.24 56.82 C54.41 57.9, 43.73 59.62, 36.85 60.06 C29.96 60.51, 23.2 60.57, 18.93 59.48 C14.66 58.39, 13.19 55.37, 11.24 53.53 C9.28 51.7, 8.13 50.53, 7.18 48.47 C6.24 46.41, 5.85 48.8, 5.59 41.17 C5.32 33.54, 5.69 9.35, 5.59 2.67 C5.49 -4.02, 5.94 1.52, 5.01 1.07 C4.08 0.63, 0.83 0.18, 0 0" stroke="none" stroke-width="0" fill="#1971c2" fill-rule="evenodd"></path><path fill="#1a2a27" d="M 0.49,-1.65 Q 0.49,-1.65 3.01,-0.85 5.53,-0.04 8.25,0.78 10.96,1.60 13.11,2.35 15.26,3.10 17.02,3.35 18.78,3.59 20.48,3.66 22.18,3.74 24.19,3.81 26.20,3.89 28.32,3.95 30.43,4.01 32.09,3.49 33.76,2.97 35.41,2.18 37.05,1.39 39.07,0.44 41.09,-0.49 42.90,-1.44 44.70,-2.38 46.39,-3.50 48.07,-4.62 49.76,-5.84 51.46,-7.06 53.24,-8.64 55.02,-10.23 56.43,-11.59 57.84,-12.96 58.90,-14.44 59.95,-15.91 60.99,-17.52 62.03,-19.12 63.06,-20.77 64.09,-22.43 64.74,-23.64 65.39,-24.86 67.55,-26.41 69.71,-27.97 71.06,-26.34 72.41,-24.71 73.04,-22.88 73.67,-21.04 74.31,-18.57 74.96,-16.09 75.61,-13.79 76.26,-11.50 76.98,-8.83 77.71,-6.17 78.27,-2.91 78.83,0.33 79.30,3.74 79.78,7.15 80.22,10.65 80.67,14.14 80.85,17.73 81.04,21.31 81.11,24.09 81.19,26.87 81.21,29.03 81.24,31.18 81.30,33.06 81.37,34.94 81.43,36.71 81.49,38.48 81.26,40.62 81.02,42.75 80.45,44.51 79.87,46.26 79.12,47.73 78.38,49.19 77.59,50.36 76.81,51.53 75.73,52.63 74.64,53.73 72.68,54.68 70.73,55.63 67.79,56.45 64.86,57.28 61.53,57.86 58.19,58.43 54.73,58.91 51.28,59.39 48.15,59.78 45.02,60.18 42.75,60.54 40.48,60.91 38.16,61.07 35.85,61.22 33.90,61.33 31.95,61.43 29.84,61.45 27.74,61.47 25.87,61.52 24.01,61.57 22.45,61.49 20.89,61.41 19.61,61.11 18.32,60.80 17.25,60.38 16.18,59.96 15.07,59.22 13.96,58.47 12.77,57.56 11.58,56.65 10.51,55.73 9.43,54.82 8.57,53.90 7.70,52.99 6.64,51.84 5.58,50.70 4.77,48.72 3.96,46.73 3.66,45.24 3.36,43.75 3.26,42.02 3.15,40.29 3.14,38.60 3.13,36.91 3.11,35.53 3.08,34.14 3.05,32.88 3.03,31.63 3.04,30.12 3.06,28.61 3.04,27.30 3.03,25.99 3.01,24.77 2.99,23.54 2.92,21.69 2.85,19.83 2.79,18.14 2.73,16.44 2.68,15.09 2.62,13.74 2.54,12.54 2.46,11.33 2.41,9.93 2.36,8.53 2.31,7.33 2.26,6.12 2.24,4.79 2.21,3.46 0.57,3.08 -1.07,2.70 -1.47,2.46 -1.87,2.22 -2.18,1.86 -2.48,1.50 -2.66,1.06 -2.83,0.63 -2.86,0.16 -2.89,-0.30 -2.76,-0.76 -2.64,-1.21 -2.37,-1.60 -2.11,-1.99 -1.74,-2.28 -1.36,-2.56 -0.92,-2.71 -0.47,-2.86 -0.00,-2.86 0.46,-2.87 0.91,-2.72 1.35,-2.57 1.73,-2.28 2.10,-2.00 2.37,-1.61 2.63,-1.22 2.76,-0.77 2.88,-0.32 2.86,0.14 2.84,0.61 2.66,1.05 2.49,1.49 2.19,1.85 1.88,2.21 1.48,2.45 1.08,2.69 0.62,2.80 0.16,2.90 -0.30,2.85 -0.77,2.80 -1.19,2.60 -1.62,2.40 -1.96,2.08 -2.31,1.76 -2.53,1.34 -2.75,0.93 -2.83,0.46 -2.90,0.00 -2.83,-0.45 -2.75,-0.92 -2.53,-1.33 -2.31,-1.75 -1.97,-2.07 -1.63,-2.40 -1.20,-2.60 -0.78,-2.80 -0.31,-2.85 0.15,-2.90 0.61,-2.80 1.07,-2.70 1.07,-2.70 1.07,-2.70 4.37,-1.20 7.67,0.29 8.32,1.85 8.96,3.42 8.93,4.77 8.91,6.12 8.86,7.33 8.81,8.53 8.76,9.93 8.71,11.33 8.63,12.54 8.55,13.74 8.49,15.09 8.44,16.44 8.38,18.14 8.32,19.83 8.25,21.69 8.18,23.54 8.16,24.76 8.14,25.99 8.13,27.29 8.12,28.60 8.15,30.09 8.17,31.59 8.16,32.82 8.15,34.06 8.17,35.40 8.19,36.75 8.28,38.31 8.38,39.88 8.52,41.26 8.66,42.65 8.94,43.91 9.22,45.17 9.75,46.85 10.28,48.52 11.39,49.95 12.50,51.38 13.42,52.25 14.35,53.13 16.17,54.69 18.00,56.25 19.64,57.13 21.28,58.02 22.64,58.26 23.99,58.51 25.84,58.54 27.70,58.56 29.77,58.52 31.84,58.48 33.74,58.44 35.64,58.40 37.81,58.22 39.99,58.04 42.30,57.62 44.61,57.20 47.71,56.73 50.80,56.26 54.18,55.70 57.56,55.14 60.67,54.48 63.79,53.81 66.39,52.92 69.00,52.03 70.43,51.35 71.86,50.66 72.78,49.90 73.70,49.14 74.48,48.27 75.25,47.40 76.01,46.23 76.77,45.06 77.37,43.74 77.98,42.42 78.16,40.45 78.35,38.49 78.40,36.73 78.45,34.97 78.48,33.10 78.51,31.22 78.47,29.09 78.42,26.96 78.33,24.21 78.23,21.47 78.02,18.00 77.80,14.53 77.31,11.06 76.82,7.59 76.29,4.25 75.76,0.90 75.15,-2.16 74.54,-5.23 73.70,-7.82 72.87,-10.40 72.05,-12.67 71.23,-14.94 70.40,-17.23 69.58,-19.52 68.95,-21.27 68.32,-23.01 67.51,-21.90 66.69,-20.79 65.63,-19.12 64.56,-17.44 63.45,-15.79 62.33,-14.14 61.07,-12.51 59.81,-10.89 58.34,-9.53 56.87,-8.16 55.00,-6.48 53.13,-4.79 51.40,-3.50 49.68,-2.22 47.88,-1.00 46.08,0.21 44.24,1.20 42.40,2.18 40.38,3.20 38.37,4.22 36.49,5.07 34.61,5.92 32.52,6.47 30.44,7.02 28.28,7.04 26.12,7.05 24.03,7.02 21.94,6.99 20.12,6.80 18.29,6.62 16.31,6.26 14.33,5.90 12.22,5.23 10.11,4.55 7.36,3.80 4.61,3.05 2.05,2.35 -0.49,1.65 -0.68,1.57 -0.87,1.49 -1.04,1.36 -1.20,1.23 -1.33,1.07 -1.46,0.91 -1.55,0.72 -1.64,0.53 -1.68,0.33 -1.72,0.12 -1.71,-0.08 -1.70,-0.29 -1.64,-0.49 -1.58,-0.69 -1.48,-0.87 -1.37,-1.04 -1.23,-1.19 -1.08,-1.34 -0.90,-1.45 -0.73,-1.56 -0.53,-1.63 -0.33,-1.69 -0.12,-1.71 0.08,-1.72 0.28,-1.69 0.49,-1.65 0.49,-1.65 L 0.49,-1.65 Z"></path></g><g transform="translate(231.64691499312926 290.17502297147803) rotate(0 0.6494140894466227 -3.8803165510503277)" stroke="none"><path d="M0 0 C0.72 0, 3.65 0.59, 4.3 0 C4.94 -0.59, 4.5 -2.52, 3.86 -3.52 C3.22 -4.52, 1.22 -5.99, 0.45 -5.98 C-0.32 -5.96, -0.47 -3.34, -0.77 -3.42 C-1.07 -3.5, -0.98 -5.74, -1.35 -6.47 C-1.72 -7.19, -3.22 -8.84, -3 -7.76 C-2.77 -6.68, -0.5 -1.29, 0 0" stroke="none" stroke-width="0" fill="#1971c2" fill-rule="evenodd"></path><path fill="#1a2a27" d="M 0,-2.63 Q 0,-2.63 1.11,-2.65 2.22,-2.68 0.99,-3.04 -0.23,-3.40 0.88,-3.19 2.01,-2.99 2.24,-3.03 2.47,-3.08 2.35,-2.70 2.22,-2.33 2.00,-2.00 1.79,-1.66 1.50,-1.39 1.22,-1.12 0.87,-0.93 0.53,-0.73 0.15,-0.62 -0.22,-0.52 -0.62,-0.50 -1.01,-0.49 -1.40,-0.57 -1.79,-0.66 -2.14,-0.83 -2.50,-1.00 -2.80,-1.25 -3.10,-1.50 -3.34,-1.82 -3.57,-2.14 -3.73,-2.50 -3.88,-2.87 -3.94,-3.26 -4.00,-3.65 -3.96,-4.04 -3.93,-4.44 -4.48,-4.80 -5.03,-5.17 -5.29,-5.49 -5.54,-5.80 -5.71,-6.17 -5.89,-6.54 -5.97,-6.94 -6.05,-7.34 -6.03,-7.75 -6.01,-8.16 -5.89,-8.55 -5.78,-8.94 -5.57,-9.29 -5.37,-9.64 -5.09,-9.93 -4.80,-10.23 -4.46,-10.44 -4.11,-10.66 -3.72,-10.78 -3.34,-10.91 -2.93,-10.94 -2.52,-10.97 -2.12,-10.91 -1.72,-10.84 -1.35,-10.68 -0.97,-10.52 -0.65,-10.27 -0.32,-10.02 1.19,-5.49 2.72,-0.96 2.80,-0.50 2.88,-0.04 2.82,0.42 2.75,0.88 2.53,1.30 2.32,1.71 1.99,2.04 1.65,2.36 1.23,2.57 0.81,2.77 0.34,2.83 -0.11,2.88 -0.57,2.79 -1.03,2.69 -1.43,2.46 -1.83,2.22 -2.14,1.87 -2.45,1.52 -2.63,1.09 -2.81,0.66 -2.84,0.19 -2.87,-0.27 -2.75,-0.72 -2.63,-1.17 -2.38,-1.56 -2.12,-1.95 -1.75,-2.24 -1.38,-2.53 -0.94,-2.68 -0.50,-2.84 -0.03,-2.85 0.42,-2.85 0.87,-2.71 1.31,-2.57 1.69,-2.29 2.06,-2.01 2.33,-1.63 2.60,-1.24 2.73,-0.80 2.86,-0.35 2.84,0.11 2.83,0.58 2.66,1.01 2.49,1.45 2.19,1.81 1.90,2.17 1.50,2.42 1.10,2.66 0.65,2.77 0.19,2.88 -0.26,2.83 -0.73,2.79 -1.16,2.60 -1.58,2.41 -1.93,2.09 -2.27,1.78 -2.50,1.37 -2.72,0.96 -2.72,0.96 -2.72,0.96 -3.87,-2.10 -5.03,-5.17 -5.29,-5.49 -5.54,-5.80 -5.71,-6.17 -5.89,-6.54 -5.97,-6.94 -6.05,-7.34 -6.03,-7.75 -6.01,-8.16 -5.90,-8.55 -5.78,-8.94 -5.57,-9.29 -5.37,-9.64 -5.09,-9.93 -4.80,-10.23 -4.46,-10.44 -4.11,-10.66 -3.72,-10.78 -3.34,-10.91 -2.93,-10.94 -2.52,-10.97 -2.12,-10.91 -1.72,-10.84 -1.35,-10.68 -0.97,-10.52 -0.65,-10.27 -0.32,-10.02 -0.14,-9.92 0.04,-9.82 1.05,-8.28 2.06,-6.74 2.26,-4.91 2.47,-3.08 2.35,-2.70 2.22,-2.33 2.00,-2.00 1.79,-1.66 1.50,-1.39 1.22,-1.12 0.87,-0.93 0.53,-0.73 0.15,-0.62 -0.22,-0.52 -0.62,-0.50 -1.01,-0.49 -1.40,-0.57 -1.78,-0.66 -2.14,-0.83 -2.50,-1.00 -2.80,-1.25 -3.10,-1.50 -3.34,-1.82 -3.57,-2.14 -3.73,-2.50 -3.88,-2.87 -3.94,-3.26 -4.00,-3.65 -3.96,-4.04 -3.93,-4.44 -3.76,-4.98 -3.59,-5.53 -2.42,-6.98 -1.25,-8.44 0.39,-8.66 2.05,-8.89 3.12,-8.25 4.20,-7.62 5.11,-6.43 6.03,-5.24 6.45,-4.07 6.88,-2.90 6.91,-1.76 6.94,-0.63 6.33,0.43 5.71,1.50 3.96,2.09 2.22,2.68 1.11,2.65 0,2.63 -0.31,2.59 -0.63,2.55 -0.92,2.44 -1.22,2.33 -1.48,2.15 -1.74,1.97 -1.95,1.73 -2.16,1.49 -2.31,1.21 -2.46,0.93 -2.54,0.62 -2.61,0.31 -2.61,-0.00 -2.61,-0.31 -2.54,-0.62 -2.46,-0.93 -2.31,-1.21 -2.16,-1.49 -1.95,-1.73 -1.74,-1.97 -1.48,-2.15 -1.22,-2.33 -0.92,-2.44 -0.63,-2.55 -0.31,-2.59 0.00,-2.63 0.00,-2.63 L 0,-2.63 Z"></path></g><g transform="translate(295.057754631546 78.81094683862739) rotate(0 2.363220566160635 27.480186241398314)" stroke="none"><path d="M0 0 C-4.2 0, -20.49 -1.14, -25.21 0 C-29.92 1.14, -27.64 4.74, -28.27 6.84 C-28.91 8.94, -29.01 8.01, -29.01 12.58 C-29.01 17.15, -30.23 28.87, -28.28 34.27 C-26.33 39.66, -21.36 41.82, -17.31 44.94 C-13.25 48.05, -8.67 50.72, -3.97 52.94 C0.74 55.15, 6.93 57.35, 10.92 58.23 C14.91 59.11, 17.82 58.67, 19.96 58.23 C22.11 57.78, 22.12 57.7, 23.79 55.55 C25.46 53.41, 28.4 48.38, 29.96 45.36 C31.53 42.34, 32.63 40.88, 33.16 37.45 C33.69 34.02, 34.2 28.75, 33.16 24.76 C32.11 20.78, 29.34 16.82, 26.9 13.54 C24.45 10.27, 20.83 7.08, 18.47 5.12 C16.12 3.16, 14.86 2.71, 12.78 1.8 C10.69 0.89, 9.68 0.49, 5.97 -0.36 C2.26 -1.2, -8.49 -3.33, -9.48 -3.27 C-10.47 -3.21, -1.58 -0.54, 0 0" stroke="none" stroke-width="0" fill="#fcfaf6" fill-rule="evenodd"></path><path fill="#1e1e1e" d="M 0,2.38 Q 0,2.38 -1.47,2.38 -2.95,2.39 -4.85,2.31 -6.75,2.23 -8.23,2.24 -9.71,2.26 -11.09,2.28 -12.48,2.31 -14.04,2.31 -15.60,2.30 -16.93,2.33 -18.26,2.36 -19.59,2.38 -20.91,2.41 -21.99,2.38 -23.06,2.36 -23.95,4.01 -24.84,5.66 -25.46,7.66 -26.08,9.66 -26.41,12.13 -26.74,14.61 -26.93,16.94 -27.11,19.28 -27.21,22.32 -27.31,25.35 -27.17,27.83 -27.03,30.30 -25.87,32.53 -24.71,34.77 -22.33,37.35 -19.95,39.93 -17.17,42.32 -14.39,44.71 -11.22,46.72 -8.04,48.73 -5.06,50.26 -2.08,51.78 0.79,52.89 3.67,53.99 5.89,54.85 8.11,55.71 10.19,56.04 12.27,56.37 13.84,56.43 15.41,56.48 16.69,56.45 17.96,56.42 19.25,55.76 20.54,55.10 21.94,53.38 23.35,51.65 24.89,49.61 26.43,47.57 27.44,45.80 28.45,44.03 29.43,41.98 30.41,39.94 30.90,38.41 31.39,36.88 31.51,35.66 31.63,34.44 31.66,33.00 31.70,31.56 31.68,30.27 31.65,28.98 31.45,27.91 31.24,26.84 30.82,25.53 30.40,24.21 29.88,23.02 29.37,21.82 28.70,20.76 28.03,19.70 27.39,18.76 26.76,17.82 25.56,16.31 24.36,14.80 22.67,13.07 20.99,11.33 19.99,10.47 18.99,9.60 18.20,8.77 17.41,7.93 16.22,7.18 15.02,6.42 13.61,5.66 12.20,4.91 10.59,4.54 8.98,4.17 7.17,3.49 5.36,2.81 3.82,2.32 2.29,1.83 0.35,1.52 -1.57,1.21 -2.75,0.93 -3.93,0.64 -4.96,0.35 -6.00,0.05 -7.28,-0.01 -8.57,-0.08 -8.87,-0.07 -9.17,-0.06 -9.55,-0.13 -9.93,-0.19 -10.28,-0.34 -10.64,-0.49 -10.94,-0.73 -11.25,-0.96 -11.49,-1.26 -11.73,-1.56 -11.90,-1.91 -12.06,-2.25 -12.13,-2.63 -12.21,-3.01 -12.19,-3.39 -12.17,-3.78 -12.06,-4.14 -11.96,-4.51 -11.76,-4.84 -11.57,-5.18 -11.30,-5.45 -11.03,-5.73 -10.71,-5.93 -10.38,-6.14 -10.01,-6.26 -9.65,-6.38 -9.27,-6.40 -8.88,-6.43 -3.98,-4.49 0.92,-2.55 1.30,-2.34 1.68,-2.12 1.98,-1.80 2.27,-1.47 2.45,-1.07 2.63,-0.67 2.67,-0.23 2.70,0.20 2.60,0.63 2.50,1.05 2.26,1.42 2.03,1.80 1.69,2.07 1.35,2.35 0.94,2.51 0.52,2.66 0.08,2.67 -0.34,2.69 -0.77,2.56 -1.19,2.44 -1.55,2.18 -1.90,1.93 -2.16,1.57 -2.42,1.22 -2.55,0.80 -2.68,0.38 -2.68,-0.05 -2.67,-0.49 -2.52,-0.90 -2.37,-1.32 -2.10,-1.66 -1.82,-2.01 -1.45,-2.24 -1.08,-2.48 -0.66,-2.59 -0.23,-2.70 0.20,-2.67 0.63,-2.64 1.04,-2.46 1.44,-2.29 1.77,-2.00 2.10,-1.71 2.32,-1.33 2.54,-0.95 2.62,-0.52 2.71,-0.09 2.65,0.34 2.60,0.78 2.40,1.17 2.21,1.57 1.90,1.88 1.59,2.19 1.20,2.39 0.81,2.59 0.37,2.65 -0.05,2.71 -0.48,2.63 -0.92,2.55 -0.92,2.55 -0.92,2.55 -5.04,1.24 -9.17,-0.06 -9.55,-0.13 -9.93,-0.19 -10.28,-0.34 -10.64,-0.49 -10.94,-0.73 -11.25,-0.96 -11.49,-1.26 -11.73,-1.56 -11.90,-1.90 -12.06,-2.25 -12.13,-2.63 -12.21,-3.01 -12.19,-3.39 -12.17,-3.78 -12.06,-4.14 -11.96,-4.51 -11.76,-4.84 -11.57,-5.18 -11.30,-5.45 -11.03,-5.73 -10.71,-5.93 -10.38,-6.14 -10.02,-6.26 -9.65,-6.38 -9.27,-6.40 -8.88,-6.43 -8.58,-6.41 -8.28,-6.38 -7.08,-6.25 -5.88,-6.11 -4.23,-5.67 -2.58,-5.24 -0.48,-4.81 1.61,-4.38 3.80,-3.87 5.99,-3.37 7.43,-2.71 8.88,-2.05 10.63,-1.54 12.37,-1.04 13.81,-0.59 15.24,-0.14 16.34,0.57 17.44,1.29 18.35,2.04 19.26,2.79 20.80,4.25 22.33,5.71 23.51,6.71 24.69,7.71 25.71,8.74 26.73,9.77 27.50,10.66 28.28,11.54 29.55,13.44 30.82,15.34 31.39,16.36 31.95,17.37 32.73,18.76 33.51,20.15 34.04,21.56 34.57,22.97 35.03,24.65 35.50,26.32 35.59,27.71 35.68,29.11 35.57,30.46 35.45,31.81 35.28,33.45 35.11,35.08 34.73,36.53 34.35,37.97 33.68,39.56 33.01,41.15 32.02,43.31 31.04,45.46 29.98,47.42 28.93,49.38 27.39,51.56 25.85,53.74 23.97,55.96 22.08,58.19 20.02,59.01 17.96,59.82 16.54,59.66 15.12,59.50 13.48,59.25 11.84,59.00 9.50,58.60 7.16,58.21 4.93,57.36 2.71,56.51 -0.30,55.36 -3.31,54.21 -6.41,52.63 -9.51,51.06 -12.86,48.95 -16.20,46.84 -19.13,44.36 -22.06,41.87 -24.69,39.00 -27.32,36.13 -28.70,33.38 -30.08,30.62 -30.32,27.96 -30.56,25.30 -30.57,22.21 -30.58,19.13 -30.55,16.68 -30.52,14.24 -30.34,11.43 -30.16,8.62 -29.58,5.97 -28.99,3.32 -27.85,1.35 -26.70,-0.62 -25.20,-1.49 -23.70,-2.36 -22.31,-2.38 -20.91,-2.41 -19.59,-2.38 -18.26,-2.36 -16.93,-2.33 -15.60,-2.30 -14.04,-2.31 -12.48,-2.31 -11.09,-2.28 -9.71,-2.26 -8.23,-2.24 -6.75,-2.23 -4.85,-2.31 -2.95,-2.39 -1.47,-2.38 0,-2.38 0.28,-2.35 0.57,-2.31 0.84,-2.21 1.10,-2.11 1.34,-1.95 1.58,-1.78 1.77,-1.57 1.96,-1.35 2.09,-1.10 2.23,-0.84 2.30,-0.56 2.37,-0.28 2.37,0.00 2.37,0.28 2.30,0.56 2.23,0.84 2.09,1.10 1.96,1.35 1.77,1.57 1.58,1.78 1.34,1.95 1.10,2.11 0.84,2.21 0.57,2.31 0.28,2.35 -0.00,2.38 -0.00,2.38 L 0,2.38 Z"></path></g><g transform="translate(304.18727718360094 113.21103092939939) rotate(0 -2.457533815665329 -5.356992571866613)" stroke="none"><path fill="#1e1e1e" d="M -2.56,0 Q -2.56,0 -2.57,-1.31 -2.57,-2.63 -3.28,-3.83 -4.00,-5.03 -5.39,-6.84 -6.79,-8.65 -7.07,-9.01 -7.35,-9.36 -7.50,-9.79 -7.65,-10.21 -7.66,-10.66 -7.67,-11.11 -7.53,-11.54 -7.39,-11.97 -7.13,-12.33 -6.86,-12.70 -6.49,-12.96 -6.12,-13.22 -5.69,-13.35 -5.26,-13.47 -4.81,-13.46 -4.36,-13.44 -3.94,-13.28 -3.52,-13.12 -3.17,-12.84 -2.82,-12.55 -2.58,-12.17 -2.34,-11.79 -2.24,-11.35 -2.13,-10.91 -2.17,-10.46 -2.21,-10.01 -2.39,-9.60 -2.58,-9.19 -2.88,-8.85 -3.19,-8.52 -3.58,-8.30 -3.97,-8.08 -4.42,-8.00 -4.86,-7.92 -5.31,-7.99 -5.75,-8.05 -6.16,-8.26 -6.56,-8.46 -6.87,-8.78 -7.19,-9.11 -7.39,-9.51 -7.58,-9.92 -7.64,-10.36 -7.69,-10.81 -7.61,-11.25 -7.52,-11.70 -7.29,-12.09 -7.06,-12.48 -6.73,-12.77 -6.39,-13.07 -5.97,-13.25 -5.56,-13.42 -5.11,-13.45 -4.66,-13.48 -4.22,-13.37 -3.78,-13.26 -3.41,-13.01 -3.03,-12.76 -3.03,-12.76 -3.03,-12.77 -1.26,-10.37 0.50,-7.97 1.22,-6.72 1.94,-5.46 2.25,-4.08 2.57,-2.69 2.57,-1.34 2.56,0 2.53,0.30 2.49,0.61 2.38,0.90 2.27,1.19 2.09,1.44 1.92,1.70 1.69,1.90 1.45,2.11 1.18,2.25 0.91,2.40 0.61,2.47 0.30,2.55 -0.00,2.55 -0.30,2.55 -0.61,2.47 -0.91,2.40 -1.18,2.25 -1.45,2.11 -1.69,1.90 -1.92,1.70 -2.09,1.44 -2.27,1.19 -2.38,0.90 -2.49,0.61 -2.53,0.30 -2.56,-0.00 -2.56,-0.00 L -2.56,0 Z"></path></g><g transform="translate(316.99771113061047 216.42745118734183) rotate(0 61.41678807746007 10.681649172475318)" stroke="none"><path d="M0 0 C2.52 0.09, 9.29 0.01, 15.15 0.55 C21.01 1.09, 27.81 2.77, 35.14 3.22 C42.47 3.66, 54.59 3.44, 59.15 3.22 C63.71 3, 60.44 3.07, 62.51 1.9 C64.58 0.73, 69.32 -1.9, 71.55 -3.8 C73.79 -5.71, 74.15 -6.71, 75.91 -9.51 C77.68 -12.3, 79.86 -15.39, 82.15 -20.58 C84.45 -25.77, 88.67 -40.89, 89.71 -40.65 C90.74 -40.41, 88.61 -28.38, 88.38 -19.15 C88.16 -9.92, 88.11 8.12, 88.38 14.72 C88.66 21.33, 88.87 17.38, 90.01 20.48 C91.14 23.59, 92.46 28.69, 95.19 33.36 C97.91 38.03, 102.98 45.36, 106.35 48.51 C109.72 51.67, 112.43 51.66, 115.39 52.29 C118.35 52.92, 129.45 55.3, 124.09 52.29 C118.73 49.27, 94.37 38.5, 83.25 34.21 C72.13 29.92, 64.24 27.93, 57.35 26.55 C50.46 25.18, 45.74 24.91, 41.91 25.97 C38.07 27.03, 36.79 29.97, 34.35 32.91 C31.91 35.85, 29.75 38.77, 27.28 43.62 C24.81 48.47, 20.93 65.78, 19.55 62.02 C18.16 58.25, 19.69 28.92, 18.97 21.02 C18.24 13.13, 16.81 16.7, 15.19 14.64 C13.57 12.59, 10.99 10.17, 9.25 8.7 C7.51 7.23, 6.51 6.56, 4.76 5.81 C3.01 5.06, -0.46 5.18, -1.26 4.21 C-2.05 3.25, -0.21 0.7, 0 0" stroke="none" stroke-width="0" fill="#fa5252" fill-rule="evenodd"></path><path fill="#1e1e1e" d="M 0.08,-1.57 Q 0.08,-1.57 3.16,-1.38 6.25,-1.18 8.81,-1.09 11.37,-1.00 14.56,-0.69 17.74,-0.38 20.76,0.00 23.77,0.39 27.09,0.82 30.40,1.24 33.80,1.42 37.21,1.60 40.32,1.68 43.42,1.76 46.01,1.80 48.60,1.83 50.66,1.83 52.73,1.84 54.57,1.79 56.41,1.74 58.00,1.33 59.59,0.92 60.87,0.37 62.16,-0.16 63.63,-0.91 65.09,-1.65 66.63,-2.65 68.17,-3.65 69.22,-4.72 70.26,-5.79 71.48,-7.16 72.69,-8.53 73.78,-10.04 74.86,-11.54 75.98,-13.39 77.09,-15.23 78.17,-17.00 79.24,-18.76 80.23,-20.75 81.22,-22.73 82.00,-24.54 82.78,-26.36 83.47,-28.11 84.15,-29.86 84.90,-31.83 85.64,-33.80 86.23,-35.39 86.82,-36.98 87.17,-38.45 87.51,-39.92 87.53,-40.30 87.56,-40.68 87.64,-40.92 87.72,-41.17 87.85,-41.39 87.99,-41.61 88.18,-41.79 88.36,-41.97 88.58,-42.10 88.81,-42.23 89.05,-42.30 89.30,-42.37 89.56,-42.38 89.82,-42.40 90.07,-42.35 90.32,-42.29 90.56,-42.19 90.79,-42.08 90.99,-41.91 91.19,-41.75 91.35,-41.55 91.50,-41.34 91.61,-41.10 91.71,-40.87 91.75,-40.61 91.79,-40.36 91.78,-40.10 91.76,-39.84 91.89,-38.18 92.03,-36.53 92.04,-35.03 92.04,-33.53 91.85,-31.81 91.67,-30.09 91.52,-28.22 91.37,-26.35 91.01,-24.19 90.66,-22.02 90.48,-19.93 90.30,-17.84 90.19,-15.30 90.09,-12.75 90.04,-10.70 90.00,-8.64 89.95,-6.50 89.90,-4.36 89.87,-2.19 89.84,-0.01 89.82,2.56 89.80,5.14 89.79,7.89 89.77,10.65 90.22,13.36 90.66,16.08 91.55,18.84 92.44,21.60 93.59,24.84 94.73,28.08 96.45,31.16 98.18,34.24 99.76,36.83 101.34,39.43 103.06,41.79 104.79,44.15 106.40,45.44 108.00,46.72 109.39,47.54 110.78,48.36 112.29,49.03 113.79,49.70 115.95,49.92 118.11,50.14 119.81,50.07 121.51,50.00 122.62,49.89 123.73,49.78 123.76,49.77 123.78,49.77 124.08,49.81 124.38,49.85 124.66,49.96 124.95,50.07 125.19,50.24 125.44,50.42 125.64,50.64 125.84,50.87 125.98,51.14 126.12,51.41 126.19,51.70 126.26,52.00 126.25,52.30 126.25,52.60 126.18,52.90 126.10,53.19 125.96,53.46 125.82,53.72 125.61,53.95 125.41,54.17 125.16,54.34 124.91,54.51 124.63,54.62 124.34,54.72 124.04,54.76 123.74,54.79 121.72,54.18 119.71,53.57 118.47,52.81 117.24,52.05 115.99,51.42 114.74,50.80 112.91,49.74 111.08,48.67 108.71,47.46 106.34,46.24 103.70,45.01 101.05,43.77 98.64,42.57 96.22,41.37 93.99,40.44 91.76,39.50 89.82,38.71 87.89,37.92 86.34,37.31 84.79,36.71 83.01,36.25 81.23,35.79 79.39,35.20 77.56,34.60 76.05,34.06 74.55,33.51 72.80,33.08 71.06,32.64 69.23,32.05 67.39,31.45 64.38,30.47 61.37,29.49 59.52,29.11 57.67,28.73 55.59,28.36 53.51,27.99 51.98,27.93 50.45,27.86 49.35,27.90 48.25,27.94 46.49,28.07 44.74,28.20 43.32,28.56 41.90,28.92 40.52,30.35 39.15,31.78 38.30,32.63 37.45,33.49 36.86,34.43 36.27,35.38 35.54,36.89 34.82,38.41 34.02,39.37 33.23,40.32 32.28,41.69 31.34,43.05 30.75,44.00 30.16,44.96 29.57,46.30 28.97,47.65 27.87,49.36 26.78,51.07 26.14,52.61 25.49,54.15 24.90,55.46 24.31,56.78 23.95,57.91 23.60,59.05 22.99,60.94 22.38,62.84 22.25,63.14 22.12,63.44 21.87,63.70 21.61,63.96 21.30,64.14 20.99,64.33 20.64,64.44 20.30,64.55 19.93,64.57 19.57,64.59 19.22,64.52 18.86,64.46 18.53,64.31 18.20,64.16 17.91,63.94 17.63,63.71 17.41,63.43 17.18,63.14 17.03,62.81 16.88,62.48 16.82,62.13 16.75,61.77 16.78,61.41 16.80,61.05 16.91,60.70 17.01,60.35 17.20,60.04 17.39,59.73 17.08,57.40 16.78,55.07 16.92,53.05 17.07,51.03 17.08,49.50 17.10,47.98 17.13,46.32 17.16,44.67 17.10,42.49 17.03,40.31 17.01,39.06 16.99,37.82 16.91,36.08 16.83,34.34 16.82,33.22 16.80,32.11 16.79,30.96 16.78,29.82 16.77,28.67 16.76,27.51 16.58,25.71 16.39,23.91 15.99,22.53 15.60,21.16 14.74,19.74 13.88,18.31 12.99,17.15 12.10,15.98 10.91,14.75 9.72,13.52 8.96,12.75 8.21,11.98 6.91,10.94 5.61,9.90 4.32,9.25 3.04,8.60 1.94,8.26 0.85,7.92 -0.26,7.65 -1.39,7.38 -1.58,7.40 -1.78,7.42 -2.15,7.27 -2.52,7.13 -2.84,6.90 -3.16,6.67 -3.42,6.38 -3.68,6.08 -3.86,5.73 -4.04,5.37 -4.13,4.99 -4.22,4.61 -4.21,4.21 -4.21,3.82 -4.11,3.43 -4.01,3.05 -3.82,2.71 -3.63,2.36 -3.37,2.07 -3.10,1.77 -2.78,1.55 -2.45,1.33 -2.08,1.20 -1.71,1.06 -1.31,1.02 -0.92,0.98 -0.53,1.03 -0.14,1.08 -1.43,0.23 -2.72,-0.61 -2.55,-1.03 -2.38,-1.45 -2.09,-1.80 -1.79,-2.14 -1.40,-2.37 -1.01,-2.60 -0.57,-2.69 -0.13,-2.79 0.31,-2.74 0.76,-2.68 1.17,-2.49 1.58,-2.30 1.91,-1.99 2.23,-1.67 2.44,-1.27 2.65,-0.87 2.72,-0.42 2.79,0.01 2.72,0.46 2.64,0.91 2.42,1.30 2.21,1.70 1.88,2.01 1.55,2.32 1.14,2.51 0.72,2.70 0.27,2.74 -0.17,2.79 -0.61,2.69 -1.05,2.59 -1.43,2.35 -1.82,2.11 -2.11,1.77 -2.40,1.42 -2.57,1.00 -2.73,0.58 -2.75,0.13 -2.77,-0.32 -2.65,-0.75 -2.53,-1.19 -2.27,-1.56 -2.01,-1.93 -1.65,-2.20 -1.29,-2.48 -0.86,-2.62 -0.43,-2.76 0.01,-2.76 0.47,-2.75 0.89,-2.60 1.32,-2.46 1.68,-2.18 2.04,-1.90 2.29,-1.53 2.54,-1.15 2.66,-0.71 2.78,-0.28 2.75,0.16 2.72,0.62 2.72,0.62 2.72,0.61 0.47,4.02 -1.78,7.42 -2.15,7.27 -2.52,7.13 -2.84,6.90 -3.16,6.67 -3.42,6.38 -3.68,6.08 -3.86,5.73 -4.04,5.37 -4.13,4.99 -4.22,4.61 -4.21,4.21 -4.21,3.82 -4.11,3.43 -4.01,3.05 -3.82,2.71 -3.63,2.36 -3.37,2.07 -3.10,1.77 -2.78,1.55 -2.45,1.33 -2.08,1.20 -1.71,1.06 -1.32,1.02 -0.92,0.98 -0.53,1.03 -0.14,1.08 0.04,1.12 0.23,1.15 1.27,1.46 2.31,1.77 4.00,2.38 5.69,2.98 6.65,3.45 7.60,3.92 9.15,5.06 10.70,6.20 11.62,6.95 12.54,7.69 13.32,8.47 14.10,9.25 15.40,10.64 16.70,12.04 17.80,13.59 18.91,15.13 19.49,16.08 20.07,17.03 20.57,18.06 21.07,19.09 21.55,21.06 22.02,23.03 22.17,25.27 22.32,27.51 22.32,28.67 22.31,29.82 22.30,30.96 22.28,32.11 22.27,33.22 22.25,34.34 22.17,36.08 22.09,37.82 22.07,39.06 22.05,40.31 21.99,42.49 21.92,44.67 21.96,46.32 21.99,47.97 22.01,49.49 22.03,51.02 22.18,53.03 22.34,55.04 22.47,57.69 22.61,60.35 22.36,61.90 22.12,63.44 21.87,63.70 21.61,63.96 21.30,64.14 20.99,64.33 20.64,64.44 20.30,64.55 19.94,64.57 19.57,64.59 19.22,64.52 18.86,64.46 18.53,64.31 18.20,64.16 17.91,63.94 17.63,63.71 17.41,63.43 17.18,63.14 17.03,62.81 16.88,62.48 16.82,62.13 16.75,61.77 16.78,61.41 16.80,61.05 16.91,60.70 17.01,60.35 17.20,60.04 17.39,59.73 17.66,59.73 17.94,59.73 18.10,58.67 18.27,57.62 18.93,56.12 19.59,54.61 20.10,53.53 20.60,52.45 21.18,50.49 21.75,48.53 23.02,45.82 24.29,43.11 24.94,41.95 25.58,40.78 26.51,39.46 27.43,38.14 28.09,37.27 28.75,36.41 29.62,35.34 30.49,34.27 31.09,33.31 31.69,32.35 32.77,31.07 33.85,29.79 34.76,28.93 35.68,28.07 36.63,27.21 37.58,26.36 38.92,25.35 40.26,24.35 42.53,24.06 44.79,23.77 46.62,23.97 48.45,24.17 49.61,24.33 50.76,24.49 52.38,24.71 53.99,24.93 56.16,25.23 58.32,25.53 60.33,25.94 62.33,26.34 65.41,27.21 68.49,28.09 70.20,28.65 71.90,29.21 73.91,29.69 75.91,30.17 77.26,30.80 78.61,31.42 80.33,32.01 82.06,32.59 84.09,33.12 86.13,33.65 87.57,34.35 89.01,35.06 90.97,35.80 92.93,36.54 95.29,37.41 97.65,38.29 100.08,39.34 102.50,40.38 105.26,41.46 108.02,42.54 110.56,43.55 113.10,44.56 115.02,45.33 116.94,46.10 119.41,47.40 121.88,48.70 122.83,49.24 123.78,49.77 124.08,49.81 124.38,49.85 124.66,49.96 124.95,50.07 125.19,50.24 125.44,50.42 125.64,50.64 125.84,50.87 125.98,51.14 126.12,51.41 126.19,51.70 126.26,52.00 126.25,52.30 126.25,52.60 126.18,52.90 126.10,53.19 125.96,53.46 125.82,53.72 125.61,53.95 125.41,54.17 125.16,54.34 124.91,54.51 124.63,54.62 124.34,54.72 124.04,54.76 123.74,54.79 123.10,54.71 122.46,54.63 121.19,54.46 119.92,54.30 118.82,54.15 117.73,54.01 116.12,53.77 114.51,53.53 113.44,53.06 112.37,52.58 110.75,51.71 109.13,50.85 107.73,49.81 106.33,48.77 104.50,47.25 102.67,45.73 100.87,43.27 99.07,40.81 97.46,38.17 95.84,35.54 94.03,32.26 92.21,28.99 91.04,25.71 89.86,22.43 88.91,19.48 87.96,16.53 87.48,13.59 86.99,10.65 86.98,7.90 86.96,5.14 86.94,2.56 86.93,-0.02 86.90,-2.20 86.88,-4.38 86.85,-6.52 86.82,-8.67 86.81,-10.74 86.80,-12.81 86.78,-15.41 86.77,-18.01 86.79,-20.24 86.82,-22.46 86.95,-24.49 87.08,-26.51 87.07,-28.54 87.06,-30.57 87.21,-32.05 87.35,-33.53 87.35,-35.02 87.36,-36.50 87.46,-38.59 87.56,-40.68 87.64,-40.92 87.72,-41.17 87.85,-41.39 87.99,-41.61 88.17,-41.79 88.36,-41.96 88.58,-42.10 88.81,-42.23 89.05,-42.30 89.30,-42.37 89.56,-42.38 89.82,-42.40 90.07,-42.35 90.32,-42.29 90.56,-42.19 90.79,-42.08 90.99,-41.91 91.19,-41.75 91.35,-41.55 91.50,-41.34 91.61,-41.10 91.71,-40.87 91.75,-40.61 91.79,-40.36 91.78,-40.10 91.76,-39.84 91.57,-39.36 91.39,-38.88 90.61,-37.30 89.84,-35.72 89.15,-34.25 88.46,-32.79 87.75,-30.73 87.05,-28.68 86.30,-26.92 85.56,-25.16 84.75,-23.29 83.94,-21.42 82.95,-19.29 81.96,-17.16 80.95,-15.38 79.93,-13.61 78.82,-11.57 77.72,-9.52 76.56,-7.85 75.40,-6.18 74.09,-4.66 72.78,-3.13 71.44,-1.94 70.10,-0.75 68.38,0.39 66.65,1.55 64.98,2.32 63.31,3.09 61.78,3.53 60.25,3.98 58.33,4.32 56.42,4.67 54.56,4.61 52.71,4.55 50.64,4.52 48.56,4.50 45.96,4.47 43.36,4.44 40.21,4.37 37.07,4.30 33.57,4.13 30.06,3.95 26.74,3.55 23.42,3.14 20.46,2.78 17.49,2.42 14.39,2.16 11.29,1.90 8.69,1.86 6.09,1.81 3.00,1.69 -0.08,1.57 -0.26,1.54 -0.45,1.50 -0.62,1.43 -0.80,1.35 -0.95,1.24 -1.10,1.12 -1.22,0.97 -1.34,0.82 -1.42,0.65 -1.50,0.48 -1.53,0.29 -1.57,0.10 -1.56,-0.08 -1.55,-0.26 -1.49,-0.45 -1.44,-0.63 -1.34,-0.79 -1.24,-0.96 -1.11,-1.09 -0.98,-1.23 -0.82,-1.33 -0.66,-1.43 -0.47,-1.48 -0.29,-1.54 -0.10,-1.56 0.08,-1.57 0.08,-1.57 L 0.08,-1.57 Z"></path></g><g transform="translate(372.35150459705415 229.27561043415335) rotate(0 -0.24251978444056022 -1.9239902898957553)" stroke="none"><path d="M0 0 C0.49 0.21, 2.43 1.57, 2.91 1.28 C3.4 0.98, 3.37 -0.81, 2.91 -1.78 C2.45 -2.75, 1.2 -3.99, 0.15 -4.54 C-0.9 -5.1, -2.8 -6.08, -3.4 -5.13 C-3.99 -4.17, -3.4 0.67, -3.4 1.2 C-3.4 1.74, -3.96 -1.71, -3.4 -1.91 C-2.83 -2.11, -0.57 -0.32, 0 0" stroke="none" stroke-width="0" fill="#fa5252" fill-rule="evenodd"></path><path fill="#1e1e1e" d="M -0.17,-2.66 Q -0.17,-2.66 0.30,-2.55 0.77,-2.44 -0.65,-2.14 -2.09,-1.83 -1.37,-2.68 -0.65,-3.52 -0.42,-2.48 -0.19,-1.43 -0.17,-0.33 -0.15,0.76 -0.20,1.15 -0.25,1.53 -0.39,1.90 -0.53,2.26 -0.76,2.58 -0.98,2.90 -1.28,3.16 -1.58,3.41 -1.92,3.59 -2.27,3.77 -2.65,3.86 -3.03,3.95 -3.42,3.94 -3.81,3.94 -4.19,3.84 -4.57,3.74 -4.91,3.56 -5.26,3.37 -5.55,3.11 -5.84,2.85 -6.05,2.52 -6.27,2.20 -6.41,1.83 -6.54,1.47 -6.58,1.08 -6.63,0.69 -6.66,-0.39 -6.70,-1.48 -6.65,-1.88 -6.60,-2.28 -6.46,-2.65 -6.32,-3.02 -6.10,-3.35 -5.87,-3.68 -5.57,-3.94 -5.27,-4.21 -4.92,-4.40 -4.57,-4.58 -4.18,-4.68 -3.79,-4.77 -3.39,-4.77 -2.99,-4.77 -2.61,-4.68 -2.22,-4.58 -1.87,-4.40 -1.51,-4.21 -1.21,-3.95 -0.91,-3.68 -0.69,-3.36 -0.46,-3.03 -0.32,-2.65 -0.18,-2.28 -0.13,-1.89 -0.08,-1.49 0.55,-2.10 1.19,-2.72 1.60,-2.46 2.00,-2.20 2.30,-1.82 2.60,-1.44 2.76,-0.99 2.92,-0.53 2.93,-0.05 2.94,0.42 2.80,0.88 2.65,1.34 2.37,1.73 2.08,2.12 1.69,2.39 1.30,2.67 0.84,2.81 0.37,2.95 -0.10,2.93 -0.58,2.91 -1.03,2.74 -1.48,2.57 -1.85,2.27 -2.23,1.97 -2.48,1.56 -2.74,1.15 -2.85,0.68 -2.96,0.21 -2.92,-0.26 -2.88,-0.74 -2.68,-1.18 -2.49,-1.62 -2.17,-1.97 -1.84,-2.33 -1.42,-2.56 -1.00,-2.80 -0.53,-2.88 -0.05,-2.97 0.41,-2.90 0.89,-2.83 1.32,-2.62 1.75,-2.40 2.09,-2.06 2.43,-1.71 2.64,-1.28 2.85,-0.85 2.91,-0.37 2.97,0.10 2.88,0.57 2.78,1.04 2.54,1.46 2.30,1.88 1.94,2.20 1.58,2.52 1.13,2.70 0.69,2.89 0.21,2.92 -0.26,2.96 -0.73,2.84 -1.19,2.72 -1.19,2.72 -1.19,2.72 -3.95,0.61 -6.70,-1.48 -6.65,-1.88 -6.60,-2.28 -6.46,-2.65 -6.32,-3.02 -6.10,-3.35 -5.87,-3.68 -5.57,-3.94 -5.27,-4.21 -4.92,-4.39 -4.57,-4.58 -4.18,-4.68 -3.79,-4.77 -3.39,-4.77 -2.99,-4.77 -2.61,-4.68 -2.22,-4.58 -1.87,-4.40 -1.51,-4.21 -1.21,-3.95 -0.91,-3.68 -0.69,-3.36 -0.46,-3.03 -0.32,-2.65 -0.18,-2.28 -0.13,-1.89 -0.08,-1.49 -0.11,-0.36 -0.15,0.76 -0.20,1.15 -0.25,1.53 -0.39,1.90 -0.53,2.26 -0.76,2.58 -0.98,2.90 -1.28,3.16 -1.57,3.41 -1.92,3.59 -2.27,3.77 -2.65,3.86 -3.03,3.95 -3.42,3.94 -3.81,3.94 -4.19,3.84 -4.57,3.74 -4.91,3.56 -5.26,3.37 -5.55,3.11 -5.84,2.85 -6.05,2.52 -6.27,2.20 -6.41,1.83 -6.54,1.47 -6.58,1.08 -6.63,0.69 -6.60,0.08 -6.56,-0.53 -6.48,-1.93 -6.40,-3.33 -5.72,-4.91 -5.03,-6.49 -2.32,-6.83 0.39,-7.18 1.71,-6.43 3.03,-5.68 3.88,-4.51 4.72,-3.34 4.77,-1.81 4.81,-0.28 3.69,0.97 2.57,2.23 1.37,2.44 0.17,2.66 -0.14,2.64 -0.46,2.62 -0.77,2.53 -1.08,2.43 -1.35,2.27 -1.63,2.10 -1.86,1.88 -2.09,1.65 -2.25,1.37 -2.42,1.10 -2.52,0.79 -2.62,0.49 -2.64,0.17 -2.66,-0.14 -2.60,-0.46 -2.54,-0.78 -2.41,-1.07 -2.28,-1.37 -2.09,-1.62 -1.89,-1.87 -1.64,-2.07 -1.38,-2.27 -1.09,-2.40 -0.80,-2.54 -0.48,-2.60 -0.17,-2.66 -0.17,-2.66 L -0.17,-2.66 Z"></path></g><g transform="translate(168.65105365253362 10.382642326561836) rotate(0 37.932788950789984 39.759771326909686)" stroke="none"><path d="M0 0 C0.06 1.74, -0.36 7.81, 0.35 10.42 C1.07 13.04, 1.94 13.77, 4.29 15.68 C6.64 17.58, 8.6 19.05, 14.46 21.85 C20.32 24.66, 31.98 30.62, 39.47 32.52 C46.97 34.42, 54.26 33.74, 59.42 33.25 C64.58 32.76, 66.32 32.02, 70.44 29.57 C74.57 27.11, 82 17.73, 84.16 18.53 C86.32 19.32, 84.65 29.13, 83.43 34.33 C82.2 39.53, 80.61 44.59, 76.8 49.74 C72.99 54.88, 65.7 61.22, 60.56 65.19 C55.42 69.17, 52.01 71.12, 45.95 73.57 C39.89 76.02, 31 78.85, 24.21 79.9 C17.43 80.96, 9.63 80.9, 5.25 79.9 C0.88 78.91, -0.1 76.04, -2.04 73.93 C-3.98 71.82, -5.35 70.26, -6.39 67.24 C-7.43 64.23, -7.98 62.53, -8.29 55.84 C-8.61 49.15, -8.58 33.03, -8.29 27.09 C-8.01 21.16, -8.1 23.23, -6.56 20.23 C-5.03 17.22, -0.19 12.43, 0.9 9.06 C1.99 5.69, 0.15 1.51, 0 0" stroke="none" stroke-width="0" fill="#e3fafc" fill-rule="evenodd"></path><path fill="#1e1e1e" d="M 1.85,0.11 Q 1.85,0.11 1.75,1.89 1.64,3.67 1.91,5.87 2.18,8.06 2.58,9.22 2.98,10.37 3.79,11.39 4.60,12.40 6.03,13.71 7.46,15.02 9.69,16.55 11.92,18.09 14.83,19.50 17.75,20.92 21.27,22.73 24.79,24.54 27.91,26.03 31.03,27.52 33.59,28.57 36.15,29.63 38.44,30.27 40.74,30.92 42.63,31.16 44.52,31.41 46.56,31.53 48.61,31.66 50.45,31.66 52.30,31.67 54.34,31.70 56.38,31.73 58.38,31.35 60.39,30.98 63.14,30.20 65.89,29.42 67.65,28.60 69.42,27.78 70.77,26.89 72.12,26.00 73.28,24.98 74.43,23.96 75.62,22.96 76.80,21.95 77.68,21.07 78.55,20.19 79.43,19.43 80.31,18.66 81.26,17.86 82.20,17.05 82.32,17.00 82.44,16.96 82.69,16.81 82.94,16.66 83.22,16.57 83.50,16.49 83.79,16.48 84.08,16.46 84.37,16.52 84.65,16.57 84.92,16.69 85.18,16.81 85.41,16.99 85.64,17.18 85.81,17.41 85.99,17.64 86.11,17.90 86.23,18.17 86.28,18.46 86.33,18.74 86.31,19.03 86.29,19.33 86.20,19.60 86.11,19.88 85.96,20.13 85.80,20.38 85.60,20.58 85.39,20.78 85.89,23.72 86.39,26.65 86.05,28.96 85.72,31.26 84.88,34.22 84.04,37.18 83.01,39.73 81.97,42.27 80.87,44.61 79.77,46.95 78.49,48.98 77.21,51.00 75.52,53.00 73.82,55.00 71.66,57.06 69.51,59.11 67.19,61.16 64.87,63.21 62.16,65.05 59.45,66.90 57.05,68.51 54.65,70.11 52.32,71.45 49.99,72.78 47.27,73.85 44.55,74.91 41.73,75.83 38.92,76.74 36.06,77.59 33.21,78.44 30.74,79.22 28.27,80.00 26.16,80.37 24.05,80.74 22.16,80.95 20.28,81.15 18.20,81.21 16.11,81.27 13.96,81.28 11.81,81.28 9.89,81.33 7.98,81.37 5.61,80.37 3.24,79.37 1.88,78.69 0.53,78.01 -0.59,77.26 -1.72,76.50 -2.80,75.45 -3.88,74.41 -4.67,73.50 -5.47,72.60 -6.21,71.48 -6.95,70.36 -7.90,67.95 -8.84,65.54 -9.21,62.82 -9.59,60.11 -9.79,58.25 -9.99,56.38 -10.08,54.59 -10.17,52.79 -10.26,51.37 -10.34,49.94 -10.41,48.66 -10.48,47.38 -10.50,45.86 -10.52,44.34 -10.52,42.73 -10.52,41.11 -10.55,39.76 -10.59,38.40 -10.62,37.16 -10.66,35.91 -10.66,34.38 -10.65,32.85 -10.74,30.77 -10.83,28.69 -10.68,27.37 -10.53,26.06 -10.02,24.19 -9.52,22.33 -9.03,20.94 -8.54,19.56 -8.01,18.30 -7.47,17.04 -6.91,15.83 -6.36,14.62 -5.55,13.32 -4.75,12.02 -3.90,10.66 -3.05,9.30 -2.76,4.73 -2.47,0.15 -2.43,-0.24 -2.39,-0.64 -2.23,-1.00 -2.06,-1.37 -1.79,-1.66 -1.52,-1.96 -1.16,-2.15 -0.81,-2.34 -0.42,-2.41 -0.02,-2.48 0.37,-2.42 0.76,-2.36 1.12,-2.17 1.48,-1.99 1.76,-1.70 2.04,-1.41 2.21,-1.05 2.38,-0.68 2.43,-0.28 2.48,0.10 2.39,0.50 2.31,0.89 2.11,1.24 1.90,1.58 1.60,1.85 1.30,2.11 0.92,2.26 0.55,2.41 0.15,2.44 -0.24,2.47 -0.63,2.36 -1.02,2.26 -1.35,2.04 -1.68,1.81 -1.93,1.50 -2.18,1.18 -2.31,0.80 -2.44,0.42 -2.45,0.02 -2.45,-0.37 -2.32,-0.75 -2.20,-1.14 -1.96,-1.46 -1.72,-1.78 -1.39,-2.01 -1.06,-2.24 -0.67,-2.35 -0.29,-2.46 0.10,-2.44 0.51,-2.43 0.88,-2.28 1.25,-2.14 1.56,-1.88 1.87,-1.62 2.08,-1.28 2.29,-0.94 2.38,-0.54 2.47,-0.15 2.47,-0.15 2.47,-0.15 2.65,5.03 2.82,10.22 2.16,11.21 1.50,12.20 0.52,13.46 -0.46,14.72 -1.12,15.75 -1.78,16.79 -2.34,17.93 -2.90,19.07 -3.41,20.18 -3.93,21.30 -4.36,22.35 -4.79,23.40 -5.27,26.05 -5.75,28.70 -5.84,30.77 -5.93,32.85 -5.92,34.38 -5.91,35.91 -5.95,37.16 -5.99,38.40 -6.02,39.75 -6.05,41.11 -6.04,42.71 -6.03,44.32 -6.04,45.82 -6.05,47.32 -6.09,48.57 -6.12,49.82 -6.13,51.20 -6.14,52.58 -6.05,54.25 -5.97,55.91 -5.75,57.63 -5.52,59.34 -4.91,61.89 -4.30,64.43 -3.70,66.25 -3.11,68.06 -2.04,69.89 -0.96,71.72 -0.20,72.66 0.55,73.61 1.38,74.39 2.21,75.17 3.31,75.94 4.41,76.71 6.24,77.55 8.07,78.39 9.92,78.41 11.77,78.44 13.90,78.39 16.03,78.35 18.04,78.29 20.05,78.23 21.83,78.15 23.61,78.07 25.54,77.77 27.48,77.48 29.96,76.69 32.45,75.91 35.27,75.06 38.10,74.21 40.84,73.32 43.58,72.43 46.12,71.44 48.66,70.46 50.90,69.16 53.14,67.87 55.52,66.25 57.90,64.64 60.46,62.89 63.02,61.13 65.28,59.10 67.54,57.07 69.57,55.10 71.59,53.14 73.12,51.28 74.64,49.42 75.76,47.54 76.88,45.66 77.85,43.37 78.82,41.07 79.67,38.68 80.52,36.28 81.12,33.58 81.73,30.88 81.81,28.78 81.88,26.68 81.73,23.81 81.58,20.95 82.01,18.95 82.44,16.96 82.69,16.81 82.94,16.66 83.22,16.58 83.50,16.49 83.79,16.48 84.08,16.46 84.37,16.52 84.65,16.57 84.92,16.69 85.18,16.81 85.41,16.99 85.64,17.18 85.81,17.41 85.99,17.64 86.11,17.90 86.23,18.17 86.28,18.46 86.33,18.74 86.31,19.03 86.29,19.33 86.20,19.60 86.11,19.88 85.96,20.13 85.80,20.38 85.60,20.58 85.39,20.78 84.73,21.11 84.06,21.44 82.61,22.29 81.16,23.14 80.10,23.98 79.03,24.82 77.79,25.70 76.55,26.58 75.13,27.64 73.72,28.69 72.15,29.52 70.59,30.36 68.63,31.23 66.67,32.11 63.80,32.95 60.93,33.80 58.65,34.25 56.36,34.70 54.29,34.69 52.22,34.67 50.33,34.58 48.45,34.49 46.28,34.38 44.12,34.27 42.05,33.95 39.99,33.64 37.53,32.97 35.08,32.31 32.42,31.27 29.77,30.23 26.58,28.78 23.40,27.34 19.88,25.63 16.36,23.92 13.17,22.51 9.98,21.09 7.47,19.56 4.95,18.03 3.02,16.52 1.09,15.02 -0.04,13.38 -1.19,11.74 -1.61,10.19 -2.04,8.65 -2.06,6.05 -2.08,3.44 -1.97,1.66 -1.85,-0.11 -1.81,-0.33 -1.77,-0.55 -1.68,-0.76 -1.59,-0.96 -1.45,-1.14 -1.31,-1.31 -1.13,-1.45 -0.96,-1.59 -0.75,-1.68 -0.55,-1.77 -0.33,-1.81 -0.10,-1.85 0.11,-1.84 0.33,-1.83 0.55,-1.76 0.76,-1.69 0.95,-1.58 1.14,-1.46 1.30,-1.30 1.46,-1.14 1.58,-0.95 1.69,-0.76 1.76,-0.54 1.83,-0.33 1.84,-0.10 1.85,0.11 1.85,0.11 L 1.85,0.11 Z"></path></g><g transform="translate(197.10131903169383 69.09398747537398) rotate(0 -2.1988460455952463 0.8811552168008348)" stroke="none"><path d="M0 0 C0.11 -0.4, 1.35 -1.95, 0.65 -2.41 C-0.05 -2.88, -3.24 -3.79, -4.19 -2.77 C-5.14 -1.75, -5.6 2.46, -5.05 3.68 C-4.5 4.9, -1.65 5.37, -0.91 4.53 C-0.17 3.69, -0.64 -0.85, -0.59 -1.37 C-0.53 -1.89, -0.69 1.17, -0.59 1.4 C-0.49 1.62, -0.1 0.23, 0 0" stroke="none" stroke-width="0" fill="#e3fafc" fill-rule="evenodd"></path><path fill="#1e1e1e" d="M -2.57,-0.69 Q -2.57,-0.69 -2.28,-0.81 -1.99,-0.93 -1.92,0.28 -1.84,1.50 -2.95,1.49 -4.05,1.48 -4.02,0.24 -3.98,-0.99 -3.98,-1.05 -3.98,-1.10 -3.92,-1.50 -3.86,-1.91 -3.70,-2.29 -3.54,-2.66 -3.30,-2.99 -3.06,-3.32 -2.75,-3.58 -2.43,-3.85 -2.06,-4.03 -1.70,-4.20 -1.30,-4.29 -0.90,-4.38 -0.49,-4.37 -0.08,-4.35 0.30,-4.24 0.70,-4.13 1.05,-3.93 1.41,-3.73 1.71,-3.45 2.00,-3.17 2.23,-2.83 2.45,-2.49 2.58,-2.10 2.72,-1.72 2.75,-1.31 2.79,-0.90 -0.09,-1.26 -2.98,-1.62 -2.64,-2.05 -2.30,-2.49 -1.85,-2.79 -1.39,-3.09 -0.86,-3.24 -0.33,-3.38 0.21,-3.34 0.76,-3.31 1.27,-3.10 1.78,-2.89 2.19,-2.53 2.61,-2.17 2.89,-1.69 3.17,-1.22 3.28,-0.68 3.39,-0.14 3.32,0.39 3.26,0.94 3.02,1.44 2.79,1.93 2.40,2.33 2.02,2.72 1.53,2.98 1.04,3.23 0.50,3.31 -0.03,3.39 -0.57,3.30 -1.12,3.20 -1.60,2.94 -2.08,2.68 -2.46,2.27 -2.83,1.87 -3.05,1.37 -3.28,0.87 -3.33,0.32 -3.39,-0.22 -3.26,-0.75 -3.14,-1.29 -2.85,-1.76 -2.56,-2.22 -2.14,-2.58 -1.71,-2.93 -1.20,-3.12 -0.69,-3.32 -0.14,-3.35 0.40,-3.37 0.93,-3.22 1.46,-3.06 1.91,-2.75 2.36,-2.44 2.69,-1.99 3.02,-1.55 3.18,-1.03 3.35,-0.51 3.35,0.03 3.34,0.58 3.16,1.10 2.98,1.62 2.98,1.62 2.98,1.62 -0.49,0.26 -3.98,-1.10 -3.92,-1.50 -3.86,-1.91 -3.70,-2.29 -3.54,-2.66 -3.30,-2.99 -3.06,-3.32 -2.75,-3.58 -2.43,-3.85 -2.07,-4.03 -1.70,-4.20 -1.30,-4.29 -0.90,-4.38 -0.49,-4.37 -0.08,-4.35 0.30,-4.24 0.70,-4.13 1.05,-3.93 1.41,-3.73 1.71,-3.45 2.00,-3.17 2.23,-2.83 2.45,-2.49 2.58,-2.10 2.72,-1.72 2.75,-1.31 2.79,-0.90 2.76,-0.51 2.74,-0.12 2.63,1.15 2.52,2.42 2.15,3.90 1.79,5.39 0.72,6.21 -0.33,7.04 -2.49,7.12 -4.65,7.20 -5.83,6.36 -7.01,5.51 -7.58,3.31 -8.15,1.10 -7.92,-0.51 -7.69,-2.13 -6.95,-3.31 -6.20,-4.48 -4.87,-5.07 -3.53,-5.66 -2.16,-5.48 -0.79,-5.30 0.37,-4.74 1.54,-4.19 2.14,-3.01 2.74,-1.83 2.66,-0.57 2.57,0.69 2.45,0.99 2.33,1.29 2.14,1.55 1.95,1.81 1.71,2.02 1.46,2.23 1.17,2.37 0.89,2.51 0.57,2.58 0.26,2.65 -0.05,2.64 -0.38,2.64 -0.69,2.55 -1.00,2.47 -1.28,2.31 -1.56,2.16 -1.80,1.94 -2.03,1.72 -2.21,1.45 -2.39,1.18 -2.49,0.88 -2.60,0.58 -2.63,0.26 -2.66,-0.05 -2.62,-0.37 -2.57,-0.69 -2.57,-0.69 L -2.57,-0.69 Z"></path></g><g transform="translate(398.7646037869132 67.51491421223727) rotate(0 4.750693110765269 -21.363298344949726)" stroke="none"><path d="M0 0 C-2.73 0, -12.61 0.54, -16.36 0 C-20.11 -0.54, -20.8 -1.91, -22.5 -3.22 C-24.2 -4.53, -25.29 -5.95, -26.57 -7.87 C-27.86 -9.79, -29.45 -13.06, -30.22 -14.74 C-31 -16.42, -31.16 -16.17, -31.24 -17.93 C-31.31 -19.69, -31.98 -22.94, -30.66 -25.3 C-29.34 -27.67, -25.73 -30.32, -23.29 -32.14 C-20.85 -33.96, -20.22 -34.43, -16.02 -36.22 C-11.82 -38, -5.54 -41.63, 1.92 -42.86 C9.38 -44.09, 23.63 -43.93, 28.75 -43.59 C33.87 -43.26, 31.25 -42.25, 32.65 -40.86 C34.04 -39.46, 35.77 -37.49, 37.12 -35.22 C38.47 -32.95, 40.14 -29.86, 40.74 -27.22 C41.34 -24.59, 41.2 -21.37, 40.74 -19.42 C40.28 -17.47, 40.73 -17.54, 37.98 -15.52 C35.23 -13.49, 29.6 -9.89, 24.24 -7.26 C18.87 -4.62, 10.95 -1.06, 5.77 0.29 C0.6 1.65, -5.85 0.92, -6.81 0.87 C-7.77 0.82, -1.14 0.14, 0 0" stroke="none" stroke-width="0" fill="#fd7e14" fill-rule="evenodd"></path><path fill="#1e1e1e" d="M 0,2.27 Q 0,2.27 -1.63,2.26 -3.26,2.24 -4.42,2.29 -5.57,2.34 -6.73,2.39 -7.89,2.43 -9.35,2.43 -10.82,2.43 -12.43,2.40 -14.05,2.37 -15.91,1.74 -17.78,1.12 -19.38,0.46 -20.98,-0.18 -22.55,-1.24 -24.12,-2.31 -25.36,-3.50 -26.59,-4.68 -27.69,-6.27 -28.80,-7.86 -29.74,-9.58 -30.68,-11.30 -31.32,-12.48 -31.96,-13.66 -32.42,-14.68 -32.88,-15.69 -33.28,-17.38 -33.68,-19.07 -33.81,-20.42 -33.94,-21.76 -33.77,-23.43 -33.59,-25.10 -32.57,-26.47 -31.54,-27.83 -30.43,-28.77 -29.32,-29.71 -28.45,-30.52 -27.58,-31.33 -25.81,-32.97 -24.04,-34.60 -23.15,-35.22 -22.27,-35.83 -20.83,-36.62 -19.40,-37.41 -17.72,-38.13 -16.03,-38.85 -14.06,-39.63 -12.09,-40.41 -9.88,-41.15 -7.66,-41.89 -5.03,-42.64 -2.40,-43.39 0.70,-43.91 3.81,-44.43 6.81,-44.63 9.81,-44.83 12.35,-44.89 14.89,-44.96 17.24,-44.97 19.59,-44.99 21.55,-45.02 23.52,-45.06 25.02,-45.16 26.53,-45.25 27.86,-45.03 29.20,-44.82 30.57,-44.18 31.95,-43.53 33.10,-42.73 34.25,-41.93 35.32,-40.85 36.40,-39.77 37.18,-38.85 37.97,-37.93 38.76,-36.40 39.54,-34.87 40.17,-33.65 40.81,-32.42 41.42,-31.23 42.03,-30.05 42.41,-28.87 42.80,-27.69 43.08,-25.89 43.35,-24.10 43.37,-22.72 43.39,-21.34 43.08,-19.95 42.77,-18.56 42.02,-17.17 41.27,-15.77 39.49,-13.80 37.70,-11.82 36.10,-10.82 34.50,-9.81 32.76,-9.02 31.02,-8.22 29.40,-7.41 27.78,-6.59 26.01,-5.84 24.24,-5.08 22.51,-4.40 20.78,-3.72 19.07,-3.07 17.36,-2.41 15.66,-1.77 13.96,-1.12 12.27,-0.48 10.57,0.15 9.49,0.75 8.41,1.34 7.27,1.72 6.13,2.10 4.24,2.40 2.34,2.70 1.04,3.04 -0.24,3.39 -1.33,3.52 -2.42,3.65 -3.55,3.72 -4.68,3.79 -5.29,3.82 -5.90,3.84 -6.25,3.80 -6.61,3.76 -6.95,3.63 -7.28,3.51 -7.58,3.30 -7.88,3.10 -8.12,2.83 -8.36,2.57 -8.52,2.25 -8.69,1.93 -8.78,1.58 -8.87,1.23 -8.87,0.87 -8.87,0.51 -8.79,0.16 -8.70,-0.18 -8.54,-0.50 -8.37,-0.81 -8.13,-1.08 -7.89,-1.35 -7.60,-1.56 -7.30,-1.77 -6.97,-1.89 -6.63,-2.02 -6.28,-2.07 -5.92,-2.11 -3.14,-2.31 -0.36,-2.50 0.04,-2.49 0.45,-2.48 0.83,-2.35 1.22,-2.21 1.54,-1.96 1.86,-1.70 2.09,-1.36 2.31,-1.02 2.41,-0.62 2.51,-0.23 2.49,0.17 2.46,0.58 2.30,0.96 2.14,1.34 1.87,1.64 1.60,1.95 1.25,2.16 0.89,2.36 0.49,2.44 0.09,2.52 -0.31,2.47 -0.71,2.42 -1.08,2.24 -1.45,2.06 -1.74,1.78 -2.04,1.49 -2.22,1.13 -2.41,0.76 -2.47,0.36 -2.52,-0.04 -2.45,-0.44 -2.38,-0.84 -2.18,-1.20 -1.98,-1.56 -1.68,-1.84 -1.38,-2.11 -1.00,-2.28 -0.63,-2.44 -0.22,-2.48 0.18,-2.52 0.57,-2.42 0.97,-2.33 1.32,-2.11 1.67,-1.89 1.93,-1.58 2.19,-1.26 2.33,-0.88 2.47,-0.50 2.49,-0.09 2.50,0.31 2.39,0.70 2.27,1.10 2.04,1.43 1.80,1.77 1.47,2.01 1.14,2.25 0.75,2.37 0.36,2.50 0.36,2.50 0.36,2.50 -2.76,3.17 -5.90,3.84 -6.25,3.80 -6.61,3.76 -6.95,3.63 -7.28,3.51 -7.58,3.31 -7.88,3.10 -8.12,2.83 -8.36,2.57 -8.52,2.25 -8.69,1.93 -8.78,1.58 -8.87,1.23 -8.87,0.87 -8.87,0.51 -8.79,0.16 -8.70,-0.18 -8.54,-0.49 -8.37,-0.81 -8.13,-1.08 -7.90,-1.35 -7.60,-1.56 -7.30,-1.76 -6.97,-1.89 -6.63,-2.02 -6.28,-2.07 -5.92,-2.11 -4.26,-2.03 -2.60,-1.95 -1.29,-1.93 0.01,-1.91 1.80,-2.06 3.58,-2.21 5.09,-2.32 6.60,-2.44 7.87,-2.98 9.13,-3.52 10.81,-4.20 12.49,-4.87 14.16,-5.55 15.83,-6.23 17.49,-6.93 19.15,-7.63 20.77,-8.35 22.40,-9.07 23.96,-9.85 25.52,-10.63 27.17,-11.64 28.82,-12.66 30.21,-13.42 31.59,-14.17 32.79,-15.04 33.99,-15.90 35.25,-17.19 36.51,-18.48 37.27,-19.90 38.02,-21.32 38.00,-23.16 37.99,-25.01 37.83,-26.46 37.68,-27.91 37.11,-29.10 36.54,-30.30 35.94,-31.54 35.34,-32.79 34.24,-34.77 33.13,-36.75 32.37,-37.65 31.61,-38.55 30.80,-39.28 30.00,-40.00 28.26,-40.95 26.52,-41.90 25.03,-41.98 23.54,-42.06 21.59,-42.06 19.64,-42.06 17.33,-41.99 15.01,-41.92 12.54,-41.79 10.07,-41.65 7.25,-41.37 4.43,-41.09 1.58,-40.49 -1.27,-39.89 -3.72,-39.00 -6.17,-38.11 -8.12,-37.20 -10.08,-36.30 -11.94,-35.20 -13.81,-34.10 -15.19,-33.38 -16.57,-32.66 -17.81,-31.86 -19.04,-31.06 -20.57,-30.07 -22.10,-29.08 -22.90,-28.14 -23.70,-27.21 -24.66,-26.30 -25.61,-25.39 -27.02,-24.15 -28.43,-22.90 -28.49,-21.73 -28.55,-20.55 -28.58,-19.47 -28.62,-18.39 -28.30,-17.01 -27.98,-15.62 -27.50,-14.52 -27.02,-13.41 -26.10,-11.91 -25.18,-10.42 -24.28,-9.16 -23.37,-7.91 -22.46,-6.97 -21.54,-6.03 -20.43,-5.23 -19.31,-4.44 -17.72,-3.87 -16.14,-3.30 -15.04,-2.84 -13.95,-2.37 -12.38,-2.40 -10.82,-2.43 -9.35,-2.43 -7.89,-2.43 -6.73,-2.39 -5.57,-2.34 -4.42,-2.29 -3.26,-2.24 -1.63,-2.26 0,-2.27 0.27,-2.24 0.54,-2.20 0.80,-2.11 1.05,-2.01 1.28,-1.85 1.50,-1.70 1.69,-1.49 1.87,-1.29 1.99,-1.04 2.12,-0.80 2.19,-0.54 2.25,-0.27 2.25,0.00 2.25,0.27 2.19,0.54 2.12,0.80 1.99,1.04 1.87,1.29 1.68,1.49 1.50,1.70 1.28,1.85 1.05,2.01 0.80,2.11 0.54,2.20 0.27,2.24 -0.00,2.27 -0.00,2.27 L 0,2.27 Z"></path></g><g transform="translate(404.56352129931645 43.462340924267664) rotate(0 1.6841651697267253 0.03233597125881715)" stroke="none"><path d="M0 0 C-0.16 -0.16, -0.95 -1.14, -0.96 -0.96 C-0.98 -0.79, -1 0.7, -0.11 1.03 C0.77 1.36, 4.31 1.2, 4.33 1.03 C4.35 0.86, 0.72 0.17, 0 0" stroke="none" stroke-width="0" fill="#fd7e14" fill-rule="evenodd"></path><path fill="#1e1e1e" d="M 2.51,0.27 Q 2.51,0.27 1.73,-0.58 0.95,-1.43 2.11,-1.63 3.26,-1.82 3.64,-1.84 4.03,-1.86 4.37,-1.81 4.72,-1.75 5.04,-1.62 5.36,-1.49 5.64,-1.28 5.92,-1.08 6.14,-0.81 6.37,-0.54 6.52,-0.23 6.67,0.07 6.75,0.41 6.82,0.75 6.81,1.10 6.80,1.45 6.71,1.78 6.61,2.12 6.44,2.42 6.27,2.72 6.04,2.98 5.80,3.23 5.51,3.42 5.21,3.61 4.89,3.73 4.56,3.84 4.21,3.87 3.86,3.90 2.47,3.38 1.07,2.86 0.18,2.80 -0.69,2.73 -1.11,2.55 -1.53,2.36 -1.87,2.06 -2.21,1.75 -2.43,1.35 -2.65,0.95 -2.74,0.50 -2.82,0.05 -2.75,-0.39 -2.69,-0.84 -2.48,-1.25 -2.28,-1.66 -1.95,-1.98 -1.63,-2.30 -1.22,-2.50 -0.81,-2.70 -0.35,-2.76 0.09,-2.82 0.54,-2.73 0.99,-2.64 1.38,-2.41 1.78,-2.18 2.08,-1.84 2.39,-1.50 2.56,-1.08 2.74,-0.66 2.77,-0.20 2.81,0.24 2.70,0.69 2.58,1.13 2.33,1.51 2.08,1.90 1.73,2.18 1.37,2.46 0.94,2.62 0.51,2.77 0.05,2.78 -0.40,2.79 -0.83,2.65 -1.27,2.52 -1.64,2.25 -2.01,1.98 -2.27,1.61 -2.53,1.23 -2.67,0.79 -2.80,0.36 -2.78,-0.09 -2.77,-0.55 -2.60,-0.97 -2.44,-1.40 -2.16,-1.76 -1.87,-2.11 -1.48,-2.35 -1.09,-2.60 -0.65,-2.70 -0.20,-2.81 0.24,-2.77 0.70,-2.73 0.70,-2.73 0.69,-2.73 2.36,-2.29 4.03,-1.86 4.37,-1.81 4.71,-1.75 5.04,-1.62 5.36,-1.49 5.64,-1.28 5.92,-1.08 6.14,-0.81 6.37,-0.54 6.52,-0.23 6.67,0.07 6.75,0.41 6.82,0.75 6.81,1.10 6.80,1.45 6.71,1.78 6.61,2.12 6.44,2.42 6.27,2.72 6.04,2.98 5.80,3.23 5.51,3.42 5.21,3.61 4.89,3.73 4.56,3.84 4.21,3.87 3.86,3.90 2.87,3.80 1.87,3.69 0.39,3.15 -1.08,2.62 -1.80,1.17 -2.51,-0.27 -2.44,-0.57 -2.37,-0.87 -2.23,-1.14 -2.09,-1.41 -1.89,-1.64 -1.69,-1.87 -1.45,-2.05 -1.20,-2.22 -0.91,-2.33 -0.63,-2.45 -0.33,-2.49 -0.02,-2.53 0.27,-2.49 0.57,-2.46 0.86,-2.35 1.15,-2.25 1.40,-2.08 1.65,-1.91 1.86,-1.68 2.06,-1.46 2.21,-1.19 2.35,-0.92 2.43,-0.62 2.50,-0.33 2.51,-0.02 2.51,0.27 2.51,0.27 L 2.51,0.27 Z"></path></g><g transform="translate(406.7623673449117 40.26646909819465) rotate(0 2.4198085158634512 2.8482601350419827)" stroke="none"><path d="M0 0 C0.07 0.31, -0.38 0.92, 0.43 1.86 C1.23 2.81, 4.91 6.01, 4.84 5.7 C4.77 5.39, 0.81 0.95, 0 0" stroke="none" stroke-width="0" fill="#fd7e14" fill-rule="evenodd"></path><path fill="#1e1e1e" d="M 2.07,-1.07 Q 2.07,-1.07 2.56,-0.25 3.04,0.56 4.07,1.39 5.09,2.21 5.88,2.98 6.68,3.75 6.84,4.05 7.00,4.34 7.09,4.66 7.18,4.98 7.19,5.32 7.20,5.65 7.13,5.98 7.06,6.31 6.92,6.61 6.77,6.91 6.55,7.16 6.34,7.42 6.07,7.62 5.80,7.82 5.49,7.95 5.18,8.07 4.85,8.12 4.52,8.17 4.19,8.14 3.85,8.11 3.54,8.00 3.22,7.89 2.94,7.71 2.66,7.53 2.43,7.29 2.20,7.04 0.19,4.27 -1.82,1.50 -2.01,1.17 -2.20,0.83 -2.28,0.46 -2.36,0.09 -2.31,-0.28 -2.26,-0.66 -2.10,-1.01 -1.93,-1.35 -1.66,-1.63 -1.39,-1.90 -1.05,-2.07 -0.71,-2.25 -0.34,-2.30 0.03,-2.36 0.41,-2.29 0.79,-2.22 1.12,-2.04 1.45,-1.85 1.71,-1.57 1.97,-1.29 2.13,-0.94 2.28,-0.59 2.32,-0.21 2.35,0.16 2.26,0.53 2.18,0.90 1.97,1.23 1.77,1.55 1.48,1.80 1.18,2.04 0.82,2.17 0.47,2.31 0.08,2.33 -0.29,2.34 -0.65,2.23 -1.02,2.12 -1.33,1.90 -1.65,1.68 -1.87,1.38 -2.10,1.07 -2.22,0.70 -2.33,0.34 -2.33,-0.03 -2.32,-0.41 -2.19,-0.78 -2.06,-1.14 -1.83,-1.44 -1.59,-1.74 -1.27,-1.95 -0.95,-2.16 -0.58,-2.25 -0.21,-2.35 0.16,-2.32 0.54,-2.29 0.89,-2.15 1.25,-2.00 1.53,-1.75 1.82,-1.50 1.82,-1.50 1.82,-1.50 4.25,1.12 6.68,3.75 6.84,4.05 7.00,4.34 7.09,4.66 7.18,4.98 7.19,5.32 7.20,5.65 7.13,5.98 7.06,6.31 6.92,6.61 6.77,6.91 6.55,7.16 6.34,7.42 6.07,7.62 5.80,7.82 5.49,7.95 5.18,8.07 4.85,8.12 4.52,8.17 4.19,8.14 3.85,8.11 3.54,8.00 3.22,7.89 2.94,7.71 2.66,7.53 2.43,7.29 2.20,7.04 1.97,6.84 1.74,6.64 1.05,5.72 0.37,4.81 -0.44,3.84 -1.26,2.87 -1.66,1.97 -2.07,1.07 -2.17,0.81 -2.27,0.54 -2.30,0.26 -2.34,-0.01 -2.30,-0.29 -2.26,-0.57 -2.16,-0.83 -2.06,-1.09 -1.90,-1.32 -1.74,-1.56 -1.53,-1.74 -1.32,-1.93 -1.06,-2.06 -0.81,-2.19 -0.54,-2.25 -0.27,-2.32 0.01,-2.32 0.29,-2.32 0.56,-2.25 0.84,-2.18 1.08,-2.05 1.33,-1.91 1.54,-1.73 1.75,-1.54 1.91,-1.31 2.07,-1.07 2.07,-1.07 L 2.07,-1.07 Z"></path></g></svg>