<?xml version="1.0" standalone="no"?>
<!DOCTYPE svg PUBLIC "-//W3C//DTD SVG 1.1//EN" "http://www.w3.org/Graphics/SVG/1.1/DTD/svg11.dtd">
<svg version="1.1" xmlns="http://www.w3.org/2000/svg" viewBox="0 0 62.57021146823422 711.4958964965772" width="187.71063440470266" height="2134.4876894897316"><!-- svg-source:excalidraw --><metadata></metadata><defs><style class="style-fonts">
      </style></defs><g stroke-linecap="round"><g transform="translate(-7.991387649062062 338.2132244351433) rotate(83.98863945342782 42.519897032365634 -0.8822404342836307)"><path d="M1.02 0.09 C15.01 0.3, 70.84 0.12, 84.94 0.1 M0.1 -0.9 C13.86 -0.98, 69.89 -2.26, 84.09 -1.89" stroke="#000000" stroke-width="4" fill="none"></path></g></g><mask></mask><g stroke-linecap="round" transform="translate(25.10026064223689 297.7424665080807) rotate(83.98863945342782 5.365582197581375 5.365582197581261)"><path d="M5.65 -0.46 C6.73 -0.42, 8.2 0.8, 9.08 1.6 C9.96 2.39, 10.72 3.31, 10.94 4.33 C11.16 5.35, 10.97 6.77, 10.41 7.71 C9.84 8.65, 8.63 9.56, 7.57 9.97 C6.51 10.39, 5.13 10.42, 4.04 10.19 C2.96 9.97, 1.67 9.57, 1.07 8.6 C0.47 7.63, 0.35 5.66, 0.44 4.39 C0.53 3.13, 0.79 1.72, 1.59 1.02 C2.4 0.32, 4.57 0.38, 5.27 0.19 C5.97 0, 5.72 -0.12, 5.77 -0.09 M4.24 0.11 C5.2 -0.29, 6.7 -0.16, 7.74 0.25 C8.78 0.67, 9.9 1.64, 10.48 2.62 C11.06 3.61, 11.66 5.09, 11.2 6.18 C10.73 7.26, 8.88 8.35, 7.7 9.11 C6.51 9.88, 5.21 10.82, 4.08 10.78 C2.95 10.74, 1.57 9.79, 0.94 8.86 C0.3 7.93, 0.19 6.35, 0.26 5.21 C0.33 4.06, 0.61 2.76, 1.36 2 C2.11 1.24, 4.34 0.93, 4.76 0.65 C5.19 0.36, 4.1 0.35, 3.91 0.29" stroke="none" stroke-width="0" fill="#000"></path><path d="M6.22 0.21 C7.35 0.39, 9.03 1.37, 9.77 2.26 C10.5 3.15, 10.61 4.45, 10.63 5.56 C10.65 6.66, 10.59 8.04, 9.88 8.9 C9.18 9.77, 7.67 10.61, 6.41 10.74 C5.16 10.87, 3.4 10.19, 2.35 9.69 C1.3 9.18, 0.45 8.69, 0.11 7.69 C-0.23 6.7, -0.17 4.86, 0.3 3.72 C0.77 2.58, 1.92 1.42, 2.94 0.88 C3.96 0.34, 5.78 0.57, 6.42 0.47 C7.06 0.36, 6.85 0.16, 6.78 0.26 M5.16 0.26 C6.28 0.14, 7.54 0.59, 8.34 1.21 C9.14 1.83, 9.71 3, 9.95 3.99 C10.2 4.99, 10.06 6.17, 9.83 7.16 C9.6 8.15, 9.5 9.28, 8.57 9.95 C7.63 10.62, 5.58 11.27, 4.23 11.17 C2.87 11.07, 1.26 10.31, 0.44 9.37 C-0.39 8.43, -0.95 6.72, -0.73 5.52 C-0.51 4.33, 0.91 2.97, 1.74 2.18 C2.56 1.4, 3.62 1.18, 4.22 0.79 C4.83 0.4, 5.23 -0.08, 5.38 -0.17" stroke="#000000" stroke-width="1" fill="none"></path></g><g stroke-linecap="round"><g transform="translate(75.2406514974632 259.7769976564068) rotate(276.0113605465722 -41.17454110162009 0.1001545511508084)"><path d="M0.84 0.1 C-12.89 0, -68.42 -0.42, -82.19 -0.35 M-0.18 -0.89 C-14.09 -0.83, -69.48 1.18, -83.19 1.09" stroke="#000000" stroke-width="4" fill="none"></path></g></g><mask></mask><g stroke-linecap="round" transform="translate(32.7947795788657 220.57785679543485) rotate(276.0113605465722 5.196992177492234 5.19699217749212)"><path d="M4.34 0.22 C5.33 -0.19, 6.87 -0.04, 7.84 0.39 C8.81 0.82, 9.72 1.78, 10.17 2.79 C10.61 3.79, 10.82 5.23, 10.5 6.43 C10.19 7.62, 9.21 9.32, 8.29 9.93 C7.37 10.55, 6.14 10.38, 4.97 10.12 C3.79 9.87, 2.06 9.13, 1.23 8.39 C0.4 7.65, -0.04 6.76, -0.01 5.67 C0.02 4.59, 0.66 2.84, 1.41 1.88 C2.16 0.92, 4.08 0.14, 4.5 -0.08 C4.92 -0.3, 3.96 0.41, 3.95 0.54 M5.32 -0.55 C6.49 -0.69, 8.42 -0.18, 9.14 0.5 C9.86 1.18, 9.64 2.3, 9.62 3.51 C9.6 4.73, 9.53 6.74, 9.01 7.79 C8.48 8.84, 7.36 9.52, 6.48 9.81 C5.61 10.11, 4.65 9.93, 3.75 9.57 C2.85 9.21, 1.58 8.43, 1.09 7.65 C0.59 6.87, 0.68 5.93, 0.77 4.87 C0.86 3.81, 0.99 2.17, 1.61 1.3 C2.24 0.43, 4.01 -0.15, 4.52 -0.37 C5.02 -0.58, 4.57 -0.21, 4.63 -0.01" stroke="none" stroke-width="0" fill="#000"></path><path d="M5.42 0.2 C6.5 0.16, 8.35 0.77, 9.19 1.52 C10.03 2.27, 10.48 3.67, 10.48 4.71 C10.48 5.75, 9.87 6.75, 9.2 7.75 C8.52 8.74, 7.47 10.28, 6.45 10.68 C5.43 11.08, 4.04 10.65, 3.09 10.15 C2.15 9.65, 1.31 8.64, 0.8 7.67 C0.29 6.7, -0.2 5.43, 0.02 4.31 C0.25 3.2, 1.26 1.63, 2.14 0.99 C3.01 0.34, 4.69 0.59, 5.27 0.44 C5.84 0.28, 5.56 -0.02, 5.6 0.06 M5.04 0.28 C6 0.18, 7.3 0.52, 8.31 1.22 C9.31 1.92, 10.87 3.25, 11.07 4.49 C11.27 5.73, 10.36 7.6, 9.51 8.67 C8.65 9.74, 7.14 10.64, 5.94 10.91 C4.75 11.19, 3.19 10.82, 2.34 10.31 C1.5 9.81, 1.3 8.84, 0.87 7.9 C0.43 6.96, -0.6 5.88, -0.27 4.68 C0.07 3.47, 1.83 1.5, 2.87 0.67 C3.91 -0.16, 5.56 -0.11, 5.98 -0.3 C6.39 -0.5, 5.48 -0.74, 5.38 -0.49" stroke="#000000" stroke-width="1" fill="none"></path></g><g stroke-linecap="round"><g transform="translate(-17.77033856943399 170.7679892921442) rotate(83.98863945342782 48.345739761248524 0.29243456265339773)"><path d="M0.3 0.69 C16.6 0.66, 81.52 -0.44, 97.69 -0.42 M-1 0.01 C15.22 0.18, 80.88 1.16, 97.18 0.99" stroke="#000000" stroke-width="4" fill="none"></path></g></g><mask></mask><g stroke-linecap="round" transform="translate(20.04795233314644 124.5165942917929) rotate(83.98863945342782 6.131974648817845 6.131974648817959)"><path d="M6.58 -0.36 C7.83 -0.4, 9.61 0.31, 10.59 1.32 C11.58 2.34, 12.27 4.39, 12.46 5.7 C12.64 7.01, 12.47 8.2, 11.7 9.18 C10.92 10.17, 9.13 11.15, 7.81 11.61 C6.49 12.08, 4.91 12.47, 3.78 11.99 C2.66 11.52, 1.63 10, 1.07 8.78 C0.51 7.55, 0.29 5.83, 0.42 4.65 C0.56 3.46, 0.81 2.41, 1.89 1.66 C2.98 0.91, 6.02 0.4, 6.91 0.17 C7.8 -0.07, 7.28 0.14, 7.22 0.25 M4.34 -0.59 C5.32 -0.77, 7.26 0.15, 8.42 0.87 C9.58 1.59, 10.68 2.62, 11.3 3.75 C11.92 4.88, 12.44 6.39, 12.15 7.64 C11.87 8.88, 10.64 10.36, 9.59 11.2 C8.53 12.03, 7.2 12.84, 5.82 12.67 C4.44 12.49, 2.36 11.28, 1.29 10.14 C0.22 9, -0.53 7.15, -0.59 5.82 C-0.65 4.48, 0.03 3.02, 0.93 2.12 C1.82 1.22, 4.03 0.66, 4.8 0.42 C5.57 0.18, 5.59 0.73, 5.55 0.68" stroke="none" stroke-width="0" fill="#000"></path><path d="M6.83 0.12 C7.95 0.09, 9.3 0.5, 10.17 1.5 C11.03 2.51, 11.87 4.74, 12.03 6.14 C12.18 7.53, 11.79 8.86, 11.1 9.88 C10.42 10.89, 9.22 11.87, 7.93 12.23 C6.64 12.58, 4.6 12.6, 3.38 12.01 C2.15 11.41, 1.18 9.83, 0.58 8.65 C-0.02 7.47, -0.51 6.19, -0.21 4.92 C0.09 3.64, 1.21 1.74, 2.38 0.99 C3.56 0.24, 6.01 0.52, 6.84 0.4 C7.66 0.29, 7.29 0.3, 7.34 0.29 M7.37 -0.14 C8.71 0.02, 9.78 1.28, 10.47 2.36 C11.17 3.43, 11.57 5.04, 11.56 6.32 C11.55 7.6, 11 8.99, 10.42 10.02 C9.84 11.05, 9.28 12.08, 8.06 12.48 C6.84 12.88, 4.25 13.11, 3.12 12.43 C1.99 11.75, 1.72 9.76, 1.3 8.4 C0.88 7.03, 0.43 5.54, 0.62 4.23 C0.81 2.91, 1.46 1.09, 2.44 0.5 C3.43 -0.09, 5.95 0.63, 6.56 0.69 C7.17 0.75, 6.19 0.76, 6.08 0.86" stroke="#000000" stroke-width="1" fill="none"></path></g><g stroke-linecap="round"><g transform="translate(-15.696032429973911 63.4516477838697) rotate(83.98863945342782 50.37812343935241 14.52667780843285)"><path d="M0.45 0.98 C17.24 5.79, 84.68 24.18, 101.52 28.6 M-0.77 0.45 C15.81 4.9, 83.74 21.96, 100.68 26.63" stroke="#000000" stroke-width="4" fill="none"></path></g></g><mask></mask><g stroke-linecap="round" transform="translate(39.5272579896307 10) rotate(83.98863945342782 6.521476739301761 6.521476739301761)"><path d="M5.59 0.5 C6.89 0.18, 8.98 0.05, 10.12 0.62 C11.27 1.18, 12.03 2.5, 12.45 3.88 C12.88 5.26, 13.03 7.55, 12.65 8.89 C12.28 10.23, 11.36 11.29, 10.2 11.94 C9.05 12.59, 7.25 12.91, 5.72 12.78 C4.2 12.64, 2.01 12.15, 1.07 11.14 C0.13 10.12, 0.01 8.16, 0.08 6.7 C0.14 5.24, 0.57 3.47, 1.46 2.39 C2.35 1.31, 4.74 0.51, 5.41 0.21 C6.09 -0.09, 5.55 0.6, 5.52 0.61 M4.45 -0.06 C5.89 -0.55, 8.3 -0.48, 9.7 0.15 C11.1 0.78, 12.23 2.27, 12.86 3.73 C13.49 5.18, 13.96 7.51, 13.47 8.89 C12.98 10.27, 11.31 11.38, 9.92 12 C8.54 12.63, 6.6 12.82, 5.16 12.63 C3.73 12.44, 2.19 11.78, 1.3 10.88 C0.4 9.98, -0.29 8.51, -0.21 7.21 C-0.12 5.91, 1.03 4.34, 1.81 3.07 C2.58 1.81, 3.86 0.06, 4.44 -0.4 C5.03 -0.86, 5.11 0.25, 5.32 0.33" stroke="none" stroke-width="0" fill="#000"></path><path d="M6.61 0.5 C7.99 0.57, 9.81 1.03, 10.92 1.92 C12.02 2.81, 13.08 4.44, 13.25 5.85 C13.41 7.26, 12.68 9.23, 11.89 10.38 C11.1 11.52, 9.88 12.29, 8.49 12.72 C7.11 13.15, 4.91 13.5, 3.57 12.95 C2.23 12.41, 1.05 10.68, 0.46 9.42 C-0.13 8.17, -0.35 6.77, 0.03 5.44 C0.4 4.1, 1.48 2.37, 2.71 1.41 C3.93 0.45, 6.57 -0.06, 7.39 -0.32 C8.2 -0.58, 7.67 -0.39, 7.59 -0.14 M5.48 0.73 C6.67 0.54, 8.41 0.88, 9.69 1.67 C10.98 2.46, 12.84 4.04, 13.21 5.46 C13.58 6.88, 12.49 9.08, 11.92 10.21 C11.35 11.33, 10.96 11.82, 9.81 12.19 C8.67 12.57, 6.53 12.9, 5.05 12.45 C3.56 12, 1.74 10.49, 0.89 9.48 C0.04 8.47, -0.16 7.58, -0.06 6.41 C0.04 5.25, 0.56 3.44, 1.48 2.48 C2.4 1.51, 4.57 0.94, 5.47 0.63 C6.37 0.33, 6.72 0.55, 6.86 0.63" stroke="#000000" stroke-width="1" fill="none"></path></g><g transform="translate(39.02816221339276 378.92808636556765) rotate(0 -0.620907388168007 3.390453057727882)" stroke="none"><path d="M0 0 C-0.13 0.78, -1.09 3.78, -0.79 4.66 C-0.49 5.54, 1.46 5.42, 1.79 5.27 C2.11 5.13, 2.02 4.04, 1.17 3.8 C0.31 3.55, -2.77 3.1, -3.35 3.8 C-3.93 4.5, -2.96 7.4, -2.34 7.98 C-1.72 8.57, -0.49 8.83, 0.36 7.3 C1.21 5.77, 3.23 0.1, 2.77 -1.2 C2.31 -2.51, -1.27 -1.87, -2.4 -0.53 C-3.53 0.81, -4.44 5.62, -4.01 6.85 C-3.58 8.08, -0.49 7.99, 0.17 6.85 C0.84 5.71, 0.03 1.14, 0 0" stroke="none" stroke-width="0" fill="#a5d8ff" fill-rule="evenodd"></path><path fill="#1a2a27" d="M 2.47,0.60 Q 2.47,0.60 2.28,1.54 2.09,2.47 0.84,2.83 -0.40,3.18 -0.39,4.83 -0.38,6.48 -1.46,6.77 -2.54,7.07 -1.45,6.43 -0.36,5.80 -1.34,5.05 -2.31,4.29 -1.57,2.49 -0.83,0.69 0.22,1.46 1.27,2.23 0.47,3.00 -0.33,3.76 -0.39,4.92 -0.46,6.07 -1.20,5.20 -1.94,4.33 -2.53,2.18 -3.12,0.03 -3.04,-0.46 -2.97,-0.96 -2.74,-1.41 -2.50,-1.86 -2.14,-2.21 -1.78,-2.56 -1.32,-2.78 -0.86,-3.00 -0.36,-3.06 0.13,-3.12 0.63,-3.01 1.12,-2.91 1.56,-2.65 1.99,-2.40 2.33,-2.02 2.66,-1.63 2.85,-1.17 3.04,-0.70 3.07,-0.19 3.11,0.30 2.98,0.79 2.85,1.28 2.57,1.70 2.29,2.12 1.89,2.43 1.49,2.74 1.01,2.91 0.53,3.07 0.03,3.08 -0.47,3.08 -0.95,2.93 -1.43,2.77 -1.84,2.47 -2.24,2.17 -2.53,1.75 -2.82,1.34 -2.96,0.85 -3.10,0.36 -3.08,-0.13 -3.05,-0.64 -2.87,-1.11 -2.69,-1.58 -2.37,-1.97 -2.04,-2.36 -1.61,-2.62 -1.18,-2.89 -0.69,-3.00 -0.20,-3.11 0.30,-3.06 0.80,-3.02 1.26,-2.81 1.72,-2.60 2.09,-2.26 2.46,-1.91 2.71,-1.47 2.95,-1.02 3.03,-0.52 3.12,-0.03 3.12,-0.03 3.12,-0.03 3.07,4.21 3.01,8.45 1.06,9.45 -0.89,10.44 -2.11,10.37 -3.34,10.31 -4.70,9.47 -6.05,8.63 -6.79,7.27 -7.52,5.91 -7.39,4.47 -7.26,3.02 -6.77,1.32 -6.27,-0.38 -5.72,-1.32 -5.18,-2.26 -4.24,-3.09 -3.30,-3.92 -1.11,-4.26 1.07,-4.61 2.65,-4.24 4.24,-3.87 4.81,-2.96 5.38,-2.05 5.60,-0.36 5.83,1.32 5.30,3.05 4.76,4.78 4.28,6.12 3.80,7.46 2.80,8.92 1.80,10.38 -0.07,10.86 -1.94,11.33 -3.49,10.68 -5.03,10.04 -5.69,9.09 -6.34,8.14 -6.50,6.80 -6.67,5.46 -6.34,3.95 -6.02,2.44 -5.14,1.83 -4.27,1.22 -2.95,0.90 -1.63,0.58 -0.44,0.66 0.74,0.75 1.98,1.16 3.22,1.58 3.84,2.61 4.47,3.63 4.09,5.35 3.70,7.06 2.63,7.61 1.55,8.16 0.41,7.98 -0.73,7.81 -1.67,7.14 -2.61,6.48 -3.04,4.89 -3.47,3.30 -3.24,2.26 -3.00,1.22 -2.74,0.30 -2.47,-0.60 -2.36,-0.89 -2.25,-1.18 -2.08,-1.43 -1.90,-1.68 -1.67,-1.89 -1.44,-2.09 -1.17,-2.24 -0.90,-2.38 -0.60,-2.45 -0.30,-2.53 -0.00,-2.53 0.30,-2.53 0.60,-2.45 0.90,-2.38 1.17,-2.24 1.44,-2.09 1.67,-1.89 1.90,-1.69 2.08,-1.43 2.25,-1.18 2.36,-0.89 2.47,-0.61 2.51,-0.30 2.54,-0.00 2.51,0.30 2.47,0.60 2.47,0.60 L 2.47,0.60 Z"></path></g><g stroke-linecap="round"><g transform="translate(-23.354002205689085 431.2985767236778) rotate(83.98863945342782 50.13272586860444 14.556723396808593)"><path d="M0.32 0.05 C17.04 4.72, 84.4 23.9, 101.24 28.47 M-0.98 -0.97 C15.5 3.88, 83.33 25.19, 100.26 30.08" stroke="#000000" stroke-width="4" fill="none"></path></g></g><mask></mask><g stroke-linecap="round" transform="translate(31.869288213915752 377.8469289398081) rotate(83.98863945342782 6.521476739301761 6.521476739301761)"><path d="M5.76 0.54 C6.96 0.25, 8.64 0.43, 9.77 1.08 C10.9 1.74, 12.02 3.18, 12.54 4.47 C13.05 5.76, 13.4 7.5, 12.85 8.83 C12.31 10.16, 10.61 11.84, 9.26 12.46 C7.91 13.08, 6.14 12.86, 4.76 12.55 C3.38 12.24, 1.78 11.64, 0.98 10.58 C0.18 9.52, -0.23 7.56, -0.05 6.19 C0.13 4.82, 1.1 3.36, 2.06 2.36 C3.03 1.36, 5.13 0.59, 5.75 0.18 C6.37 -0.24, 5.77 -0.16, 5.78 -0.12 M6.97 0.02 C8.3 0.03, 9.93 1.16, 10.98 2.09 C12.03 3.01, 13.05 4.33, 13.25 5.55 C13.46 6.77, 12.9 8.2, 12.19 9.4 C11.49 10.61, 10.35 12.25, 9.01 12.8 C7.68 13.34, 5.55 13.12, 4.18 12.69 C2.82 12.25, 1.47 11.34, 0.81 10.18 C0.16 9.02, -0.01 7.22, 0.23 5.73 C0.48 4.24, 1.3 2.15, 2.3 1.23 C3.31 0.32, 5.56 0.52, 6.27 0.24 C6.98 -0.04, 6.54 -0.5, 6.56 -0.44" stroke="none" stroke-width="0" fill="#000"></path><path d="M7.07 0.36 C8.54 0.27, 10.19 0.95, 11.25 1.75 C12.31 2.56, 13.28 3.88, 13.42 5.19 C13.57 6.5, 12.89 8.27, 12.11 9.59 C11.34 10.91, 10.06 12.56, 8.76 13.1 C7.47 13.63, 5.57 13.31, 4.33 12.8 C3.09 12.28, 1.94 11.3, 1.31 10.01 C0.69 8.73, 0.4 6.51, 0.57 5.06 C0.74 3.61, 1.25 2.16, 2.35 1.3 C3.45 0.44, 6.37 0.07, 7.16 -0.09 C7.96 -0.25, 7.24 0.16, 7.1 0.33 M6.25 -0.3 C7.6 -0.39, 10.2 1.09, 11.29 2.05 C12.38 3.02, 12.8 4.29, 12.81 5.49 C12.81 6.7, 12.04 8, 11.33 9.28 C10.61 10.56, 9.8 12.71, 8.51 13.16 C7.21 13.6, 4.8 12.58, 3.54 11.95 C2.28 11.32, 1.5 10.43, 0.93 9.37 C0.37 8.31, -0.02 7.02, 0.14 5.61 C0.3 4.21, 0.9 1.81, 1.9 0.92 C2.9 0.02, 5.38 0.38, 6.15 0.24 C6.93 0.1, 6.43 -0.06, 6.55 0.08" stroke="#000000" stroke-width="1" fill="none"></path></g><g stroke-linecap="round"><g transform="translate(-24.322888795234803 542.7013352038502) rotate(83.98863945342782 48.1891217293379 0.16637172597756944)"><path d="M-0.94 1.1 C15.4 0.98, 81.21 -0.62, 97.32 -0.77 M0.77 0.64 C17.04 0.66, 80.4 0.89, 96.61 0.45" stroke="#000000" stroke-width="4" fill="none"></path></g></g><mask></mask><g stroke-linecap="round" transform="translate(13.495402107345171 496.44994020349804) rotate(83.98863945342782 6.131974648817845 6.131974648817959)"><path d="M4.86 0.34 C6.1 -0.04, 8.16 -0.24, 9.27 0.36 C10.39 0.96, 11.02 2.64, 11.53 3.91 C12.05 5.18, 12.68 6.73, 12.35 7.98 C12.01 9.22, 10.62 10.63, 9.53 11.38 C8.43 12.13, 7.05 12.6, 5.78 12.49 C4.5 12.37, 2.76 11.7, 1.88 10.71 C1 9.72, 0.63 7.84, 0.5 6.54 C0.36 5.23, 0.44 3.98, 1.09 2.89 C1.74 1.8, 3.77 0.47, 4.4 0.02 C5.02 -0.43, 4.76 0.09, 4.84 0.21 M5.76 -0.26 C7.05 -0.28, 8.91 0.85, 9.85 1.63 C10.78 2.4, 11.14 3.13, 11.35 4.39 C11.57 5.64, 11.5 7.86, 11.11 9.16 C10.73 10.46, 10.27 11.59, 9.06 12.19 C7.84 12.78, 5.2 13.29, 3.8 12.74 C2.41 12.19, 1.32 9.99, 0.7 8.9 C0.08 7.82, -0.17 7.41, 0.07 6.21 C0.31 5.01, 1.32 2.63, 2.13 1.69 C2.94 0.75, 4.22 0.77, 4.92 0.58 C5.62 0.39, 6.33 0.51, 6.33 0.57" stroke="none" stroke-width="0" fill="#000"></path><path d="M4.52 -0.23 C5.61 -0.72, 7.13 -0.32, 8.4 0.26 C9.66 0.83, 11.44 1.9, 12.12 3.22 C12.8 4.53, 12.95 6.76, 12.46 8.12 C11.97 9.49, 10.29 10.74, 9.19 11.42 C8.08 12.1, 7.05 12.32, 5.83 12.22 C4.6 12.12, 2.74 11.74, 1.84 10.82 C0.95 9.9, 0.51 8.02, 0.47 6.71 C0.43 5.39, 0.79 4.05, 1.6 2.93 C2.41 1.8, 4.73 0.38, 5.33 -0.03 C5.93 -0.44, 5.31 0.43, 5.22 0.47 M7.33 -0.64 C8.44 -0.67, 9.03 0.95, 9.94 2.09 C10.85 3.23, 12.58 4.86, 12.79 6.2 C13.01 7.54, 12.12 9.18, 11.22 10.14 C10.31 11.1, 8.61 11.77, 7.34 11.98 C6.07 12.19, 4.8 12.01, 3.58 11.38 C2.36 10.75, 0.5 9.26, 0.02 8.18 C-0.46 7.1, 0.34 6.07, 0.69 4.91 C1.03 3.74, 1.15 2.02, 2.07 1.19 C2.99 0.36, 5.46 0.14, 6.22 -0.07 C6.98 -0.27, 6.54 -0.09, 6.63 -0.04" stroke="#000000" stroke-width="1" fill="none"></path></g><g stroke-linecap="round"><g transform="translate(-30.69393834073412 635.8267506076545) rotate(83.98863945342782 50.27359250997415 14.166970262645918)"><path d="M-0.44 -1.03 C16.32 3.66, 83.98 22.94, 100.99 28 M1.52 1.05 C18.07 5.92, 83.29 24.96, 99.87 29.36" stroke="#000000" stroke-width="4" fill="none"></path></g></g><mask></mask><g stroke-linecap="round" transform="translate(24.529352078870716 582.3751028237848) rotate(83.98863945342782 6.521476739301761 6.521476739301761)"><path d="M5.9 0.21 C7.16 -0.02, 8.84 0.3, 9.99 0.98 C11.14 1.65, 12.38 2.93, 12.79 4.25 C13.19 5.58, 12.91 7.58, 12.41 8.93 C11.92 10.27, 10.98 11.66, 9.8 12.32 C8.63 12.98, 6.83 13.15, 5.37 12.91 C3.9 12.66, 1.92 12.02, 1.02 10.84 C0.12 9.65, -0.12 7.23, -0.03 5.81 C0.06 4.38, 0.54 3.2, 1.56 2.3 C2.58 1.41, 5.26 0.82, 6.11 0.42 C6.96 0.02, 6.58 -0.2, 6.66 -0.09 M5.75 0.22 C6.89 0.06, 8.73 0.23, 10.03 1.06 C11.33 1.89, 13.15 3.81, 13.57 5.2 C13.99 6.58, 13.31 8.19, 12.54 9.38 C11.77 10.56, 10.34 11.83, 8.95 12.31 C7.56 12.78, 5.52 12.59, 4.2 12.23 C2.88 11.86, 1.61 11.35, 1.03 10.12 C0.45 8.88, 0.56 6.34, 0.71 4.82 C0.86 3.29, 0.99 1.75, 1.92 0.98 C2.85 0.21, 5.49 0.37, 6.29 0.2 C7.09 0.04, 6.83 -0.11, 6.73 -0.03" stroke="none" stroke-width="0" fill="#000"></path><path d="M7.16 -0.45 C8.51 -0.59, 10.49 0.33, 11.51 1.44 C12.53 2.54, 13.16 4.81, 13.28 6.2 C13.39 7.59, 12.95 8.67, 12.2 9.79 C11.45 10.92, 10.2 12.43, 8.78 12.95 C7.37 13.47, 5.04 13.44, 3.73 12.93 C2.42 12.41, 1.51 11.1, 0.91 9.86 C0.31 8.62, -0.24 6.91, 0.12 5.47 C0.47 4.02, 1.87 2.1, 3.04 1.19 C4.2 0.27, 6.43 0.08, 7.09 -0.03 C7.74 -0.13, 7 0.54, 6.98 0.57 M5.97 -0.52 C7.37 -0.73, 9.72 0.36, 10.88 1.3 C12.03 2.23, 12.62 3.66, 12.92 5.1 C13.21 6.53, 13.27 8.74, 12.64 9.91 C12.02 11.08, 10.58 11.77, 9.16 12.13 C7.74 12.48, 5.54 12.47, 4.12 12.03 C2.69 11.59, 1.24 10.67, 0.62 9.5 C0.01 8.33, 0.06 6.33, 0.44 5.04 C0.82 3.75, 1.98 2.68, 2.9 1.74 C3.81 0.79, 5.32 -0.45, 5.95 -0.63 C6.58 -0.81, 6.45 0.37, 6.69 0.66" stroke="#000000" stroke-width="1" fill="none"></path></g></svg>